<svg width="77" height="96" viewBox="0 0 77 96" fill="none" xmlns="http://www.w3.org/2000/svg">
<path d="M75.4256 70.303V69.1208H74.2434H55.4081V3V1.81786H54.2259H28.5342H27.8036L27.4768 2.47133C27.0777 3.26948 25.9526 4.49711 23.8552 6.17498L23.8436 6.18427L23.8322 6.19385C21.8892 7.83009 19.5744 9.4778 16.8813 11.1351L16.8724 11.1405L16.8636 11.1462C14.2899 12.7934 11.7227 14.1796 9.16231 15.3074C6.61155 16.326 4.57023 16.7916 3 16.7916H1.81786V17.9737V41.3012V42.4834H3C5.21784 42.4834 7.6274 42.151 10.2219 41.5024L10.2442 41.4968L10.2662 41.4904C12.8477 40.7374 15.3739 39.7701 17.8445 38.589C20.4028 37.4161 22.7065 36.1846 24.7521 34.8927C25.724 34.2788 26.5932 33.6543 27.352 33.0171V69.1208H6.15236H4.97023V70.303V93V94.1821H6.15236H74.2434H75.4256V93V70.303Z" stroke="url(#paint0_linear)" stroke-width="2.36427"/>
<defs>
<linearGradient id="paint0_linear" x1="38.6217" y1="3" x2="38.6217" y2="93" gradientUnits="userSpaceOnUse">
<stop stop-opacity="0"/>
<stop offset="1" stop-color="#00BDFD"/>
</linearGradient>
</defs>
</svg>
