<svg width="245" height="58" viewBox="0 0 245 58" fill="none" xmlns="http://www.w3.org/2000/svg">
<mask id="path-1-outside-1" maskUnits="userSpaceOnUse" x="0" y="0" width="245" height="58" fill="black">
<rect fill="white" width="245" height="58"/>
<path d="M41.8817 41.9677V54.3548H4.72043V41.9677H16.9355V20.0323C16.4194 20.7204 15.6165 21.4086 14.5269 22.0968C13.4373 22.7849 12.2043 23.4444 10.828 24.0753C9.50896 24.7061 8.16129 25.2222 6.78495 25.6237C5.4086 25.9677 4.14695 26.1398 3 26.1398V13.4086C3.97491 13.4086 5.17921 13.1219 6.6129 12.5484C8.0466 11.9176 9.48029 11.1434 10.914 10.2258C12.405 9.30824 13.6953 8.39068 14.7849 7.47312C15.9319 6.55555 16.6487 5.81003 16.9355 5.23656H30.957V41.9677H41.8817Z"/>
<path d="M94.4906 29.1505C94.4906 34.1971 93.5157 38.6989 91.5659 42.6559C89.616 46.5556 86.9494 49.6237 83.5659 51.8602C80.1824 54.0968 76.3401 55.2151 72.039 55.2151C67.7952 55.2151 63.953 54.0968 60.5121 51.8602C57.1286 49.6237 54.4619 46.5556 52.5121 42.6559C50.5623 38.6989 49.5874 34.1971 49.5874 29.1505C49.5874 24.1039 50.5623 19.6308 52.5121 15.7312C54.4619 11.7742 57.1286 8.67742 60.5121 6.44086C63.953 4.14695 67.7952 3 72.039 3C76.3401 3 80.1824 4.14695 83.5659 6.44086C86.9494 8.67742 89.616 11.7742 91.5659 15.7312C93.5157 19.6308 94.4906 24.1039 94.4906 29.1505ZM80.6411 29.1505C80.6411 26.4552 80.2684 24.1039 79.5229 22.0968C78.7773 20.0896 77.7451 18.5125 76.4261 17.3656C75.1644 16.2186 73.7021 15.6452 72.039 15.6452C70.3186 15.6452 68.7988 16.2186 67.4798 17.3656C66.1608 18.5125 65.1286 20.0896 64.3831 22.0968C63.6949 24.1039 63.3508 26.4552 63.3508 29.1505C63.3508 31.8459 63.6949 34.1971 64.3831 36.2043C65.1286 38.2115 66.1608 39.7885 67.4798 40.9355C68.7988 42.0251 70.3186 42.5699 72.039 42.5699C73.7021 42.5699 75.1644 42.0251 76.4261 40.9355C77.7451 39.7885 78.7773 38.2115 79.5229 36.2043C80.2684 34.1971 80.6411 31.8459 80.6411 29.1505Z"/>
<path d="M149.05 29.1505C149.05 34.1971 148.076 38.6989 146.126 42.6559C144.176 46.5556 141.509 49.6237 138.126 51.8602C134.742 54.0968 130.9 55.2151 126.599 55.2151C122.355 55.2151 118.513 54.0968 115.072 51.8602C111.688 49.6237 109.022 46.5556 107.072 42.6559C105.122 38.6989 104.147 34.1971 104.147 29.1505C104.147 24.1039 105.122 19.6308 107.072 15.7312C109.022 11.7742 111.688 8.67742 115.072 6.44086C118.513 4.14695 122.355 3 126.599 3C130.9 3 134.742 4.14695 138.126 6.44086C141.509 8.67742 144.176 11.7742 146.126 15.7312C148.076 19.6308 149.05 24.1039 149.05 29.1505ZM135.201 29.1505C135.201 26.4552 134.828 24.1039 134.083 22.0968C133.337 20.0896 132.305 18.5125 130.986 17.3656C129.724 16.2186 128.262 15.6452 126.599 15.6452C124.878 15.6452 123.359 16.2186 122.04 17.3656C120.721 18.5125 119.688 20.0896 118.943 22.0968C118.255 24.1039 117.911 26.4552 117.911 29.1505C117.911 31.8459 118.255 34.1971 118.943 36.2043C119.688 38.2115 120.721 39.7885 122.04 40.9355C123.359 42.0251 124.878 42.5699 126.599 42.5699C128.262 42.5699 129.724 42.0251 130.986 40.9355C132.305 39.7885 133.337 38.2115 134.083 36.2043C134.828 34.1971 135.201 31.8459 135.201 29.1505Z"/>
<path d="M203.61 29.1505C203.61 34.1971 202.635 38.6989 200.685 42.6559C198.736 46.5556 196.069 49.6237 192.685 51.8602C189.302 54.0968 185.46 55.2151 181.159 55.2151C176.915 55.2151 173.073 54.0968 169.632 51.8602C166.248 49.6237 163.582 46.5556 161.632 42.6559C159.682 38.6989 158.707 34.1971 158.707 29.1505C158.707 24.1039 159.682 19.6308 161.632 15.7312C163.582 11.7742 166.248 8.67742 169.632 6.44086C173.073 4.14695 176.915 3 181.159 3C185.46 3 189.302 4.14695 192.685 6.44086C196.069 8.67742 198.736 11.7742 200.685 15.7312C202.635 19.6308 203.61 24.1039 203.61 29.1505ZM189.761 29.1505C189.761 26.4552 189.388 24.1039 188.642 22.0968C187.897 20.0896 186.865 18.5125 185.546 17.3656C184.284 16.2186 182.822 15.6452 181.159 15.6452C179.438 15.6452 177.918 16.2186 176.599 17.3656C175.28 18.5125 174.248 20.0896 173.503 22.0968C172.815 24.1039 172.47 26.4552 172.47 29.1505C172.47 31.8459 172.815 34.1971 173.503 36.2043C174.248 38.2115 175.28 39.7885 176.599 40.9355C177.918 42.0251 179.438 42.5699 181.159 42.5699C182.822 42.5699 184.284 42.0251 185.546 40.9355C186.865 39.7885 187.897 38.2115 188.642 36.2043C189.388 34.1971 189.761 31.8459 189.761 29.1505Z"/>
<path d="M241.912 18.3118V29.3226H233.74V38.2688H221.353V29.3226H213.267V18.3118H221.353V9.36559H233.74V18.3118H241.912Z"/>
</mask>
<path d="M41.8817 41.9677V54.3548H4.72043V41.9677H16.9355V20.0323C16.4194 20.7204 15.6165 21.4086 14.5269 22.0968C13.4373 22.7849 12.2043 23.4444 10.828 24.0753C9.50896 24.7061 8.16129 25.2222 6.78495 25.6237C5.4086 25.9677 4.14695 26.1398 3 26.1398V13.4086C3.97491 13.4086 5.17921 13.1219 6.6129 12.5484C8.0466 11.9176 9.48029 11.1434 10.914 10.2258C12.405 9.30824 13.6953 8.39068 14.7849 7.47312C15.9319 6.55555 16.6487 5.81003 16.9355 5.23656H30.957V41.9677H41.8817Z" stroke="url(#paint0_linear)" stroke-width="4.30107" mask="url(#path-1-outside-1)"/>
<path d="M94.4906 29.1505C94.4906 34.1971 93.5157 38.6989 91.5659 42.6559C89.616 46.5556 86.9494 49.6237 83.5659 51.8602C80.1824 54.0968 76.3401 55.2151 72.039 55.2151C67.7952 55.2151 63.953 54.0968 60.5121 51.8602C57.1286 49.6237 54.4619 46.5556 52.5121 42.6559C50.5623 38.6989 49.5874 34.1971 49.5874 29.1505C49.5874 24.1039 50.5623 19.6308 52.5121 15.7312C54.4619 11.7742 57.1286 8.67742 60.5121 6.44086C63.953 4.14695 67.7952 3 72.039 3C76.3401 3 80.1824 4.14695 83.5659 6.44086C86.9494 8.67742 89.616 11.7742 91.5659 15.7312C93.5157 19.6308 94.4906 24.1039 94.4906 29.1505ZM80.6411 29.1505C80.6411 26.4552 80.2684 24.1039 79.5229 22.0968C78.7773 20.0896 77.7451 18.5125 76.4261 17.3656C75.1644 16.2186 73.7021 15.6452 72.039 15.6452C70.3186 15.6452 68.7988 16.2186 67.4798 17.3656C66.1608 18.5125 65.1286 20.0896 64.3831 22.0968C63.6949 24.1039 63.3508 26.4552 63.3508 29.1505C63.3508 31.8459 63.6949 34.1971 64.3831 36.2043C65.1286 38.2115 66.1608 39.7885 67.4798 40.9355C68.7988 42.0251 70.3186 42.5699 72.039 42.5699C73.7021 42.5699 75.1644 42.0251 76.4261 40.9355C77.7451 39.7885 78.7773 38.2115 79.5229 36.2043C80.2684 34.1971 80.6411 31.8459 80.6411 29.1505Z" stroke="url(#paint1_linear)" stroke-width="4.30107" mask="url(#path-1-outside-1)"/>
<path d="M149.05 29.1505C149.05 34.1971 148.076 38.6989 146.126 42.6559C144.176 46.5556 141.509 49.6237 138.126 51.8602C134.742 54.0968 130.9 55.2151 126.599 55.2151C122.355 55.2151 118.513 54.0968 115.072 51.8602C111.688 49.6237 109.022 46.5556 107.072 42.6559C105.122 38.6989 104.147 34.1971 104.147 29.1505C104.147 24.1039 105.122 19.6308 107.072 15.7312C109.022 11.7742 111.688 8.67742 115.072 6.44086C118.513 4.14695 122.355 3 126.599 3C130.9 3 134.742 4.14695 138.126 6.44086C141.509 8.67742 144.176 11.7742 146.126 15.7312C148.076 19.6308 149.05 24.1039 149.05 29.1505ZM135.201 29.1505C135.201 26.4552 134.828 24.1039 134.083 22.0968C133.337 20.0896 132.305 18.5125 130.986 17.3656C129.724 16.2186 128.262 15.6452 126.599 15.6452C124.878 15.6452 123.359 16.2186 122.04 17.3656C120.721 18.5125 119.688 20.0896 118.943 22.0968C118.255 24.1039 117.911 26.4552 117.911 29.1505C117.911 31.8459 118.255 34.1971 118.943 36.2043C119.688 38.2115 120.721 39.7885 122.04 40.9355C123.359 42.0251 124.878 42.5699 126.599 42.5699C128.262 42.5699 129.724 42.0251 130.986 40.9355C132.305 39.7885 133.337 38.2115 134.083 36.2043C134.828 34.1971 135.201 31.8459 135.201 29.1505Z" stroke="url(#paint2_linear)" stroke-width="4.30107" mask="url(#path-1-outside-1)"/>
<path d="M203.61 29.1505C203.61 34.1971 202.635 38.6989 200.685 42.6559C198.736 46.5556 196.069 49.6237 192.685 51.8602C189.302 54.0968 185.46 55.2151 181.159 55.2151C176.915 55.2151 173.073 54.0968 169.632 51.8602C166.248 49.6237 163.582 46.5556 161.632 42.6559C159.682 38.6989 158.707 34.1971 158.707 29.1505C158.707 24.1039 159.682 19.6308 161.632 15.7312C163.582 11.7742 166.248 8.67742 169.632 6.44086C173.073 4.14695 176.915 3 181.159 3C185.46 3 189.302 4.14695 192.685 6.44086C196.069 8.67742 198.736 11.7742 200.685 15.7312C202.635 19.6308 203.61 24.1039 203.61 29.1505ZM189.761 29.1505C189.761 26.4552 189.388 24.1039 188.642 22.0968C187.897 20.0896 186.865 18.5125 185.546 17.3656C184.284 16.2186 182.822 15.6452 181.159 15.6452C179.438 15.6452 177.918 16.2186 176.599 17.3656C175.28 18.5125 174.248 20.0896 173.503 22.0968C172.815 24.1039 172.47 26.4552 172.47 29.1505C172.47 31.8459 172.815 34.1971 173.503 36.2043C174.248 38.2115 175.28 39.7885 176.599 40.9355C177.918 42.0251 179.438 42.5699 181.159 42.5699C182.822 42.5699 184.284 42.0251 185.546 40.9355C186.865 39.7885 187.897 38.2115 188.642 36.2043C189.388 34.1971 189.761 31.8459 189.761 29.1505Z" stroke="url(#paint3_linear)" stroke-width="4.30107" mask="url(#path-1-outside-1)"/>
<path d="M241.912 18.3118V29.3226H233.74V38.2688H221.353V29.3226H213.267V18.3118H221.353V9.36559H233.74V18.3118H241.912Z" stroke="url(#paint4_linear)" stroke-width="4.30107" mask="url(#path-1-outside-1)"/>
<defs>
<linearGradient id="paint0_linear" x1="122.456" y1="3" x2="122.456" y2="55.2151" gradientUnits="userSpaceOnUse">
<stop stop-opacity="0"/>
<stop offset="1" stop-color="#00BDFD"/>
</linearGradient>
<linearGradient id="paint1_linear" x1="122.456" y1="3" x2="122.456" y2="55.2151" gradientUnits="userSpaceOnUse">
<stop stop-opacity="0"/>
<stop offset="1" stop-color="#00BDFD"/>
</linearGradient>
<linearGradient id="paint2_linear" x1="122.456" y1="3" x2="122.456" y2="55.2151" gradientUnits="userSpaceOnUse">
<stop stop-opacity="0"/>
<stop offset="1" stop-color="#00BDFD"/>
</linearGradient>
<linearGradient id="paint3_linear" x1="122.456" y1="3" x2="122.456" y2="55.2151" gradientUnits="userSpaceOnUse">
<stop stop-opacity="0"/>
<stop offset="1" stop-color="#00BDFD"/>
</linearGradient>
<linearGradient id="paint4_linear" x1="122.456" y1="3" x2="122.456" y2="55.2151" gradientUnits="userSpaceOnUse">
<stop stop-opacity="0"/>
<stop offset="1" stop-color="#00BDFD"/>
</linearGradient>
</defs>
</svg>
