<svg width="84" height="96" viewBox="0 0 84 96" fill="none" xmlns="http://www.w3.org/2000/svg">
<path d="M2.17146 93V94.1618H3.33325H81.0957H82.2575V93V70.6936V69.5318H81.0957H41.1405C41.8708 68.9017 42.6128 68.3104 43.3662 67.7579L43.3663 67.7579L43.3763 67.7504C44.9851 66.5438 46.6962 65.4365 48.5102 64.4287L48.5313 64.417L48.5518 64.4044C50.3864 63.2833 52.3776 62.1598 54.5264 61.0343L54.5452 61.0244L54.5637 61.0139C56.7118 59.7864 59.0163 58.5572 61.4776 57.3266L61.5247 57.303L61.5695 57.2753C63.7687 55.9139 65.9648 54.3976 68.1578 52.7272C70.4973 51.0246 72.5759 49.1059 74.3906 46.971C76.2273 44.8102 77.6844 42.3812 78.7622 39.69C79.9668 36.8382 80.5536 33.5847 80.5536 29.9535C80.5536 24.2818 79.1593 19.3004 76.3309 15.0578C73.5026 10.8154 69.3881 7.58487 64.0544 5.34226C58.8051 2.98829 52.3883 1.83821 44.8479 1.83821C40.228 1.83821 35.7589 2.31036 31.4425 3.25704C27.2555 4.09508 23.3699 5.2489 19.7893 6.72216C16.2221 8.08697 13.0071 9.66697 10.1497 11.4661L10.1413 11.4714L10.1329 11.4768C7.39925 13.2642 5.11201 15.0688 3.28627 16.8945L2.52606 17.6547L3.22515 18.4715L18.8706 36.7503L19.7399 37.7659L20.6244 36.7635C22.1439 35.0414 23.6564 33.5298 25.1613 32.2256L25.1774 32.2116L25.1931 32.197C26.6882 30.8016 28.2257 29.6117 29.8049 28.6234C31.474 27.6431 33.1836 26.9123 34.9351 26.4258C36.6858 25.9395 38.5428 25.6936 40.5105 25.6936C42.9751 25.6936 44.9633 26.0889 46.5219 26.8223L46.5477 26.8345L46.5742 26.8454C48.1341 27.4877 49.2793 28.4272 50.0668 29.6523C50.8594 30.8852 51.2765 32.3642 51.2765 34.136C51.2765 35.3452 50.9353 36.4646 50.2323 37.5191L50.2255 37.5294L50.2188 37.5398C49.6319 38.4622 48.4586 39.5393 46.5511 40.7441C44.6138 41.9676 42.0014 43.5048 38.7073 45.3578C35.5127 47.1096 31.4916 49.2748 26.6431 51.8538L26.6419 51.8544C21.9328 54.3659 17.9779 57.0504 14.7944 59.9154C11.7171 62.6745 9.21042 65.7108 7.28552 69.0259L7.28546 69.0259L7.27944 69.0365C5.4606 72.2462 4.13061 75.8178 3.28204 79.7424L3.27885 79.7572L3.27605 79.772C2.53686 83.6791 2.17146 88.0908 2.17146 93Z" stroke="url(#paint0_linear)" stroke-width="2.32358"/>
<defs>
<linearGradient id="paint0_linear" x1="42.2145" y1="3" x2="42.2145" y2="93" gradientUnits="userSpaceOnUse">
<stop stop-opacity="0"/>
<stop offset="1" stop-color="#00BDFD"/>
</linearGradient>
</defs>
</svg>
