<svg width="212" height="68" viewBox="0 0 212 68" fill="none" xmlns="http://www.w3.org/2000/svg">
<mask id="path-1-outside-1" maskUnits="userSpaceOnUse" x="0" y="0" width="212" height="68" fill="black">
<rect fill="white" width="212" height="68"/>
<path d="M3 64.5914C3 61.8961 3.20072 59.4875 3.60215 57.3656C4.06093 55.2437 4.77778 53.3226 5.75269 51.6022C6.78495 49.8244 8.13262 48.19 9.7957 46.6989C11.5161 45.1505 13.6667 43.6882 16.2473 42.3118C18.9427 40.8781 21.1792 39.6738 22.957 38.6989C24.7921 37.6667 26.2545 36.8065 27.3441 36.1183C28.4337 35.4301 29.1792 34.7706 29.5806 34.1398C30.0394 33.4516 30.2688 32.7061 30.2688 31.9032C30.2688 30.8136 30.0108 29.8674 29.4946 29.0645C28.9785 28.2616 28.233 27.6595 27.2581 27.2581C26.2832 26.7993 25.0789 26.5699 23.6452 26.5699C22.4982 26.5699 21.4086 26.7133 20.3763 27C19.3441 27.2867 18.3405 27.7168 17.3656 28.2903C16.448 28.8638 15.5591 29.552 14.6989 30.3548C13.8387 31.1004 12.9785 31.9606 12.1183 32.9355L3.43011 22.7849C4.40502 21.81 5.63799 20.8351 7.12903 19.8602C8.67742 18.8853 10.4265 18.0251 12.3763 17.2796C14.3262 16.4767 16.448 15.8459 18.7419 15.3871C21.0932 14.871 23.5305 14.6129 26.0538 14.6129C30.1828 14.6129 33.6523 15.2437 36.4624 16.5054C39.3298 17.7097 41.509 19.4301 43 21.6667C44.491 23.9032 45.2366 26.5412 45.2366 29.5806C45.2366 31.5305 44.9212 33.2509 44.2903 34.7419C43.7168 36.1756 42.9427 37.4659 41.9677 38.6129C40.9928 39.7599 39.8746 40.7921 38.6129 41.7097C37.4086 42.6272 36.2043 43.4588 35 44.2043C33.6237 44.8925 32.3333 45.5806 31.129 46.2688C29.9247 46.8996 28.8065 47.5305 27.7742 48.1613C26.7419 48.7348 25.767 49.3656 24.8495 50.0538C23.9892 50.6846 23.1577 51.4014 22.3548 52.2043H46.1828V64.5914H3Z"/>
<path d="M100.469 39.3871C100.469 44.4337 99.4942 48.9355 97.5444 52.8925C95.5945 56.7921 92.9279 59.8602 89.5444 62.0968C86.1608 64.3333 82.3186 65.4516 78.0175 65.4516C73.7738 65.4516 69.9315 64.3333 66.4906 62.0968C63.1071 59.8602 60.4404 56.7921 58.4906 52.8925C56.5408 48.9355 55.5659 44.4337 55.5659 39.3871C55.5659 34.3405 56.5408 29.8674 58.4906 25.9677C60.4404 22.0108 63.1071 18.914 66.4906 16.6774C69.9315 14.3835 73.7738 13.2366 78.0175 13.2366C82.3186 13.2366 86.1608 14.3835 89.5444 16.6774C92.9279 18.914 95.5945 22.0108 97.5444 25.9677C99.4942 29.8674 100.469 34.3405 100.469 39.3871ZM86.6196 39.3871C86.6196 36.6918 86.2469 34.3405 85.5014 32.3333C84.7558 30.3262 83.7236 28.7491 82.4046 27.6021C81.1429 26.4552 79.6806 25.8817 78.0175 25.8817C76.2971 25.8817 74.7773 26.4552 73.4583 27.6021C72.1393 28.7491 71.1071 30.3262 70.3616 32.3333C69.6734 34.3405 69.3293 36.6918 69.3293 39.3871C69.3293 42.0824 69.6734 44.4337 70.3616 46.4409C71.1071 48.448 72.1393 50.0251 73.4583 51.172C74.7773 52.2616 76.2971 52.8064 78.0175 52.8064C79.6806 52.8064 81.1429 52.2616 82.4046 51.172C83.7236 50.0251 84.7558 48.448 85.5014 46.4409C86.2469 44.4337 86.6196 42.0824 86.6196 39.3871Z"/>
<path d="M155.029 39.3871C155.029 44.4337 154.054 48.9355 152.104 52.8925C150.154 56.7921 147.488 59.8602 144.104 62.0968C140.721 64.3333 136.878 65.4516 132.577 65.4516C128.334 65.4516 124.491 64.3333 121.05 62.0968C117.667 59.8602 115 56.7921 113.05 52.8925C111.101 48.9355 110.126 44.4337 110.126 39.3871C110.126 34.3405 111.101 29.8674 113.05 25.9677C115 22.0108 117.667 18.914 121.05 16.6774C124.491 14.3835 128.334 13.2366 132.577 13.2366C136.878 13.2366 140.721 14.3835 144.104 16.6774C147.488 18.914 150.154 22.0108 152.104 25.9677C154.054 29.8674 155.029 34.3405 155.029 39.3871ZM141.179 39.3871C141.179 36.6918 140.807 34.3405 140.061 32.3333C139.316 30.3262 138.283 28.7491 136.964 27.6021C135.703 26.4552 134.24 25.8817 132.577 25.8817C130.857 25.8817 129.337 26.4552 128.018 27.6021C126.699 28.7491 125.667 30.3262 124.921 32.3333C124.233 34.3405 123.889 36.6918 123.889 39.3871C123.889 42.0824 124.233 44.4337 124.921 46.4409C125.667 48.448 126.699 50.0251 128.018 51.172C129.337 52.2616 130.857 52.8064 132.577 52.8064C134.24 52.8064 135.703 52.2616 136.964 51.172C138.283 50.0251 139.316 48.448 140.061 46.4409C140.807 44.4337 141.179 42.0824 141.179 39.3871Z"/>
<path d="M209.675 44.0323C209.675 40.19 208.728 36.7778 206.836 33.7957C205.001 30.7563 202.478 28.3477 199.266 26.5699C196.055 24.7921 192.413 23.9032 188.341 23.9032C186.678 23.9032 185.13 24.1039 183.696 24.5054C182.263 24.8495 181.001 25.3943 179.911 26.1398C178.822 26.828 177.875 27.7168 177.073 28.8065C177.187 25.8817 177.703 23.3871 178.621 21.3226C179.539 19.2581 180.829 17.681 182.492 16.5914C184.155 15.5018 186.076 14.957 188.255 14.957C190.549 14.957 192.7 15.4731 194.707 16.5054C196.714 17.5376 198.435 18.9713 199.868 20.8065L207.61 12.0323C205.202 9.16488 202.363 6.95699 199.094 5.4086C195.825 3.80287 192.298 3 188.513 3C183.524 3 179.223 4.319 175.61 6.95699C172.055 9.53764 169.302 13.3226 167.352 18.3118C165.402 23.3011 164.427 29.3513 164.427 36.4624C164.427 42.5412 165.316 47.7599 167.094 52.1183C168.929 56.4194 171.539 59.7169 174.922 62.0108C178.306 64.3047 182.377 65.4516 187.137 65.4516C191.381 65.4516 195.194 64.5054 198.578 62.6129C202.019 60.6631 204.714 58.0824 206.664 54.871C208.671 51.6595 209.675 48.0466 209.675 44.0323ZM187.137 53.8387C185.474 53.8387 183.926 53.4086 182.492 52.5484C181.058 51.6308 179.883 50.4265 178.965 48.9355C178.105 47.4444 177.675 45.8387 177.675 44.1183C177.675 42.3405 178.105 40.7634 178.965 39.3871C179.825 37.9534 180.972 36.8351 182.406 36.0323C183.84 35.172 185.417 34.7419 187.137 34.7419C188.858 34.7419 190.435 35.172 191.868 36.0323C193.302 36.8351 194.449 37.9534 195.309 39.3871C196.169 40.7634 196.599 42.3118 196.599 44.0323C196.599 45.81 196.141 47.4444 195.223 48.9355C194.363 50.4265 193.216 51.6308 191.782 52.5484C190.406 53.4086 188.858 53.8387 187.137 53.8387Z"/>
</mask>
<path d="M3 64.5914C3 61.8961 3.20072 59.4875 3.60215 57.3656C4.06093 55.2437 4.77778 53.3226 5.75269 51.6022C6.78495 49.8244 8.13262 48.19 9.7957 46.6989C11.5161 45.1505 13.6667 43.6882 16.2473 42.3118C18.9427 40.8781 21.1792 39.6738 22.957 38.6989C24.7921 37.6667 26.2545 36.8065 27.3441 36.1183C28.4337 35.4301 29.1792 34.7706 29.5806 34.1398C30.0394 33.4516 30.2688 32.7061 30.2688 31.9032C30.2688 30.8136 30.0108 29.8674 29.4946 29.0645C28.9785 28.2616 28.233 27.6595 27.2581 27.2581C26.2832 26.7993 25.0789 26.5699 23.6452 26.5699C22.4982 26.5699 21.4086 26.7133 20.3763 27C19.3441 27.2867 18.3405 27.7168 17.3656 28.2903C16.448 28.8638 15.5591 29.552 14.6989 30.3548C13.8387 31.1004 12.9785 31.9606 12.1183 32.9355L3.43011 22.7849C4.40502 21.81 5.63799 20.8351 7.12903 19.8602C8.67742 18.8853 10.4265 18.0251 12.3763 17.2796C14.3262 16.4767 16.448 15.8459 18.7419 15.3871C21.0932 14.871 23.5305 14.6129 26.0538 14.6129C30.1828 14.6129 33.6523 15.2437 36.4624 16.5054C39.3298 17.7097 41.509 19.4301 43 21.6667C44.491 23.9032 45.2366 26.5412 45.2366 29.5806C45.2366 31.5305 44.9212 33.2509 44.2903 34.7419C43.7168 36.1756 42.9427 37.4659 41.9677 38.6129C40.9928 39.7599 39.8746 40.7921 38.6129 41.7097C37.4086 42.6272 36.2043 43.4588 35 44.2043C33.6237 44.8925 32.3333 45.5806 31.129 46.2688C29.9247 46.8996 28.8065 47.5305 27.7742 48.1613C26.7419 48.7348 25.767 49.3656 24.8495 50.0538C23.9892 50.6846 23.1577 51.4014 22.3548 52.2043H46.1828V64.5914H3Z" stroke="url(#paint0_linear)" stroke-width="4.30107" mask="url(#path-1-outside-1)"/>
<path d="M100.469 39.3871C100.469 44.4337 99.4942 48.9355 97.5444 52.8925C95.5945 56.7921 92.9279 59.8602 89.5444 62.0968C86.1608 64.3333 82.3186 65.4516 78.0175 65.4516C73.7738 65.4516 69.9315 64.3333 66.4906 62.0968C63.1071 59.8602 60.4404 56.7921 58.4906 52.8925C56.5408 48.9355 55.5659 44.4337 55.5659 39.3871C55.5659 34.3405 56.5408 29.8674 58.4906 25.9677C60.4404 22.0108 63.1071 18.914 66.4906 16.6774C69.9315 14.3835 73.7738 13.2366 78.0175 13.2366C82.3186 13.2366 86.1608 14.3835 89.5444 16.6774C92.9279 18.914 95.5945 22.0108 97.5444 25.9677C99.4942 29.8674 100.469 34.3405 100.469 39.3871ZM86.6196 39.3871C86.6196 36.6918 86.2469 34.3405 85.5014 32.3333C84.7558 30.3262 83.7236 28.7491 82.4046 27.6021C81.1429 26.4552 79.6806 25.8817 78.0175 25.8817C76.2971 25.8817 74.7773 26.4552 73.4583 27.6021C72.1393 28.7491 71.1071 30.3262 70.3616 32.3333C69.6734 34.3405 69.3293 36.6918 69.3293 39.3871C69.3293 42.0824 69.6734 44.4337 70.3616 46.4409C71.1071 48.448 72.1393 50.0251 73.4583 51.172C74.7773 52.2616 76.2971 52.8064 78.0175 52.8064C79.6806 52.8064 81.1429 52.2616 82.4046 51.172C83.7236 50.0251 84.7558 48.448 85.5014 46.4409C86.2469 44.4337 86.6196 42.0824 86.6196 39.3871Z" stroke="url(#paint1_linear)" stroke-width="4.30107" mask="url(#path-1-outside-1)"/>
<path d="M155.029 39.3871C155.029 44.4337 154.054 48.9355 152.104 52.8925C150.154 56.7921 147.488 59.8602 144.104 62.0968C140.721 64.3333 136.878 65.4516 132.577 65.4516C128.334 65.4516 124.491 64.3333 121.05 62.0968C117.667 59.8602 115 56.7921 113.05 52.8925C111.101 48.9355 110.126 44.4337 110.126 39.3871C110.126 34.3405 111.101 29.8674 113.05 25.9677C115 22.0108 117.667 18.914 121.05 16.6774C124.491 14.3835 128.334 13.2366 132.577 13.2366C136.878 13.2366 140.721 14.3835 144.104 16.6774C147.488 18.914 150.154 22.0108 152.104 25.9677C154.054 29.8674 155.029 34.3405 155.029 39.3871ZM141.179 39.3871C141.179 36.6918 140.807 34.3405 140.061 32.3333C139.316 30.3262 138.283 28.7491 136.964 27.6021C135.703 26.4552 134.24 25.8817 132.577 25.8817C130.857 25.8817 129.337 26.4552 128.018 27.6021C126.699 28.7491 125.667 30.3262 124.921 32.3333C124.233 34.3405 123.889 36.6918 123.889 39.3871C123.889 42.0824 124.233 44.4337 124.921 46.4409C125.667 48.448 126.699 50.0251 128.018 51.172C129.337 52.2616 130.857 52.8064 132.577 52.8064C134.24 52.8064 135.703 52.2616 136.964 51.172C138.283 50.0251 139.316 48.448 140.061 46.4409C140.807 44.4337 141.179 42.0824 141.179 39.3871Z" stroke="url(#paint2_linear)" stroke-width="4.30107" mask="url(#path-1-outside-1)"/>
<path d="M209.675 44.0323C209.675 40.19 208.728 36.7778 206.836 33.7957C205.001 30.7563 202.478 28.3477 199.266 26.5699C196.055 24.7921 192.413 23.9032 188.341 23.9032C186.678 23.9032 185.13 24.1039 183.696 24.5054C182.263 24.8495 181.001 25.3943 179.911 26.1398C178.822 26.828 177.875 27.7168 177.073 28.8065C177.187 25.8817 177.703 23.3871 178.621 21.3226C179.539 19.2581 180.829 17.681 182.492 16.5914C184.155 15.5018 186.076 14.957 188.255 14.957C190.549 14.957 192.7 15.4731 194.707 16.5054C196.714 17.5376 198.435 18.9713 199.868 20.8065L207.61 12.0323C205.202 9.16488 202.363 6.95699 199.094 5.4086C195.825 3.80287 192.298 3 188.513 3C183.524 3 179.223 4.319 175.61 6.95699C172.055 9.53764 169.302 13.3226 167.352 18.3118C165.402 23.3011 164.427 29.3513 164.427 36.4624C164.427 42.5412 165.316 47.7599 167.094 52.1183C168.929 56.4194 171.539 59.7169 174.922 62.0108C178.306 64.3047 182.377 65.4516 187.137 65.4516C191.381 65.4516 195.194 64.5054 198.578 62.6129C202.019 60.6631 204.714 58.0824 206.664 54.871C208.671 51.6595 209.675 48.0466 209.675 44.0323ZM187.137 53.8387C185.474 53.8387 183.926 53.4086 182.492 52.5484C181.058 51.6308 179.883 50.4265 178.965 48.9355C178.105 47.4444 177.675 45.8387 177.675 44.1183C177.675 42.3405 178.105 40.7634 178.965 39.3871C179.825 37.9534 180.972 36.8351 182.406 36.0323C183.84 35.172 185.417 34.7419 187.137 34.7419C188.858 34.7419 190.435 35.172 191.868 36.0323C193.302 36.8351 194.449 37.9534 195.309 39.3871C196.169 40.7634 196.599 42.3118 196.599 44.0323C196.599 45.81 196.141 47.4444 195.223 48.9355C194.363 50.4265 193.216 51.6308 191.782 52.5484C190.406 53.4086 188.858 53.8387 187.137 53.8387Z" stroke="url(#paint3_linear)" stroke-width="4.30107" mask="url(#path-1-outside-1)"/>
<defs>
<linearGradient id="paint0_linear" x1="106.337" y1="3" x2="106.337" y2="65.4516" gradientUnits="userSpaceOnUse">
<stop stop-opacity="0"/>
<stop offset="1" stop-color="#00BDFD"/>
</linearGradient>
<linearGradient id="paint1_linear" x1="106.337" y1="3" x2="106.337" y2="65.4516" gradientUnits="userSpaceOnUse">
<stop stop-opacity="0"/>
<stop offset="1" stop-color="#00BDFD"/>
</linearGradient>
<linearGradient id="paint2_linear" x1="106.337" y1="3" x2="106.337" y2="65.4516" gradientUnits="userSpaceOnUse">
<stop stop-opacity="0"/>
<stop offset="1" stop-color="#00BDFD"/>
</linearGradient>
<linearGradient id="paint3_linear" x1="106.337" y1="3" x2="106.337" y2="65.4516" gradientUnits="userSpaceOnUse">
<stop stop-opacity="0"/>
<stop offset="1" stop-color="#00BDFD"/>
</linearGradient>
</defs>
</svg>
