<svg width="68" height="94" viewBox="0 0 68 94" fill="none" xmlns="http://www.w3.org/2000/svg">
<path d="M58.275 47.5813C56.4758 46.0748 54.4656 44.9365 52.2511 44.1648C54.1613 43.4556 55.9193 42.4663 57.5207 41.1962L57.5284 41.1902L57.5358 41.184C60.0481 39.1049 62.0006 36.5884 63.387 33.6423L63.3871 33.6424L63.3914 33.633C64.7756 30.6049 65.4676 27.4018 65.4676 24.0332C65.4676 19.372 64.1697 15.3113 61.5476 11.8977C59.0223 8.41928 55.4299 5.75263 50.8226 3.87512C46.288 1.99337 41.0173 1.06639 35.0319 1.06639C30.5625 1.06639 26.2554 1.57243 22.1127 2.58696C17.9753 3.6002 14.2439 5.03944 10.9253 6.91096C7.68108 8.70436 5.08516 10.8585 3.16776 13.3859L2.70895 13.9907L3.20745 14.5633L15.7801 29.0031L16.6099 29.9562L17.2771 28.8829C19.1124 25.9304 21.3672 23.725 24.035 22.2341C26.7136 20.7373 29.6267 19.9876 32.7912 19.9876C34.8581 19.9876 36.5465 20.3062 37.8892 20.9029L37.9171 20.9153L37.9457 20.9258C39.3609 21.4472 40.3946 22.2459 41.1016 23.3063L41.1131 23.3236L41.1255 23.3405C41.9006 24.3974 42.3141 25.7297 42.3141 27.3942C42.3141 30.1414 41.1492 32.4039 38.7118 34.2349C36.2673 35.9888 32.8738 36.917 28.4344 36.917H24.3265H23.3929V37.8506V52.166V53.0996H24.3265H28.0609C33.9771 53.0996 38.0971 54.0522 40.5976 55.795L40.5976 55.7951L40.6084 55.8023C43.1454 57.5186 44.4302 60.0341 44.4302 63.4938C44.4302 66.7468 43.3616 69.0524 41.327 70.5826C39.2348 72.0727 35.9426 72.8921 31.2975 72.8921C27.4947 72.8921 24.2223 72.2852 21.4578 71.1004C18.6627 69.9025 16.1892 68.227 14.0323 66.0701L13.2733 65.3111L12.6268 66.168L1.92143 80.3589L1.43806 80.9997L1.99904 81.5737C5.66478 85.3247 10.0131 88.1374 15.0331 90.01C20.1357 91.9654 25.8939 92.9336 32.2933 92.9336C39.2724 92.9336 45.3731 91.8828 50.5727 89.7518C55.7699 87.6218 59.8218 84.5759 62.6784 80.594C65.5417 76.6028 66.9614 71.9268 66.9614 66.6058C66.9614 62.5897 66.1927 58.9659 64.6332 55.7544C63.1643 52.4767 61.0436 49.7476 58.275 47.5813Z" stroke="url(#paint0_linear)" stroke-width="1.86722"/>
<defs>
<linearGradient id="paint0_linear" x1="34.3472" y1="2" x2="34.3472" y2="92" gradientUnits="userSpaceOnUse">
<stop stop-opacity="0"/>
<stop offset="1" stop-color="#00BDFD"/>
</linearGradient>
</defs>
</svg>
