<svg width="196" height="70" viewBox="0 0 196 70" fill="none" xmlns="http://www.w3.org/2000/svg">
<path d="M41.6981 35.9705C40.6933 35.1301 39.5966 34.4509 38.4118 33.9322C39.3938 33.4778 40.3151 32.9104 41.1735 32.2296L41.1823 32.2226L41.1909 32.2155C42.9757 30.7385 44.3642 28.9489 45.3493 26.8557L45.3493 26.8557L45.3543 26.8449C46.3369 24.6955 46.828 22.421 46.828 20.0323C46.828 16.7283 45.9066 13.8293 44.0336 11.3888C42.234 8.91188 39.6831 7.02579 36.4413 5.70447C33.2449 4.37827 29.5448 3.73118 25.3656 3.73118C22.2443 3.73118 19.2335 4.08462 16.3356 4.7943C13.4438 5.5025 10.8283 6.5102 8.49728 7.8246C6.2136 9.08725 4.37077 10.6124 3.00356 12.4146L2.47513 13.1112L3.04926 13.7706L11.7374 23.7491L12.6932 24.8468L13.4616 23.6107C14.6961 21.6247 16.2033 20.1551 17.9762 19.1645C19.7612 18.1669 21.7018 17.6667 23.8172 17.6667C25.2036 17.6667 26.3071 17.8807 27.1654 18.2622L27.1975 18.2764L27.2304 18.2885C28.134 18.6214 28.7702 19.1207 29.2021 19.7685L29.2154 19.7885L29.2297 19.8079C29.7018 20.4518 29.9677 21.2788 29.9677 22.3548C29.9677 24.1044 29.2377 25.5443 27.6539 26.7354C26.0618 27.8761 23.8164 28.5054 20.8065 28.5054H17.9677H16.8925V29.5806V39.4731V40.5484H17.9677H20.5484C24.6095 40.5484 27.3475 41.2058 28.9658 42.3338L28.972 42.338L28.9782 42.3422C30.6003 43.4396 31.4301 45.0369 31.4301 47.3011C31.4301 49.4417 30.7346 50.8931 29.4616 51.8527C28.1222 52.8044 25.9551 53.3656 22.7849 53.3656C20.2021 53.3656 18.0006 52.9533 16.1548 52.1622C14.2737 51.356 12.6101 50.2292 11.1582 48.7773L10.284 47.9031L9.53945 48.8901L2.1416 58.6965L1.58488 59.4345L2.23098 60.0956C4.80907 62.7337 7.86744 64.7116 11.3937 66.0272C14.9765 67.3999 19.0085 68.0753 23.4731 68.0753C28.3379 68.0753 32.6116 67.3429 36.268 65.8444C39.9217 64.347 42.7915 62.1962 44.8199 59.3687C46.856 56.5305 47.8602 53.2095 47.8602 49.4516C47.8602 46.623 47.319 44.0551 46.2111 41.771C45.1692 39.4486 43.6634 37.5097 41.6981 35.9705ZM98.5283 43.1368L98.5311 43.1312C100.564 39.0064 101.567 34.3381 101.567 29.1505C101.567 23.9648 100.564 19.3238 98.53 15.2538C96.5046 11.1442 93.7179 7.89737 90.1646 5.54722C86.5947 3.12853 82.5418 1.92473 78.0397 1.92473C73.5902 1.92473 69.5398 3.13095 65.9178 5.54517C62.3632 7.89538 59.5755 11.1427 57.5495 15.2533C55.5151 19.3234 54.5128 23.9646 54.5128 29.1505C54.5128 34.3381 55.5157 39.0064 57.5482 43.1312L57.551 43.1368C59.5786 47.192 62.3673 50.4089 65.9198 52.7572L65.9198 52.7572L65.9268 52.7618C69.5482 55.1157 73.5954 56.2903 78.0397 56.2903C82.5382 56.2903 86.5892 55.1172 90.1595 52.7572C93.712 50.4089 96.5007 47.192 98.5283 43.1368ZM81.7034 18.1612L81.7122 18.1692L81.7212 18.177C82.8771 19.1821 83.8187 20.5951 84.5155 22.4712C85.2067 24.332 85.5665 26.5513 85.5665 29.1505C85.5665 31.7498 85.2067 33.969 84.5155 35.8299C83.8192 37.7046 82.8784 39.1169 81.7237 40.1219C80.6569 41.0431 79.4439 41.4946 78.0397 41.4946C76.5722 41.4946 75.2983 41.0388 74.1758 40.1151C73.0272 39.1128 72.0907 37.7067 71.3964 35.8425C70.7584 33.9759 70.4268 31.7517 70.4268 29.1505C70.4268 26.5494 70.7585 24.3251 71.3964 22.4585C72.0928 20.5888 73.0328 19.1799 74.1861 18.177C75.3128 17.1972 76.5831 16.7204 78.0397 16.7204C79.4279 16.7204 80.6342 17.1892 81.7034 18.1612ZM153.088 43.1368L153.091 43.1312C155.123 39.0064 156.126 34.3381 156.126 29.1505C156.126 23.9645 155.124 19.3232 153.089 15.253C151.064 11.1438 148.277 7.89719 144.724 5.54719C141.154 3.12852 137.102 1.92473 132.599 1.92473C128.15 1.92473 124.1 3.13086 120.478 5.54488C116.923 7.89521 114.135 11.1428 112.109 15.2538C110.075 19.3238 109.073 23.9648 109.073 29.1505C109.073 34.3381 110.076 39.0064 112.108 43.1312L112.111 43.1368C114.138 47.192 116.927 50.4089 120.48 52.7572L120.487 52.7618C124.108 55.1157 128.155 56.2903 132.599 56.2903C137.098 56.2903 141.149 55.1172 144.719 52.7572C148.272 50.4089 151.06 47.192 153.088 43.1368ZM136.263 18.1612L136.272 18.1692L136.281 18.177C137.437 19.1821 138.379 20.5951 139.075 22.4712C139.767 24.332 140.126 26.5513 140.126 29.1505C140.126 31.7498 139.767 33.969 139.075 35.8299C138.379 37.7052 137.438 39.1178 136.282 40.1229C135.216 41.0434 134.003 41.4946 132.599 41.4946C131.132 41.4946 129.858 41.0388 128.736 40.1151C127.587 39.1128 126.65 37.7067 125.956 35.8425C125.318 33.9759 124.987 31.7517 124.987 29.1505C124.987 26.5494 125.318 24.3251 125.956 22.4585C126.653 20.5888 127.593 19.1799 128.746 18.177C129.873 17.1972 131.143 16.7204 132.599 16.7204C133.988 16.7204 135.194 17.1892 136.263 18.1612ZM194.428 18.3118V17.2366H193.353H186.256V9.36559V8.29032H185.181H172.794H171.718V9.36559V17.2366H164.708H163.632V18.3118V29.3226V30.3979H164.708H171.718V38.2688V39.3441H172.794H185.181H186.256V38.2688V30.3979H193.353H194.428V29.3226V18.3118Z" stroke="url(#paint0_linear)" stroke-width="2.15054"/>
<defs>
<linearGradient id="paint0_linear" x1="98.1764" y1="3" x2="98.1764" y2="67" gradientUnits="userSpaceOnUse">
<stop stop-opacity="0"/>
<stop offset="1" stop-color="#00BDFD"/>
</linearGradient>
</defs>
</svg>
