<svg width="49" height="68" viewBox="0 0 49 68" fill="none" xmlns="http://www.w3.org/2000/svg">
<path d="M21.3642 23.9828L22.5788 16.6344H42.0538H43.129V15.5591V3V1.92473H42.0538H11.6882H10.7998L10.6322 2.79712L3.49243 39.9584L3.24686 41.2366H4.54839H16.5054H17.119L17.4311 40.7083C18.0714 39.6248 18.9513 38.7907 20.0913 38.1942C21.3149 37.5839 22.6098 37.2796 23.9893 37.2796C25.4377 37.2796 26.6531 37.5886 27.6708 38.1702L27.6879 38.1799L27.7054 38.1891C28.7103 38.7155 29.5066 39.504 30.099 40.5902C30.6913 41.676 31 42.929 31 44.3763C31 45.9381 30.663 47.2333 30.0313 48.3024C29.3878 49.3913 28.5 50.2601 27.3469 50.9152C26.2118 51.5037 24.8456 51.8172 23.2151 51.8172C21.1126 51.8172 19.0194 51.2944 16.9248 50.2228C14.8814 49.091 13.0709 47.5526 11.4933 45.5943L10.7008 44.6105L9.85627 45.5499L2.20036 54.0661L1.66921 54.6569L2.07796 55.3382C4.08307 58.68 6.96495 61.2802 10.6851 63.1415C14.4068 65.0611 18.5623 66.0108 23.129 66.0108C27.7993 66.0108 31.9573 65.0942 35.5732 63.2274C39.1791 61.4231 42.0235 58.856 44.0807 55.5321C46.2096 52.2431 47.2581 48.4251 47.2581 44.1183C47.2581 40.1097 46.3588 36.5082 44.5335 33.3444C42.7139 30.1903 40.1898 27.7278 36.9785 25.9707C33.7595 24.2094 30.0792 23.3441 25.9677 23.3441C24.2524 23.3441 22.7838 23.519 21.6032 23.9093C21.5228 23.933 21.4431 23.9575 21.3642 23.9828Z" stroke="url(#paint0_linear)" stroke-width="2.15054"/>
<defs>
<linearGradient id="paint0_linear" x1="24.5914" y1="3" x2="24.5914" y2="64.9355" gradientUnits="userSpaceOnUse">
<stop stop-opacity="0"/>
<stop offset="1" stop-color="#00BDFD"/>
</linearGradient>
</defs>
</svg>
