<svg width="84" height="84" viewBox="0 0 84 84" fill="none" xmlns="http://www.w3.org/2000/svg">
<path d="M30.0001 42C30.0001 38.0444 31.173 34.1776 33.3707 30.8886C35.5683 27.5996 38.6919 25.0362 42.3464 23.5224C46.0009 22.0087 50.0222 21.6126 53.9019 22.3843C57.7815 23.156 61.3451 25.0608 64.1422 27.8579C66.9392 30.6549 68.8441 34.2186 69.6158 38.0982C70.3875 41.9778 69.9914 45.9992 68.4776 49.6537C66.9639 53.3082 64.4004 56.4318 61.1115 58.6294C57.8225 60.827 53.9557 62 50.0001 62H28.0001C26.0146 61.9981 24.0524 61.5739 22.2434 60.7556C20.4345 59.9373 18.8203 58.7436 17.508 57.2537C16.1957 55.7639 15.2153 54.0119 14.6318 52.1142C14.0484 50.2164 13.8752 48.2163 14.1239 46.2465C14.3726 44.2767 15.0374 42.3824 16.0742 40.6892C17.1109 38.996 18.496 37.5427 20.1374 36.4257C21.7788 35.3087 23.639 34.5537 25.5946 34.2106C27.5501 33.8675 29.5563 33.9443 31.4799 34.4359" stroke="white" stroke-width="4" stroke-linecap="round" stroke-linejoin="round"/>
<path d="M58 39L46 51L40 45" stroke="white" stroke-width="4" stroke-linecap="round" stroke-linejoin="round"/>
<rect x="1" y="1" width="82" height="82" rx="22" stroke="url(#paint0_linear)" stroke-width="2"/>
<defs>
<linearGradient id="paint0_linear" x1="42" y1="0" x2="42" y2="84" gradientUnits="userSpaceOnUse">
<stop stop-opacity="0"/>
<stop offset="1" stop-color="#00BDFD"/>
</linearGradient>
</defs>
</svg>
