<svg width="85" height="84" viewBox="0 0 85 84" fill="none" xmlns="http://www.w3.org/2000/svg">
<path d="M26.3336 64.0001C26.0709 64.0001 25.8109 63.9483 25.5682 63.8478C25.3256 63.7473 25.1051 63.6 24.9194 63.4143C24.7336 63.2285 24.5863 63.0081 24.4858 62.7654C24.3853 62.5228 24.3336 62.2627 24.3336 62L24.3337 51.3264C23.2668 51.8317 22.0894 52.059 20.911 51.9871C19.7326 51.9151 18.5916 51.5464 17.594 50.915C16.5964 50.2837 15.7748 49.4103 15.2054 48.3762C14.636 47.342 14.3374 46.1806 14.3374 45.0001C14.3374 43.8195 14.636 42.6581 15.2054 41.6239C15.7748 40.5898 16.5964 39.7164 17.594 39.0851C18.5916 38.4537 19.7326 38.085 20.911 38.0131C22.0894 37.9411 23.2668 38.1684 24.3337 38.6738L24.3336 28.0001C24.3336 27.7374 24.3853 27.4774 24.4858 27.2347C24.5863 26.992 24.7337 26.7716 24.9194 26.5858C25.1051 26.4001 25.3256 26.2528 25.5682 26.1523C25.8109 26.0518 26.071 26.0001 26.3336 26.0001L38.0073 26.0002C37.5019 24.9333 37.2746 23.7558 37.3466 22.5775C37.4185 21.3991 37.7872 20.2581 38.4186 19.2605C39.0499 18.2629 39.9233 17.4413 40.9574 16.8719C41.9916 16.3025 43.153 16.0039 44.3335 16.0039C45.5141 16.0039 46.6755 16.3025 47.7097 16.8719C48.7438 17.4413 49.6172 18.2629 50.2485 19.2605C50.8798 20.2581 51.2486 21.3991 51.3205 22.5775C51.3924 23.7558 51.1652 24.9333 50.6598 26.0002L62.3335 26.0001C62.8639 26.0001 63.3726 26.2108 63.7477 26.5858C64.1228 26.9609 64.3335 27.4696 64.3335 28L64.3336 38.6738C63.2667 38.1684 62.0893 37.9411 60.9109 38.0131C59.7325 38.085 58.5915 38.4537 57.5939 39.0851C56.5964 39.7164 55.7747 40.5898 55.2053 41.6239C54.6359 42.6581 54.3373 43.8195 54.3373 45.0001C54.3373 46.1806 54.6359 47.342 55.2053 48.3762C55.7747 49.4103 56.5964 50.2837 57.5939 50.915C58.5915 51.5464 59.7325 51.9151 60.9109 51.9871C62.0893 52.059 63.2667 51.8317 64.3336 51.3264L64.3335 62.0001C64.3335 62.5305 64.1228 63.0392 63.7477 63.4143C63.3726 63.7893 62.8639 64.0001 62.3335 64.0001L26.3336 64.0001Z" stroke="white" stroke-width="4" stroke-linecap="round" stroke-linejoin="round"/>
<rect x="1.3335" y="1" width="82" height="82" rx="22" stroke="url(#paint0_linear)" stroke-width="2"/>
<defs>
<linearGradient id="paint0_linear" x1="42.3335" y1="0" x2="42.3335" y2="84" gradientUnits="userSpaceOnUse">
<stop stop-opacity="0"/>
<stop offset="1" stop-color="#00BDFD"/>
</linearGradient>
</defs>
</svg>
