<svg width="625" height="216" viewBox="0 0 625 216" fill="none" xmlns="http://www.w3.org/2000/svg">
<rect width="625" height="214.849" transform="translate(0 0.575562)" fill="url(#paint0_radial)"/>
<g clip-path="url(#clip0)">
<path d="M115.91 77.6073C113.213 77.5741 110.546 78.1874 108.134 79.3958C105.723 80.6042 103.635 82.3726 102.047 84.553C98.3471 89.115 96.3737 94.8349 96.4738 100.707C96.2877 104.484 97.5369 108.192 99.9708 111.087C101.123 112.396 102.554 113.428 104.159 114.109C105.765 114.79 107.502 115.101 109.244 115.02C111.817 115.018 114.356 114.426 116.664 113.29C118.973 112.153 120.99 110.503 122.561 108.465C126.509 103.729 128.64 97.7414 128.571 91.5766C128.729 87.9626 127.692 84.3973 125.621 81.4313C123.544 78.9184 120.266 77.6073 115.91 77.6073ZM116.129 105.327C115.259 106.216 114.222 106.924 113.079 107.411C111.935 107.899 110.706 108.156 109.463 108.168C108.63 108.214 107.798 108.059 107.038 107.717C106.277 107.375 105.61 106.855 105.091 106.202C103.947 104.626 103.394 102.697 103.53 100.754C103.377 96.6 104.565 92.5067 106.918 89.0793C107.837 87.6269 109.114 86.434 110.625 85.6144C112.136 84.7947 113.832 84.3756 115.551 84.3969C119.464 84.3969 121.426 86.7953 121.437 91.5923C121.503 96.6834 119.602 101.604 116.129 105.327ZM327.447 94.8544C326.648 94.5785 325.774 94.617 325.003 94.962C324.232 95.307 323.621 95.9326 323.294 96.7117C320.25 104.36 316.534 108.168 311.944 108.168C309.54 108.168 308.338 106.092 308.338 102.175C308.636 97.7292 309.283 93.3141 310.274 88.9701L311.257 84.3813H320.624C321.404 84.3885 322.161 84.1174 322.759 83.6168C323.357 83.1161 323.757 82.4188 323.887 81.6498C323.986 81.1636 323.976 80.6616 323.859 80.1795C323.741 79.6975 323.518 79.2474 323.207 78.8613C322.895 78.4751 322.502 78.1625 322.056 77.9458C321.609 77.729 321.121 77.6135 320.624 77.6073H312.819L314.38 69.9749C314.488 69.4661 314.482 68.9396 314.363 68.4332C314.244 67.9269 314.015 67.4531 313.691 67.0458C313.367 66.6386 312.957 66.308 312.491 66.0777C312.024 65.8475 311.512 65.7232 310.992 65.7139C310.197 65.7019 309.423 65.9686 308.804 66.4675C308.186 66.9664 307.761 67.6661 307.604 68.4453L305.59 77.4981H283.734C281.022 77.4736 278.344 78.1018 275.926 79.3297C273.507 80.5575 271.42 82.349 269.84 84.553C266.14 89.115 264.167 94.8349 264.267 100.707C264.266 102.284 264.45 103.856 264.813 105.39C264.108 106.215 263.238 106.884 262.26 107.355C261.281 107.825 260.216 108.086 259.131 108.121C258.58 108.174 258.026 108.092 257.514 107.883C257.003 107.674 256.55 107.343 256.196 106.919C255.522 105.729 255.218 104.365 255.321 103.002C255.467 99.0641 255.99 95.1494 256.882 91.3113L262.549 64.9023C262.652 64.4585 262.666 63.9989 262.591 63.5497C262.516 63.1005 262.353 62.6705 262.111 62.2843C261.87 61.898 261.555 61.5631 261.184 61.2986C260.813 61.0341 260.394 60.8452 259.95 60.7427C259.506 60.6402 259.047 60.6261 258.597 60.7013C258.148 60.7764 257.718 60.9393 257.332 61.1806C256.945 61.4219 256.61 61.7369 256.346 62.1077C256.081 62.4785 255.892 62.8977 255.79 63.3414L252.511 79.4647C250.201 78.0828 247.554 77.3645 244.862 77.3888C242.156 77.3491 239.476 77.9175 237.02 79.0522C234.564 80.1868 232.394 81.8587 230.671 83.9442C226.838 88.6083 224.825 94.5023 225.004 100.536C224.966 102.452 225.224 104.363 225.769 106.202C224.431 107.362 222.73 108.018 220.96 108.059C220.383 108.111 219.801 108.029 219.259 107.821C218.718 107.612 218.232 107.283 217.838 106.857C217.07 105.703 216.723 104.319 216.854 102.939C216.971 100.309 217.337 97.6963 217.947 95.1353C218.043 94.6483 218.037 94.1466 217.929 93.6621C217.821 93.1775 217.614 92.7206 217.321 92.3202C217.027 91.9198 216.654 91.5845 216.224 91.3356C215.795 91.0868 215.318 90.9297 214.825 90.8743C213.978 90.7658 213.122 90.9734 212.419 91.4572C211.716 91.9411 211.216 92.6672 211.016 93.4964C210.102 97.2355 208.469 100.761 206.207 103.876C205.417 105.094 204.354 106.112 203.102 106.849C201.85 107.586 200.444 108.021 198.995 108.121C198.242 108.106 197.506 107.898 196.858 107.515C196.21 107.132 195.671 106.588 195.295 105.936C194.285 104.183 193.788 102.183 193.859 100.161C193.657 96.0713 194.845 92.0334 197.231 88.7047C198.23 87.2601 199.571 86.0851 201.134 85.2845C202.698 84.4838 204.435 84.0824 206.192 84.1159C207.995 84.1295 209.778 84.5009 211.437 85.2085C211.931 85.45 212.48 85.557 213.028 85.5187C213.576 85.4803 214.104 85.2979 214.56 84.99C215.096 84.6696 215.533 84.2064 215.822 83.652C216.111 83.0977 216.24 82.474 216.194 81.8507C216.149 81.2273 215.931 80.6288 215.565 80.1221C215.199 79.6153 214.7 79.2202 214.122 78.9808C213.248 78.6013 212.338 78.3085 211.406 78.1068C209.732 77.6391 208.007 77.3822 206.27 77.342C203.589 77.3309 200.939 77.9129 198.51 79.0463C196.081 80.1796 193.933 81.8363 192.219 83.8974C190.149 86.224 188.619 88.9797 187.739 91.9668C184.351 102.721 179.996 107.965 174.75 107.965C174.001 108.025 173.248 107.896 172.561 107.591C171.874 107.285 171.274 106.813 170.816 106.217C169.949 104.977 169.526 103.482 169.614 101.972C169.587 101.495 169.623 101.018 169.723 100.551C172.884 99.3196 175.645 97.2404 177.701 94.5422C179.698 91.9859 180.795 88.8422 180.823 85.5987C180.823 80.1358 177.888 77.4044 171.878 77.4044C169.811 77.3945 167.763 77.7951 165.852 78.5828C163.941 79.3705 162.206 80.5298 160.747 81.9932L164.462 64.8242C164.567 64.3216 164.558 63.8019 164.436 63.3032C164.314 62.8044 164.082 62.3392 163.758 61.9414C163.433 61.5436 163.024 61.2232 162.559 61.0037C162.095 60.7841 161.588 60.671 161.074 60.6724C160.28 60.6605 159.506 60.9271 158.887 61.426C158.268 61.925 157.843 62.6247 157.687 63.4039L147.539 110.775C147.432 111.276 147.438 111.796 147.558 112.295C147.678 112.793 147.908 113.259 148.232 113.657C148.555 114.056 148.964 114.376 149.427 114.596C149.891 114.816 150.398 114.928 150.911 114.926C151.695 114.902 152.447 114.607 153.038 114.092C153.63 113.578 154.026 112.874 154.158 112.101L157.281 97.5858C157.818 95.659 158.55 93.7919 159.466 92.0137C160.616 89.9704 162.179 88.1895 164.056 86.7849C165.959 85.1318 168.404 84.2372 170.925 84.272C171.282 84.2195 171.646 84.2511 171.988 84.3642C172.33 84.4774 172.641 84.6691 172.896 84.9239C173.151 85.1787 173.343 85.4896 173.456 85.8317C173.569 86.1738 173.601 86.5377 173.548 86.8942C173.46 88.0386 173.12 89.1495 172.554 90.1477C171.987 91.1459 171.207 92.0069 170.27 92.6692C168.284 94.4586 165.822 95.6349 163.182 96.0562C162.963 98.1321 162.854 99.6617 162.854 100.536C162.686 104.291 163.756 107.998 165.898 111.087C166.934 112.388 168.272 113.416 169.795 114.083C171.319 114.749 172.982 115.034 174.641 114.911C176.941 114.89 179.206 114.348 181.266 113.326C183.327 112.304 185.129 110.829 186.537 109.011L187.848 107.45C188.342 108.722 189.044 109.904 189.925 110.946C190.974 112.235 192.308 113.261 193.823 113.944C195.338 114.627 196.991 114.947 198.651 114.88C203.335 114.88 207.285 112.695 210.563 108.106C211.968 112.695 215.246 114.88 220.71 114.88C223.779 114.841 226.741 113.744 229.094 111.774C231.203 113.751 234.01 114.811 236.9 114.724C241.583 114.724 245.517 112.538 248.796 107.95C250.216 112.538 253.479 114.724 258.943 114.724C262.411 114.758 265.761 113.469 268.31 111.118C269.446 112.307 270.82 113.243 272.343 113.865C273.866 114.486 275.502 114.779 277.146 114.724C279.72 114.724 282.259 114.133 284.568 112.996C286.877 111.86 288.894 110.208 290.463 108.168C294.394 103.453 296.523 97.4962 296.473 91.3581C296.521 88.8607 296.075 86.3785 295.162 84.0535H304.232L303.358 87.9868C302.243 92.5375 301.512 97.1738 301.172 101.847C301.172 110.353 304.669 114.724 311.538 114.724C319.344 114.724 325.183 109.479 329.336 99.1154C329.517 98.7145 329.612 98.2798 329.614 97.8396C329.616 97.3995 329.525 96.964 329.346 96.5616C329.168 96.1592 328.906 95.7991 328.579 95.5048C328.252 95.2106 327.866 94.9889 327.447 94.8544ZM250.045 90.7026C248.842 96.7117 246.922 101.082 244.69 103.923C242.457 106.763 239.897 108.168 237.274 108.168C236.52 108.153 235.781 107.944 235.131 107.561C234.48 107.179 233.939 106.635 233.559 105.983C232.574 104.26 232.083 102.3 232.138 100.317C231.935 96.2248 233.129 92.1848 235.526 88.8608C236.325 87.6328 237.382 86.5931 238.623 85.8136C239.864 85.0342 241.26 84.5336 242.713 84.3466C244.167 84.1595 245.644 84.2905 247.042 84.7304C248.439 85.1702 249.725 85.9086 250.81 86.8942L250.045 90.7026ZM288.043 98.8969C286.986 101.152 285.665 103.274 284.109 105.218C283.251 106.13 282.22 106.861 281.075 107.368C279.93 107.875 278.695 108.147 277.443 108.168C276.612 108.214 275.783 108.059 275.025 107.717C274.267 107.374 273.602 106.855 273.087 106.202C271.943 104.626 271.39 102.697 271.526 100.754C271.375 96.6025 272.557 92.5114 274.898 89.0793C275.827 87.6361 277.106 86.4505 278.615 85.632C280.124 84.8136 281.815 84.3888 283.531 84.3969C287.465 84.3969 289.432 86.7953 289.432 91.5923C289.357 94.0922 288.861 96.5617 287.965 98.8969H288.043ZM145.494 60.6881C144.699 60.6761 143.925 60.9427 143.306 61.4416C142.688 61.9406 142.263 62.6403 142.106 63.4195L131.959 110.79C131.852 111.292 131.858 111.811 131.978 112.31C132.098 112.809 132.328 113.275 132.651 113.673C132.975 114.071 133.383 114.392 133.847 114.612C134.311 114.831 134.818 114.944 135.331 114.942C136.126 114.954 136.9 114.687 137.519 114.189C138.137 113.69 138.562 112.99 138.719 112.211L148.882 64.8398C148.978 64.3382 148.962 63.8216 148.837 63.3265C148.712 62.8313 148.479 62.3697 148.157 61.9739C147.834 61.5782 147.428 61.2579 146.968 61.0358C146.508 60.8136 146.005 60.6949 145.494 60.6881ZM72.8848 50.215C66.2925 50.2396 59.9773 52.8688 55.3158 57.5292C50.6544 62.1897 48.0247 68.5036 48 75.0944C47.9997 77.8424 48.4425 80.5724 49.3114 83.1794C49.6233 84.0327 50.2499 84.7343 51.0626 85.1406C51.8753 85.5469 52.8127 85.627 53.6826 85.3646C54.5269 85.0438 55.2168 84.4128 55.6114 83.6006C56.006 82.7883 56.0756 81.8561 55.8058 80.9943C55.0666 78.9669 54.7376 76.8129 54.8379 74.6574C54.9411 71.1777 56.0542 67.8032 58.0416 64.9447C60.029 62.0863 62.8049 59.8673 66.0312 58.558C69.2575 57.2488 72.795 56.9058 76.2128 57.5708C79.6306 58.2358 82.7812 59.8801 85.281 62.3034C87.7807 64.7268 89.5217 67.8246 90.2919 71.2196C91.062 74.6146 90.8281 78.1602 89.6186 81.4246C88.4091 84.689 86.2762 87.5314 83.4797 89.6054C80.6833 91.6795 77.3439 92.8958 73.8683 93.1062C73.8683 93.1062 70.387 93.3248 68.6385 93.5433C67.9973 93.6337 67.3615 93.7588 66.7339 93.9179C66.6888 93.9517 66.633 93.9681 66.5767 93.9641C66.5205 93.9601 66.4676 93.936 66.4278 93.8961C66.3879 93.8563 66.3638 93.8034 66.3598 93.7472C66.3558 93.691 66.3722 93.6352 66.406 93.5901L66.9524 90.6402L70.2308 75.7968C70.4192 74.913 70.2487 73.9906 69.7569 73.2324C69.265 72.4743 68.4921 71.9426 67.6081 71.7543C66.7241 71.5659 65.8015 71.7364 65.0432 72.2281C64.2849 72.7199 63.7531 73.4926 63.5647 74.3764C63.5647 74.3764 55.7589 110.619 55.7589 110.946C55.6514 111.384 55.6344 111.838 55.7087 112.282C55.7831 112.727 55.9473 113.151 56.1914 113.529C56.4355 113.908 56.7542 114.232 57.1281 114.483C57.5021 114.734 57.9233 114.906 58.3661 114.989C58.8044 115.094 59.2596 115.109 59.7038 115.032C60.1481 114.956 60.5722 114.79 60.9504 114.545C61.3286 114.3 61.6529 113.98 61.9037 113.606C62.1546 113.231 62.3266 112.81 62.4095 112.367C62.5187 111.93 63.5023 107.122 63.5023 107.122C63.8645 105.353 64.7606 103.737 66.0698 102.492C67.3789 101.248 69.0382 100.434 70.8241 100.161C71.5734 100.052 74.7426 99.8334 74.7426 99.8334C81.0757 99.2482 86.9439 96.2593 91.1406 91.4813C95.3373 86.7033 97.5435 80.4993 97.3056 74.145C97.0677 67.7907 94.4037 61.769 89.8615 57.318C85.3193 52.8671 79.244 50.3252 72.8848 50.215Z" fill="white"/>
<path d="M334.691 107.513C334.152 107.404 333.598 107.402 333.059 107.508C332.52 107.614 332.007 107.825 331.55 108.129C331.093 108.434 330.701 108.826 330.396 109.283C330.091 109.739 329.879 110.252 329.773 110.79C329.657 111.329 329.651 111.885 329.754 112.427C329.857 112.968 330.068 113.483 330.373 113.941C330.679 114.399 331.073 114.792 331.533 115.095C331.993 115.399 332.51 115.607 333.051 115.707C333.59 115.829 334.147 115.841 334.69 115.74C335.233 115.64 335.749 115.43 336.208 115.123C336.667 114.816 337.058 114.419 337.359 113.956C337.659 113.493 337.861 112.973 337.953 112.429C338.137 111.348 337.902 110.238 337.296 109.325C336.69 108.411 335.758 107.763 334.691 107.513Z" fill="#E6007A"/>
</g>
<path d="M49.4382 160.424H51.4134V155.822H54.098C57.1342 155.822 58.6364 153.988 58.6364 151.571C58.6364 149.162 57.147 147.334 54.1044 147.334H49.4382V160.424ZM51.4134 154.147V149.027H53.8935C55.8494 149.027 56.6484 150.089 56.6484 151.571C56.6484 153.054 55.8494 154.147 53.919 154.147H51.4134ZM65.1711 160.623C67.9388 160.623 69.7478 158.596 69.7478 155.56C69.7478 152.505 67.9388 150.478 65.1711 150.478C62.4033 150.478 60.5944 152.505 60.5944 155.56C60.5944 158.596 62.4033 160.623 65.1711 160.623ZM65.1775 159.018C63.3685 159.018 62.5248 157.439 62.5248 155.554C62.5248 153.674 63.3685 152.076 65.1775 152.076C66.9736 152.076 67.8174 153.674 67.8174 155.554C67.8174 157.439 66.9736 159.018 65.1775 159.018ZM74.0709 160.424H76.014L78.0084 153.336H78.1554L80.1497 160.424H82.0993L84.9821 150.606H83.0069L81.0957 157.785H80.9998L79.0822 150.606H77.1071L75.1767 157.816H75.0808L73.1568 150.606H71.1816L74.0709 160.424ZM91.0885 160.623C93.2299 160.623 94.7448 159.568 95.1794 157.97L93.3705 157.644C93.0253 158.571 92.1943 159.044 91.1077 159.044C89.4713 159.044 88.3719 157.983 88.3208 156.091H95.3009V155.413C95.3009 151.865 93.1787 150.478 90.9543 150.478C88.2185 150.478 86.4159 152.562 86.4159 155.579C86.4159 158.628 88.1929 160.623 91.0885 160.623ZM88.3272 154.659C88.4039 153.265 89.4138 152.057 90.9671 152.057C92.45 152.057 93.4216 153.157 93.428 154.659H88.3272ZM97.7814 160.424H99.6927V154.429C99.6927 153.144 100.683 152.217 102.039 152.217C102.435 152.217 102.882 152.287 103.036 152.332V150.504C102.844 150.478 102.467 150.459 102.224 150.459C101.073 150.459 100.089 151.111 99.731 152.166H99.6287V150.606H97.7814V160.424ZM110.302 150.606H108.187V149.724C108.187 148.855 108.544 148.382 109.478 148.382C109.874 148.382 110.155 148.471 110.334 148.529L110.782 146.982C110.513 146.88 109.957 146.72 109.184 146.72C107.63 146.72 106.269 147.628 106.269 149.468V150.606H104.754V152.14H106.269V160.424H108.187V152.14H110.302V150.606ZM118.854 156.353C118.86 158.021 117.62 158.814 116.546 158.814C115.364 158.814 114.545 157.957 114.545 156.621V150.606H112.634V156.851C112.634 159.287 113.97 160.552 115.856 160.552C117.332 160.552 118.336 159.772 118.79 158.724H118.892V160.424H120.771V150.606H118.854V156.353ZM125.611 147.334H123.699V160.424H125.611V147.334ZM136.523 160.642C138.146 160.642 139.06 159.817 139.425 159.082H139.501V160.424H141.368V153.905C141.368 151.047 139.118 150.478 137.558 150.478C135.781 150.478 134.145 151.194 133.506 152.984L135.302 153.393C135.583 152.696 136.299 152.025 137.584 152.025C138.817 152.025 139.45 152.671 139.45 153.783V153.828C139.45 154.525 138.734 154.512 136.97 154.716C135.11 154.934 133.205 155.419 133.205 157.65C133.205 159.581 134.656 160.642 136.523 160.642ZM136.938 159.108C135.858 159.108 135.078 158.622 135.078 157.676C135.078 156.653 135.986 156.289 137.092 156.142C137.712 156.059 139.182 155.892 139.457 155.618V156.883C139.457 158.047 138.53 159.108 136.938 159.108ZM146.185 154.595C146.185 153.029 147.144 152.134 148.473 152.134C149.771 152.134 150.557 152.984 150.557 154.41V160.424H152.468V154.179C152.468 151.75 151.132 150.478 149.125 150.478C147.648 150.478 146.683 151.162 146.229 152.204H146.108V150.606H144.273V160.424H146.185V154.595ZM159.067 160.616C160.856 160.616 161.56 159.523 161.905 158.897H162.065V160.424H163.931V147.334H162.02V152.198H161.905C161.56 151.591 160.908 150.478 159.079 150.478C156.708 150.478 154.963 152.351 154.963 155.535C154.963 158.711 156.682 160.616 159.067 160.616ZM159.489 158.986C157.782 158.986 156.893 157.484 156.893 155.515C156.893 153.566 157.763 152.102 159.489 152.102C161.157 152.102 162.052 153.464 162.052 155.515C162.052 157.58 161.138 158.986 159.489 158.986ZM176.815 150.606H174.699V149.724C174.699 148.855 175.057 148.382 175.991 148.382C176.387 148.382 176.668 148.471 176.847 148.529L177.295 146.982C177.026 146.88 176.47 146.72 175.697 146.72C174.143 146.72 172.782 147.628 172.782 149.468V150.606H171.267V152.14H172.782V160.424H174.699V152.14H176.815V150.606ZM181.058 147.334H179.147V160.424H181.058V147.334ZM188.221 160.623C190.362 160.623 191.877 159.568 192.312 157.97L190.503 157.644C190.158 158.571 189.327 159.044 188.24 159.044C186.604 159.044 185.504 157.983 185.453 156.091H192.433V155.413C192.433 151.865 190.311 150.478 188.087 150.478C185.351 150.478 183.548 152.562 183.548 155.579C183.548 158.628 185.325 160.623 188.221 160.623ZM185.46 154.659C185.536 153.265 186.546 152.057 188.1 152.057C189.583 152.057 190.554 153.157 190.561 154.659H185.46ZM196.194 150.606H194.097L197.114 155.515L194.059 160.424H196.156L198.361 156.755L200.572 160.424H202.663L199.575 155.515L202.637 150.606H200.547L198.361 154.429L196.194 150.606ZM204.959 160.424H206.871V150.606H204.959V160.424ZM205.925 149.091C206.583 149.091 207.133 148.58 207.133 147.954C207.133 147.327 206.583 146.809 205.925 146.809C205.26 146.809 204.717 147.327 204.717 147.954C204.717 148.58 205.26 149.091 205.925 149.091ZM209.955 160.424H211.822V158.897H211.982C212.327 159.523 213.03 160.616 214.82 160.616C217.198 160.616 218.923 158.711 218.923 155.535C218.923 152.351 217.172 150.478 214.8 150.478C212.979 150.478 212.32 151.591 211.982 152.198H211.867V147.334H209.955V160.424ZM211.828 155.515C211.828 153.464 212.723 152.102 214.391 152.102C216.124 152.102 216.993 153.566 216.993 155.515C216.993 157.484 216.098 158.986 214.391 158.986C212.749 158.986 211.828 157.58 211.828 155.515ZM223.341 147.334H221.429V160.424H223.341V147.334ZM230.503 160.623C232.645 160.623 234.16 159.568 234.594 157.97L232.785 157.644C232.44 158.571 231.609 159.044 230.523 159.044C228.886 159.044 227.787 157.983 227.736 156.091H234.716V155.413C234.716 151.865 232.594 150.478 230.369 150.478C227.633 150.478 225.831 152.562 225.831 155.579C225.831 158.628 227.608 160.623 230.503 160.623ZM227.742 154.659C227.819 153.265 228.829 152.057 230.382 152.057C231.865 152.057 232.837 153.157 232.843 154.659H227.742ZM246.852 160.603C249.524 160.603 251.486 159.005 251.48 156.832C251.486 155.177 250.483 153.988 248.744 153.719V153.617C250.112 153.265 251 152.191 250.994 150.721C251 148.797 249.422 147.155 246.903 147.155C244.5 147.155 242.569 148.606 242.505 150.734H244.417C244.461 149.532 245.593 148.804 246.878 148.804C248.213 148.804 249.089 149.615 249.083 150.824C249.089 152.089 248.073 152.92 246.622 152.92H245.516V154.531H246.622C248.437 154.531 249.486 155.451 249.486 156.768C249.486 158.04 248.38 158.903 246.839 158.903C245.42 158.903 244.314 158.174 244.238 157.011H242.231C242.314 159.146 244.206 160.603 246.852 160.603ZM254.282 160.424H256.193V154.429C256.193 153.144 257.184 152.217 258.539 152.217C258.935 152.217 259.382 152.287 259.536 152.332V150.504C259.344 150.478 258.967 150.459 258.724 150.459C257.574 150.459 256.589 151.111 256.231 152.166H256.129V150.606H254.282V160.424ZM264.874 160.616C266.663 160.616 267.367 159.523 267.712 158.897H267.872V160.424H269.738V147.334H267.827V152.198H267.712C267.367 151.591 266.715 150.478 264.886 150.478C262.515 150.478 260.77 152.351 260.77 155.535C260.77 158.711 262.489 160.616 264.874 160.616ZM265.296 158.986C263.589 158.986 262.7 157.484 262.7 155.515C262.7 153.566 263.57 152.102 265.296 152.102C266.964 152.102 267.859 153.464 267.859 155.515C267.859 157.58 266.945 158.986 265.296 158.986ZM282.066 164.311C284.565 164.311 286.496 163.167 286.496 160.642V150.606H284.623V152.198H284.482C284.143 151.591 283.466 150.478 281.638 150.478C279.266 150.478 277.521 152.351 277.521 155.477C277.521 158.609 279.305 160.277 281.625 160.277C283.427 160.277 284.124 159.261 284.469 158.635H284.591V160.565C284.591 162.106 283.536 162.77 282.085 162.77C280.494 162.77 279.873 161.971 279.535 161.409L277.892 162.086C278.41 163.288 279.72 164.311 282.066 164.311ZM282.047 158.692C280.34 158.692 279.452 157.382 279.452 155.451C279.452 153.566 280.321 152.102 282.047 152.102C283.715 152.102 284.61 153.464 284.61 155.451C284.61 157.478 283.696 158.692 282.047 158.692ZM293.65 160.623C295.792 160.623 297.307 159.568 297.741 157.97L295.932 157.644C295.587 158.571 294.756 159.044 293.67 159.044C292.033 159.044 290.934 157.983 290.883 156.091H297.863V155.413C297.863 151.865 295.741 150.478 293.516 150.478C290.78 150.478 288.978 152.562 288.978 155.579C288.978 158.628 290.755 160.623 293.65 160.623ZM290.889 154.659C290.966 153.265 291.976 152.057 293.529 152.057C295.012 152.057 295.983 153.157 295.99 154.659H290.889ZM302.255 154.595C302.255 153.029 303.213 152.134 304.543 152.134C305.84 152.134 306.627 152.984 306.627 154.41V160.424H308.538V154.179C308.538 151.75 307.202 150.478 305.195 150.478C303.718 150.478 302.753 151.162 302.299 152.204H302.178V150.606H300.343V160.424H302.255V154.595ZM315.693 160.623C317.834 160.623 319.349 159.568 319.784 157.97L317.975 157.644C317.629 158.571 316.798 159.044 315.712 159.044C314.075 159.044 312.976 157.983 312.925 156.091H319.905V155.413C319.905 151.865 317.783 150.478 315.558 150.478C312.823 150.478 311.02 152.562 311.02 155.579C311.02 158.628 312.797 160.623 315.693 160.623ZM312.931 154.659C313.008 153.265 314.018 152.057 315.571 152.057C317.054 152.057 318.026 153.157 318.032 154.659H312.931ZM322.386 160.424H324.297V154.429C324.297 153.144 325.288 152.217 326.643 152.217C327.039 152.217 327.486 152.287 327.64 152.332V150.504C327.448 150.478 327.071 150.459 326.828 150.459C325.677 150.459 324.693 151.111 324.335 152.166H324.233V150.606H322.386V160.424ZM332.423 160.642C334.047 160.642 334.961 159.817 335.325 159.082H335.402V160.424H337.268V153.905C337.268 151.047 335.018 150.478 333.459 150.478C331.682 150.478 330.045 151.194 329.406 152.984L331.202 153.393C331.484 152.696 332.199 152.025 333.484 152.025C334.718 152.025 335.351 152.671 335.351 153.783V153.828C335.351 154.525 334.635 154.512 332.871 154.716C331.011 154.934 329.106 155.419 329.106 157.65C329.106 159.581 330.557 160.642 332.423 160.642ZM332.839 159.108C331.758 159.108 330.979 158.622 330.979 157.676C330.979 156.653 331.886 156.289 332.992 156.142C333.612 156.059 335.082 155.892 335.357 155.618V156.883C335.357 158.047 334.43 159.108 332.839 159.108ZM344.757 150.606H342.744V148.254H340.832V150.606H339.394V152.14H340.832V157.938C340.826 159.721 342.187 160.584 343.696 160.552C344.303 160.546 344.712 160.431 344.936 160.348L344.591 158.769C344.463 158.794 344.226 158.852 343.92 158.852C343.3 158.852 342.744 158.647 342.744 157.542V152.14H344.757V150.606ZM347.231 160.424H349.142V150.606H347.231V160.424ZM348.196 149.091C348.855 149.091 349.405 148.58 349.405 147.954C349.405 147.327 348.855 146.809 348.196 146.809C347.532 146.809 346.988 147.327 346.988 147.954C346.988 148.58 347.532 149.091 348.196 149.091ZM356.209 160.623C358.977 160.623 360.786 158.596 360.786 155.56C360.786 152.505 358.977 150.478 356.209 150.478C353.442 150.478 351.633 152.505 351.633 155.56C351.633 158.596 353.442 160.623 356.209 160.623ZM356.216 159.018C354.407 159.018 353.563 157.439 353.563 155.554C353.563 153.674 354.407 152.076 356.216 152.076C358.012 152.076 358.856 153.674 358.856 155.554C358.856 157.439 358.012 159.018 356.216 159.018ZM365.191 154.595C365.191 153.029 366.149 152.134 367.479 152.134C368.776 152.134 369.563 152.984 369.563 154.41V160.424H371.474V154.179C371.474 151.75 370.138 150.478 368.131 150.478C366.654 150.478 365.689 151.162 365.235 152.204H365.114V150.606H363.279V160.424H365.191V154.595ZM379.674 160.424H381.541V158.897H381.701C382.046 159.523 382.749 160.616 384.539 160.616C386.916 160.616 388.642 158.711 388.642 155.535C388.642 152.351 386.891 150.478 384.519 150.478C382.698 150.478 382.039 151.591 381.701 152.198H381.585V147.334H379.674V160.424ZM381.547 155.515C381.547 153.464 382.442 152.102 384.11 152.102C385.843 152.102 386.712 153.566 386.712 155.515C386.712 157.484 385.817 158.986 384.11 158.986C382.468 158.986 381.547 157.58 381.547 155.515ZM393.06 147.334H391.148V160.424H393.06V147.334ZM400.126 160.623C402.894 160.623 404.703 158.596 404.703 155.56C404.703 152.505 402.894 150.478 400.126 150.478C397.359 150.478 395.55 152.505 395.55 155.56C395.55 158.596 397.359 160.623 400.126 160.623ZM400.133 159.018C398.324 159.018 397.48 157.439 397.48 155.554C397.48 153.674 398.324 152.076 400.133 152.076C401.929 152.076 402.773 153.674 402.773 155.554C402.773 157.439 401.929 159.018 400.133 159.018ZM411.332 160.623C413.652 160.623 415.155 159.229 415.366 157.318H413.505C413.263 158.379 412.438 159.005 411.345 159.005C409.728 159.005 408.686 157.657 408.686 155.515C408.686 153.412 409.747 152.089 411.345 152.089C412.559 152.089 413.301 152.856 413.505 153.777H415.366C415.161 151.795 413.544 150.478 411.313 150.478C408.545 150.478 406.755 152.562 406.755 155.56C406.755 158.52 408.481 160.623 411.332 160.623ZM417.769 160.424H419.681V156.941L420.633 155.988L423.97 160.424H426.316L422.071 154.819L426.047 150.606H423.759L419.847 154.761H419.681V147.334H417.769V160.424ZM431.88 160.623C434.201 160.623 435.703 159.229 435.914 157.318H434.054C433.811 158.379 432.986 159.005 431.893 159.005C430.276 159.005 429.234 157.657 429.234 155.515C429.234 153.412 430.295 152.089 431.893 152.089C433.108 152.089 433.849 152.856 434.054 153.777H435.914C435.709 151.795 434.092 150.478 431.861 150.478C429.093 150.478 427.304 152.562 427.304 155.56C427.304 158.52 429.029 160.623 431.88 160.623ZM440.229 154.595C440.229 153.029 441.22 152.134 442.581 152.134C443.898 152.134 444.684 152.971 444.684 154.41V160.424H446.595V154.179C446.595 151.731 445.253 150.478 443.233 150.478C441.705 150.478 440.785 151.143 440.325 152.204H440.203V147.334H438.318V160.424H440.229V154.595ZM452.363 160.642C453.986 160.642 454.901 159.817 455.265 159.082H455.342V160.424H457.208V153.905C457.208 151.047 454.958 150.478 453.398 150.478C451.621 150.478 449.985 151.194 449.346 152.984L451.142 153.393C451.423 152.696 452.139 152.025 453.424 152.025C454.658 152.025 455.29 152.671 455.29 153.783V153.828C455.29 154.525 454.575 154.512 452.81 154.716C450.95 154.934 449.045 155.419 449.045 157.65C449.045 159.581 450.496 160.642 452.363 160.642ZM452.778 159.108C451.698 159.108 450.918 158.622 450.918 157.676C450.918 156.653 451.826 156.289 452.932 156.142C453.552 156.059 455.022 155.892 455.297 155.618V156.883C455.297 158.047 454.37 159.108 452.778 159.108ZM460.114 160.424H462.025V150.606H460.114V160.424ZM461.079 149.091C461.737 149.091 462.287 148.58 462.287 147.954C462.287 147.327 461.737 146.809 461.079 146.809C460.414 146.809 459.871 147.327 459.871 147.954C459.871 148.58 460.414 149.091 461.079 149.091ZM466.867 154.595C466.867 153.029 467.826 152.134 469.156 152.134C470.453 152.134 471.24 152.984 471.24 154.41V160.424H473.151V154.179C473.151 151.75 471.815 150.478 469.808 150.478C468.331 150.478 467.366 151.162 466.912 152.204H466.791V150.606H464.956V160.424H466.867V154.595ZM485.429 160.623C487.57 160.623 489.085 159.568 489.52 157.97L487.711 157.644C487.366 158.571 486.535 159.044 485.448 159.044C483.812 159.044 482.713 157.983 482.661 156.091H489.642V155.413C489.642 151.865 487.519 150.478 485.295 150.478C482.559 150.478 480.757 152.562 480.757 155.579C480.757 158.628 482.534 160.623 485.429 160.623ZM482.668 154.659C482.744 153.265 483.754 152.057 485.308 152.057C486.791 152.057 487.762 153.157 487.769 154.659H482.668ZM496.258 160.623C498.578 160.623 500.08 159.229 500.291 157.318H498.431C498.188 158.379 497.364 159.005 496.271 159.005C494.653 159.005 493.611 157.657 493.611 155.515C493.611 153.412 494.673 152.089 496.271 152.089C497.485 152.089 498.226 152.856 498.431 153.777H500.291C500.087 151.795 498.469 150.478 496.239 150.478C493.471 150.478 491.681 152.562 491.681 155.56C491.681 158.52 493.407 160.623 496.258 160.623ZM506.831 160.623C509.598 160.623 511.407 158.596 511.407 155.56C511.407 152.505 509.598 150.478 506.831 150.478C504.063 150.478 502.254 152.505 502.254 155.56C502.254 158.596 504.063 160.623 506.831 160.623ZM506.837 159.018C505.028 159.018 504.184 157.439 504.184 155.554C504.184 153.674 505.028 152.076 506.837 152.076C508.633 152.076 509.477 153.674 509.477 155.554C509.477 157.439 508.633 159.018 506.837 159.018ZM521.258 153.003C520.862 151.476 519.666 150.478 517.544 150.478C515.326 150.478 513.754 151.648 513.754 153.387C513.754 154.78 514.597 155.707 516.438 156.116L518.1 156.481C519.046 156.691 519.487 157.113 519.487 157.727C519.487 158.488 518.676 159.082 517.423 159.082C516.279 159.082 515.543 158.59 515.313 157.625L513.466 157.906C513.786 159.645 515.23 160.623 517.435 160.623C519.807 160.623 521.45 159.363 521.45 157.586C521.45 156.199 520.568 155.343 518.765 154.927L517.205 154.569C516.125 154.314 515.658 153.949 515.665 153.285C515.658 152.53 516.477 151.993 517.563 151.993C518.752 151.993 519.302 152.652 519.526 153.31L521.258 153.003ZM525.119 164.106C526.698 164.106 527.695 163.282 528.264 161.735L532.323 150.625L530.258 150.606L527.772 158.226H527.67L525.183 150.606H523.138L526.73 160.552L526.493 161.204C526.008 162.508 525.324 162.617 524.275 162.329L523.815 163.895C524.045 163.998 524.544 164.106 525.119 164.106ZM541.841 153.003C541.445 151.476 540.25 150.478 538.127 150.478C535.909 150.478 534.337 151.648 534.337 153.387C534.337 154.78 535.181 155.707 537.022 156.116L538.684 156.481C539.63 156.691 540.071 157.113 540.071 157.727C540.071 158.488 539.259 159.082 538.006 159.082C536.862 159.082 536.127 158.59 535.897 157.625L534.049 157.906C534.369 159.645 535.813 160.623 538.019 160.623C540.39 160.623 542.033 159.363 542.033 157.586C542.033 156.199 541.151 155.343 539.348 154.927L537.789 154.569C536.708 154.314 536.242 153.949 536.248 153.285C536.242 152.53 537.06 151.993 538.147 151.993C539.335 151.993 539.885 152.652 540.109 153.31L541.841 153.003ZM549.077 150.606H547.064V148.254H545.153V150.606H543.715V152.14H545.153V157.938C545.146 159.721 546.508 160.584 548.016 160.552C548.624 160.546 549.033 160.431 549.256 160.348L548.911 158.769C548.783 158.794 548.547 158.852 548.24 158.852C547.62 158.852 547.064 158.647 547.064 157.542V152.14H549.077V150.606ZM555.678 160.623C557.819 160.623 559.334 159.568 559.769 157.97L557.96 157.644C557.614 158.571 556.783 159.044 555.697 159.044C554.06 159.044 552.961 157.983 552.91 156.091H559.89V155.413C559.89 151.865 557.768 150.478 555.543 150.478C552.808 150.478 551.005 152.562 551.005 155.579C551.005 158.628 552.782 160.623 555.678 160.623ZM552.916 154.659C552.993 153.265 554.003 152.057 555.556 152.057C557.039 152.057 558.011 153.157 558.017 154.659H552.916ZM562.371 160.424H564.282V154.371C564.282 153.048 565.209 152.128 566.295 152.128C567.356 152.128 568.091 152.831 568.091 153.898V160.424H569.996V154.167C569.996 152.984 570.719 152.128 571.965 152.128C572.975 152.128 573.806 152.69 573.806 154.02V160.424H575.717V153.841C575.717 151.597 574.464 150.478 572.687 150.478C571.275 150.478 570.214 151.156 569.741 152.204H569.638C569.21 151.13 568.309 150.478 566.998 150.478C565.701 150.478 564.736 151.124 564.327 152.204H564.205V150.606H562.371V160.424Z" fill="white"/>
<defs>
<radialGradient id="paint0_radial" cx="0" cy="0" r="1" gradientUnits="userSpaceOnUse" gradientTransform="translate(197 107) rotate(106.937) scale(127.009 369.471)">
<stop stop-color="#00BDFD" stop-opacity="0.33"/>
<stop offset="0.541667" stop-color="white" stop-opacity="0"/>
</radialGradient>
<clipPath id="clip0">
<rect width="290" height="68.8489" fill="white" transform="translate(48 48.5756)"/>
</clipPath>
</defs>
</svg>
