<svg width="164" height="40" viewBox="0 0 164 40" fill="none" xmlns="http://www.w3.org/2000/svg">
<path fill-rule="evenodd" clip-rule="evenodd" d="M0 0V40H73.0068L77.3205 20.4959L73.0068 0H0Z" fill="#92B700"/>
<path fill-rule="evenodd" clip-rule="evenodd" d="M0 20.3138V39.9999H73.0068L77.3205 20.3076L0 20.3138Z" fill="#92B700"/>
<path fill-rule="evenodd" clip-rule="evenodd" d="M26.6531 21.8229C26.6531 29.7938 22.9176 33.7793 15.4469 33.7793C8.19999 33.7793 4.57629 29.8866 4.57629 22.1002V6.77539H10.6075V22.1745C10.6075 26.4681 12.2949 28.6154 15.6706 28.6154C18.984 28.6154 20.6405 26.5424 20.6405 22.3965V6.77539H26.6531V21.8229Z" fill="white"/>
<path fill-rule="evenodd" clip-rule="evenodd" d="M29.3221 32.298V26.3732C30.4021 27.2739 31.5754 27.9495 32.8419 28.4005C34.108 28.851 35.3869 29.0761 36.6778 29.0761C37.4355 29.0761 38.0964 29.0084 38.661 28.8725C39.2259 28.7367 39.6976 28.5486 40.0765 28.3077C40.4553 28.0673 40.7374 27.7833 40.9239 27.4558C41.1101 27.1288 41.2029 26.7741 41.2029 26.3912C41.2029 25.873 41.0544 25.4101 40.756 25.0027C40.458 24.5956 40.0517 24.2189 39.5363 23.873C39.0212 23.5275 38.4099 23.1943 37.7021 22.8734C36.9943 22.5521 36.2309 22.2251 35.4117 21.8919C33.326 21.0277 31.7712 19.9723 30.7469 18.7257C29.7226 17.4787 29.2107 15.9728 29.2107 14.2079C29.2107 12.8251 29.4896 11.6369 30.0484 10.6431C30.6072 9.64969 31.3676 8.83167 32.3295 8.18991C33.2915 7.54815 34.406 7.07606 35.6725 6.77365C36.9386 6.47123 38.2794 6.31958 39.6945 6.31958C41.0853 6.31958 42.3174 6.4031 43.3912 6.57013C44.465 6.73672 45.4552 6.99299 46.3615 7.33848V12.8747C45.9145 12.5657 45.4274 12.2945 44.8995 12.0598C44.3717 11.8255 43.8288 11.6308 43.27 11.4765C42.7117 11.3222 42.156 11.2084 41.6034 11.1341C41.0508 11.0602 40.5265 11.0233 40.0301 11.0233C39.3471 11.0233 38.7264 11.0879 38.1676 11.2176C37.6093 11.3473 37.1371 11.5293 36.7525 11.7635C36.3675 11.9978 36.0695 12.2791 35.8586 12.6062C35.6478 12.9332 35.5421 13.3002 35.5421 13.7077C35.5421 14.1525 35.6597 14.5503 35.8958 14.902C36.1318 15.2541 36.4669 15.5868 36.9015 15.902C37.3356 16.2167 37.8635 16.5253 38.4841 16.8282C39.1048 17.1301 39.8064 17.4418 40.5884 17.7631C41.656 18.2071 42.6153 18.6796 43.4659 19.1794C44.316 19.6791 45.0454 20.244 45.6537 20.8739C46.262 21.5029 46.7275 22.222 47.0507 23.0308C47.3734 23.8391 47.5348 24.7802 47.5348 25.8545C47.5348 27.3358 47.2523 28.5794 46.6873 29.5855C46.1223 30.5912 45.3558 31.4062 44.3876 32.0295C43.419 32.6532 42.2926 33.1002 41.0075 33.3719C39.7224 33.6435 38.3661 33.7794 36.9386 33.7794C35.4736 33.7794 34.0802 33.6558 32.7579 33.4088C31.4357 33.1622 30.2907 32.7917 29.3221 32.298Z" fill="white"/>
<path fill-rule="evenodd" clip-rule="evenodd" d="M66.0293 33.3123H50.0234V6.77515H65.4152V11.642H56.0348V17.5453H64.7636V22.3936H56.0348V28.4639H66.0293V33.3123Z" fill="white"/>
<path fill-rule="evenodd" clip-rule="evenodd" d="M98.224 12.1137H90.6093V33.7906H84.5772V12.1137H77V7.24512H98.224V12.1137Z" fill="white"/>
<path fill-rule="evenodd" clip-rule="evenodd" d="M116.256 33.5429H100.247V7H115.641V11.8681H106.26V17.7727H114.99V22.622H106.26V28.6936H116.256V33.5429Z" fill="white"/>
<path fill-rule="evenodd" clip-rule="evenodd" d="M137.768 32.3715C135.82 33.3095 133.276 33.7781 130.136 33.7781C126.04 33.7781 122.82 32.5816 120.475 30.1873C118.129 27.7935 116.956 24.6036 116.956 20.6181C116.956 16.3733 118.274 12.9302 120.912 10.2902C123.549 7.6493 126.971 6.32886 131.178 6.32886C133.784 6.32886 135.981 6.65589 137.768 7.30952V13.0664C135.981 12.0049 133.946 11.4744 131.662 11.4744C129.156 11.4744 127.132 12.2581 125.594 13.8251C124.055 15.3922 123.285 17.5148 123.285 20.1926C123.285 22.7592 124.011 24.8045 125.464 26.3284C126.915 27.8524 128.87 28.6141 131.327 28.6141C133.672 28.6141 135.82 28.0467 137.768 26.9113V32.3715Z" fill="white"/>
<path fill-rule="evenodd" clip-rule="evenodd" d="M163.617 33.2977H157.585V22.4881H146.528V33.2977H140.515V6.75488H146.528V17.3426H157.585V6.75488H163.617V33.2977Z" fill="white"/>
</svg>
