<svg width="24" height="24" fill="none" xmlns="http://www.w3.org/2000/svg"><rect x=".5" y=".5" width="23" height="23" rx="3.5" fill="#92B700"/><path d="M7.02 9.093h1.845v4.374c0 .52-.123.97-.371 1.35a2.42 2.42 0 01-1.029.876c-.44.205-.95.307-1.532.307-.586 0-1.1-.102-1.54-.307a2.42 2.42 0 01-1.028-.876c-.243-.38-.365-.83-.365-1.35V9.093h1.845v4.214c0 .21.046.4.139.566.093.165.221.294.385.387.166.093.354.14.564.14.212 0 .4-.047.564-.14.163-.093.292-.222.385-.387a1.15 1.15 0 00.139-.566V9.093zm6.454 2.134a.72.72 0 00-.249-.52c-.146-.125-.368-.187-.666-.187-.19 0-.346.023-.468.07a.563.563 0 00-.266.183.455.455 0 00-.09.267.44.44 0 00.044.223.52.52 0 00.166.177 1.3 1.3 0 00.288.14c.118.042.257.08.418.113l.558.12c.376.08.698.186.965.317a2.3 2.3 0 01.657.463c.17.176.295.374.375.594.082.22.124.46.126.72-.002.449-.114.829-.335 1.14-.221.31-.537.547-.949.71-.409.162-.901.243-1.476.243-.59 0-1.106-.088-1.546-.263a2.158 2.158 0 01-1.022-.81c-.241-.367-.363-.836-.365-1.407h1.752c.01.209.063.384.156.527a.87.87 0 00.391.323c.17.073.373.11.607.11.197 0 .362-.024.495-.073a.667.667 0 00.302-.204.48.48 0 00.106-.296.423.423 0 00-.103-.274.797.797 0 00-.319-.213 3.385 3.385 0 00-.6-.18l-.677-.147c-.601-.13-1.076-.35-1.423-.656-.345-.31-.517-.73-.514-1.264a1.884 1.884 0 01.345-1.136 2.31 2.31 0 01.972-.764c.415-.182.892-.273 1.43-.273.548 0 1.023.092 1.423.277.4.184.709.444.925.78.22.333.33.723.332 1.17h-1.765zm2.629 4.693V9.093H21v1.494h-3.052v1.173h2.8v1.493h-2.8v1.174h3.039v1.493h-4.884z" fill="#fff"/><rect x=".5" y=".5" width="23" height="23" rx="3.5" stroke="#EDEFF5"/></svg>