<svg width="357" height="274" xmlns="http://www.w3.org/2000/svg"><g clip-path="url(#clip0_262_2176)"><path d="M29.618 226.925l.547.018-.547-.018zm-5.595-.097l1.076.014-1.076-.014zm188.881.541c8.925.128 17.85.295 26.765.337-8.915-.032-17.84-.209-26.765-.337z" fill="#C7E0C7"/><path d="M356.154 226.451c-11.684-.02-23.33-.091-28.63-.209-9-.197-56.939.151-71.902.179-12.317.024-62.248-.492-74.9-.48-14.138.014-57.284.633-64.721.073-2.963-.224-52.818-.569-65.962-.415-9.84.114-19.68.023-29.52-.272-2.7-.082-10.717-.118-20.54-.139-.105.497-.217.983-.343 1.481 4.378.018 8.71.039 12.703.063h7.769l1.88.018h.173l1.169.011h.677l1.076.014h2.15l.84.016h.472l.693.016h.384l.547.017h.298l.213.01c1.935.087 3.871.132 5.806.15 8.39.074 16.779-.376 25.17-.197 2.511.053 5.022.067 7.533.069h7.533c1.674 0 3.348.008 5.023.025l4.51.053.811.01 1.27.014 1.328.016h1.382l.946.01 1.462.017 1.502.016 1.54.018 1.046.012 1.059.011 1.07.012h.539l1.087.012h.547l1.651.018h.553l2.228.023 1.12.012 2.241.024 1.12.012h1.118l2.774.029 3.808.035 2.639.026 3.043.028 1.938.015h1.398l2.637.02h11.658l1.852-.012 4.607-.027h11.953l2.696-.014h2.759l2.809-.012h2.839l5.003-.022h10.491l5.875.044h15.794l4.462.061c8.925.128 17.849.295 26.764.336h4.463l45.372-.027c12.988-.02 25.963-.091 38.944-.095h27.85l-.149-1.105z"/><path d="M336.27 227.591h-7.813c-12.988 0-25.963.075-38.944.095-15.124.022-30.248.031-45.371.027h-4.464c-8.924-.041-17.849-.208-26.764-.336l-4.461-.061h-15.795l-5.871.012h-10.491l-5.002.021h-2.84l-2.808.012h-2.759l-2.697.014h-11.965l-4.607.028-1.852.011H130.12l-2.637-.019h-1.397l-1.939-.016-3.042-.028-2.639-.025-3.808-.036-2.775-.029h-1.118l-1.12-.012-2.241-.023-1.12-.012-2.228-.024h-.553l-1.651-.018h-.547l-1.086-.011h-.54l-1.07-.012-1.059-.012-1.045-.012-1.54-.017-1.502-.016-1.462-.018-.947-.01h-1.382l-1.328-.016-1.27-.013-.81-.01-4.51-.053a382.17 382.17 0 00-5.023-.026h-7.545c-2.511 0-5.022-.016-7.533-.069-8.392-.179-16.781.272-25.17.197a165.39 165.39 0 01-5.806-.149l-.213-.01h-.298l-.548-.018h-.384l-.692-.016h-.474l-.841-.015h-2.125l-1.077-.014h-.676l-1.17-.012h-.173l-1.88-.018h-7.769c-.393.802-.78 1.608-1.157 2.42a70.62 70.62 0 00-3.767 13.254 46.603 46.603 0 00-.1 7.43 32.8 32.8 0 00.984 3.726c.37.707.77 1.396 1.2 2.068a25.54 25.54 0 001.588 1.574 43.308 43.308 0 005.51 2.992 61.991 61.991 0 0011.334 2.996c6.058.59 12.14.394 18.184-.301 8.986-1.377 17.81-3.628 26.611-5.902 17.603-4.524 35.817-9.122 54.152-8.207 9.557.478 18.399 2.571 27.158 6.268a161.519 161.519 0 0112.221 5.752c3.423 1.792 6.776 3.72 10.273 5.361 5.817 2.215 11.871 3.657 18.021 4.611 6.374.73 12.792 1.045 19.197 1.242 12.989.393 25.97.839 38.944 1.337 12.225.465 24.505.638 36.673-.759 7.726-1.192 15.303-3.108 22.585-5.957 4.882-2.217 9.609-4.822 14.313-7.383 4.703-2.562 9.338-5.269 13.681-8.405a43.99 43.99 0 004.692-4.475 34.566 34.566 0 002.054-3.541 41.899 41.899 0 001.606-6.03c.23-2.862.218-5.738-.035-8.597-.044-.238-.091-.474-.136-.712h-11.877l.004.007z" fill="#FFF5DE"/><path d="M216.625 119.228a48.564 48.564 0 005.587 5.902 54.729 54.729 0 005.821 4.488c1.968 1.292 4.227 2.164 6.396 2.992.424.168.859.308 1.301.419 1.751.427 3.593.614 5.382.761.432.031.865.025 1.295-.019a45.71 45.71 0 004.645-.634c.212-.043.421-.096.625-.159 1.461-.455 2.872-1.143 4.259-1.771.197-.092.408-.183.604-.289 1.543-.834 2.931-2.073 4.253-3.171.403-.332.78-.694 1.128-1.084a44.555 44.555 0 003.396-4.395c1.545-2.27 2.512-4.993 3.543-7.492a31.452 31.452 0 001.645-5.272c.415-1.887.726-3.805.964-5.729-1.915-8.081-4.278-15.172-7.325-24.304-3.729-11.148-9.879-19.968-14.238-27.198-4.329-7.176-9.076-14.042-14.685-20.263a192.292 192.292 0 00-13.756-13.918c-5.652-5.115-11.623-9.678-18.18-13.526a20.012 20.012 0 00-8.354-2.677c-3.448-.342-6.494.76-9.66 1.741-3.439 1.066-5.568 3.344-7.097 6.443-1.563 3.167-2.397 6.514-3.005 9.919a61.07 61.07 0 00.248 3.335c.364 3.786.927 7.551 1.688 11.278 1.047 4.962 2.59 9.81 4.413 14.537a208.18 208.18 0 007.744 17.593 254.217 254.217 0 003.129 6.112c4.026-1.896 8.385-2.992 12.522-4.627a18.202 18.202 0 015.335-1.196c4.782-.358 9.005.984 11.973 4.983 1.498 2.017 2.94 4.087 4.107 6.341 2.037 3.935 4.351 7.702 5.51 12.058 1.16 4.355.099 8.176-2.725 11.41-3.867 4.424-7.852 8.741-12.202 12.685a151.802 151.802 0 003.714 4.727zm16.826-48.159c-.811-1.523-.838-3.148-1.868-4.295-.946-1.054-2.054-2.034-2.436-3.934 3.483 1.623 5.375 5.221 4.304 8.237v-.008zm-32.56-53.34c-11.377-7.556-19.798-8.415-14.476-10.402 15.206-5.676 46.05 34.732 45.247 34.732-.437 0-17.499-15.514-30.771-24.33zm23.279 50.23c-.854-1.098-1.793-2.125-3.064-2.796-.525-.28-1.141-.667-.573-1.41.494-.644 1.087-.437 1.596-.022 1.693 1.377 3.285 2.852 4.416 4.753 1.598 2.685 3.346 5.292 4.295 8.314.495 1.574.984 3.147.787 5.376a8.34 8.34 0 01-1.309-2.8c-1.181-4.274-3.454-7.963-6.148-11.415z" fill="#FFD55F"/><path d="M175.408 138.949c4.239-2.511 8.447-5.434 11.537-9.317 1.82-2.288 3.652-4.551 4.971-7.169a52.689 52.689 0 003.392-8.33c.274-.899.512-1.814.725-2.734-.319-.436-.636-.873-.951-1.311-2.682-3.753-4.971-7.747-7.447-11.626a78.479 78.479 0 01-7.789-15.63c-3.3-9.168-6.193-18.48-8.313-28-1.836-8.246-3.186-16.578-3.258-25.062-.012-1.46 0-2.922 0-4.75-1.132 1.004-1.482 2.1-1.884 3.123-3.385 8.644-8.401 16.381-13.37 24.146-.844 1.318-9.879 12.8-13.595 17.177-1.157 1.363-2.273 2.905-4.302 3.147-.694.083-.984.726-1.32 1.18-3.543 4.742-7.423 9.186-11.344 13.603-5.134 5.785-10.233 11.593-16.001 16.787-5.117 4.603-10.104 9.327-15.421 13.694-1.956 1.609-3.285 3.567-3.212 6.264.051 1.912 0 3.828-.057 5.74-.173 5.509.959 10.685 3.708 15.52 1.255 2.206 2.727 4.252 4.19 6.296 2.113 2.961 4.29 5.854 6.645 8.593a188.99 188.99 0 006.691-1.06c8.108-1.395 61.785-17.543 66.405-20.281zm-9.806-92.412c1.281 5.04-1.429 12.164-4.162 14.084-12.424 8.729-33.062 28.671-33.456 28.97-7.053 5.127 37.421-43.825 37.618-43.05v-.004z" fill="#E2B537"/><path d="M135.685 176.985c.013-2.101 0-4.202 0-6.286a16.298 16.298 0 00-1.899 1.619 36.512 36.512 0 00-4.281 4.423c-1.814 2.262-3.751 4.576-5.004 7.224-1.193 2.518-2.383 5.178-2.997 7.926-.646 2.878-.984 5.843-1.211 8.782-.332 4.232-.348 8.501-.437 12.742-.118 5.509-.179 11.017-.212 16.525-.009 1.616-.017 3.232-.022 4.848-.35-.055-.7-.112-1.051-.177 5.727 1.046 11.442.742 17.084-.614 2.6-.624 2.712-.903 2.84-3.575.022-.434.022-.871.024-1.306.043-9.246-1.41-18.392-1.772-27.611-.33-8.182-1.117-16.325-1.062-24.52z" fill="#AF9162"/><path d="M204.952 69.11c-4.887.958-9.419 3.03-14.054 4.722-1.879.688-3.636 1.693-5.431 2.634a15.607 15.607 0 001.797 4.643 74.792 74.792 0 005.441 7.202 29.262 29.262 0 003.822 3.887c3.149 2.583 6.23 4.99 10.33 5.902 1.557.365 3.149.567 4.748.6.457-.012 1.557-.173 2.082-.26.591-.064 1.927-.232 2.295-.33a7.55 7.55 0 00.394-.118c.517-.16 3.371-1.358 3.819-1.613.042-.024.085-.042.124-.065.646-.374 1.447-1.09 1.86-1.41 1.95-1.506 2.679-2.126 4.08-4.246a12.84 12.84 0 00-.325-1.033c-2.094-5.786-5.056-11.08-8.616-16.04-2.096-2.92-4.886-4.703-8.49-4.756-.338 0-.682.011-1.037.04-.94.082-1.911.06-2.839.24zm21.354 21.677c0-.028-.018-.057-.026-.086l.024.09.002-.004zm-.339 6.39z" fill="#FAF1CE"/><path d="M91.463 161.16a77.16 77.16 0 008.674-.579c-3.196-3.807-6.216-7.749-8.856-11.989-3.345-5.358-5.472-11.038-5.234-17.453.078-2.086.126-4.172.141-6.26 0-.539.302-1.242-.576-1.586-4.597 3.793-8.437 8.375-11.072 13.635-3.251 6.492-3.26 13.459-.26 20.159.165.368.333.734.506 1.098 2.184.921 4.33 1.692 6.728 2.048 3.32.494 6.587.946 9.949.927z" fill="#78999B"/><path d="M91.003 111.261a31.615 31.615 0 002.558-1.224c1.427-.751 2.663-1.77 3.936-2.754a43.798 43.798 0 003.706-3.075c.393-.383.787-.777 1.18-1.18h.034c-2.952-.022-5.638-.059-8.313.031-6.33.213-12.658.622-18.99.787-1.791.047-3.264.185-4.244 1.564-.934 1.314-1.029 3.201-.287 4.669.661 1.308 2.049 1.18 3.24 1.18 5.73.026 11.455-.002 17.18.002zm172.82 46.084zm61.546 9.278c.181-.59.394-1.155.534-1.745.984-3.935-.217-5.747-4.204-6.421a5.324 5.324 0 00-.787-.077c-2.437-.059-4.877-.211-7.311-.144-4.349.12-8.695 0-13.034-.196-4.955-.242-9.913-.262-14.868-.327h-.177s-5.438-.096-11.009-.185l4.648.075a58.438 58.438 0 01-7.214 4.328 24.68 24.68 0 01-2.688.787 81.49 81.49 0 01-9.073.098 15.677 15.677 0 00-4.801-.753l-17.637-1.855c-3.035-.636-5.957-1.698-8.876-2.755l-.269-.096h1.125c-9.446.039-17.745.155-18.27.151-1.321-.011-2.265 1.267-2.539 2.404-.464 1.928-.984 4.252-.76 6.272.185 1.676.608 2.03 2.362 2.042 4.005.022 8.011-.1 12.004.018 5.932.177 27.343 0 32.126-.033 13.417-.109 26.823.623 40.238.491 9.132-.088 18.257.705 27.396.116 1.711-.116 2.616-.692 3.084-2.195zm-78.441-9.215l1.352.022-1.352-.022z" fill="#B3DCDD"/><path d="M177.518 49.14c-1.823-4.722-3.366-9.575-4.413-14.537a108.066 108.066 0 01-1.688-11.278 59.062 59.062 0 01-.248-3.335l-.024.138c-.053.305-.106.61-.157.917 0 .041-.014.082-.02.124-.051.314-.102.63-.151.944 0 .055-.016.108-.026.163l-.14.929-.023.155-.154 1.049a41.06 41.06 0 00-.34 9.624c.576 6.42 1.377 12.801 2.847 19.083 1.563 6.688 3.035 13.415 5.511 19.848.472 1.23.197 3.185 1.714 3.517 1.255.276 2.615-.753 3.904-1.279.166-.053.326-.125.477-.212.153-.106.308-.209.464-.309l.228-.145.238-.152.325-.197.146-.088.393-.225.085-.047.435-.24.043-.021c.156-.085.311-.166.469-.248h.011c.323-.167.651-.327.984-.48a307.815 307.815 0 01-3.129-6.113 202.411 202.411 0 01-7.761-17.585zm83.843 106.251c1.968-.761 3.542-1.678 4.805-3.309 2.165-2.803 3.509-5.99 4.452-9.358.754-2.685 1.193-11.761.998-13.494-.038-.344-.075-.684-.114-1.023-.01-.104-.022-.196-.034-.307-.025-.234-.053-.466-.079-.696l-.045-.394-.069-.59c-.015-.137-.033-.273-.049-.409a33.822 33.822 0 00-.067-.563l-.051-.421-.065-.531-.055-.433c-.018-.143-.041-.336-.063-.503-.022-.167-.037-.291-.057-.435-.02-.144-.041-.329-.063-.494l-.057-.429c-.02-.143-.043-.318-.063-.478l-.059-.431a33.94 33.94 0 01-.063-.46c-.02-.153-.041-.289-.061-.435-.02-.145-.041-.295-.063-.442-.022-.148-.041-.289-.061-.433l-.065-.439-.063-.425c-.022-.141-.041-.277-.061-.417-.02-.139-.045-.293-.067-.439-.022-.145-.037-.245-.057-.367l-.071-.469c0-.059-.02-.116-.027-.175-.065-.393-.128-.798-.197-1.192a9.18 9.18 0 00-.038-.23c-.027-.171-.057-.34-.084-.512l-.047-.285c-.028-.165-.058-.328-.085-.492-.018-.098-.033-.196-.051-.297-.028-.159-.055-.318-.085-.48a16.594 16.594 0 00-.051-.295l-.087-.48c-.017-.094-.033-.197-.051-.283l-.088-.48c-.018-.091-.034-.183-.051-.274l-.091-.48-.049-.261-.095-.486-.047-.244c-.031-.165-.065-.331-.098-.494a9.047 9.047 0 00-.046-.226l-.1-.504-.041-.197a70.2 70.2 0 00-.11-.529c0-.045-.018-.09-.028-.135-.041-.197-.081-.394-.122-.579l-.012-.051c-.114-.539-.232-1.07-.35-1.597l-.026-.117c-.114-.501-.228-.997-.344-1.491l-.03-.12a62.298 62.298 0 01-.964 5.729 31.452 31.452 0 01-1.645 5.272c-1.029 2.499-1.996 5.222-3.542 7.492a44.564 44.564 0 01-3.397 4.395c-.348.39-.725.752-1.128 1.084-1.322 1.098-2.71 2.337-4.253 3.171a7.826 7.826 0 01-.604.289c-1.377.622-2.798 1.31-4.258 1.771a6.592 6.592 0 01-.626.159 45.71 45.71 0 01-4.645.634c-.43.044-.863.05-1.295.019-1.788-.147-3.63-.334-5.382-.761a10.43 10.43 0 01-1.301-.419c-2.165-.836-4.434-1.7-6.396-2.992a54.729 54.729 0 01-5.821-4.488 48.564 48.564 0 01-5.587-5.902 147.207 147.207 0 01-3.708-4.721c-.393.362-.797.721-1.21 1.078l-.041.037c-.378.331-.756.657-1.14.984l-.141.122c-.351.295-.705.59-1.059.875l-.222.183c-.422.341-.845.678-1.272 1.01-.413.32-.787.686-1.2 1.009-.758.59-.878 1.18-.179 1.967 1.462 1.609 2.727 3.431 4.329 4.869 3.964 3.541 7.551 7.452 11.509 10.997 7.104 6.363 14.582 12.105 23.543 15.613 4.982 1.92 9.861 4.324 15.533 2.134z" fill="#EFC04D"/><path d="M230.38 146.456c-2.663-2.099-5.473-4.047-7.937-6.36-5.51-5.174-11.115-10.26-16.137-15.957-.473-.538-.942-1.075-1.408-1.613-.196-.236-.405-.476-.61-.712-.251-.297-.507-.59-.757-.891-.25-.301-.528-.63-.787-.945-.184-.219-.366-.438-.548-.657-.301-.364-.59-.728-.895-1.094l-.407-.503a140.3 140.3 0 01-.974-1.218c-.099-.126-.197-.252-.298-.376a276.75 276.75 0 01-1.035-1.33l-.197-.261a217.359 217.359 0 01-1.2-1.582c-.386-.515-.769-1.033-1.149-1.554a41.293 41.293 0 01-.725 2.734 52.689 52.689 0 01-3.392 8.33c-1.319 2.618-3.149 4.881-4.971 7.169-3.09 3.883-7.298 6.807-11.537 9.317-4.62 2.734-58.297 18.872-66.412 20.291-2.21.393-4.442.753-6.692 1.06.319.37.642.736.967 1.102l.033.037c.311.348.626.693.945 1.035l.081.086c.299.323.604.64.911.956.045.048.088.095.135.142.288.295.579.59.874.878.065.062.128.127.197.196.276.272.557.539.84.805l.25.236c.27.25.545.498.821.744l.293.263c.276.244.559.482.842.722l.296.252c.381.319.769.632 1.163.94 4.005 3.148 8.053 3.506 12.636 1.968 6.101-2.046 12.201-4.049 18.349-5.959 7.142-2.223 14.213-4.645 21.193-7.33 2.108-.809 26.554-8.639 43.134-9.459 6.691-.468 13.382-.681 20.093-.262 1.844.116 3.686.252 5.67.394-.449-.911-1.12-1.171-1.655-1.594z" fill="#D1A330"/><path d="M119.642 229.93c.034-5.508.095-11.016.213-16.525.088-4.241.104-8.51.436-12.742.231-2.939.565-5.902 1.211-8.782.614-2.754 1.804-5.408 2.997-7.926 1.254-2.648 3.19-4.962 5.005-7.224a36.429 36.429 0 014.28-4.423 16.381 16.381 0 011.899-1.619v-1.69c-.634-.248-1.106 0-1.61.136-4.526 1.243-8.856 3.132-13.423 4.253-1.685.413-3.297 1.12-4.977 1.56-1.156.305-1.327.85-.943 1.891.535 1.479.809 3.039.811 4.611.047 6.003.311 12.017.049 18.007-.447 10.259-.057 20.531-.59 30.786-.162 3.148.393 3.77 3.564 4.348.35.065.7.122 1.05.177.019-1.611.028-3.223.028-4.838z" fill="#937F58"/><path d="M199.072 112.749a163.507 163.507 0 004.311 5.565c.492.61 1.15 1.267 1.968.455 2.338-2.361 5.15-4.147 7.544-6.431 3.518-3.359 6.807-6.937 10.07-10.537l.283-.319.094-.11.18-.211.112-.135c.051-.063.102-.124.151-.197.049-.073.079-.101.118-.15l.136-.173.12-.159c.041-.055.085-.11.124-.167l.12-.166c.038-.053.077-.106.112-.159l.12-.175.103-.154c.039-.06.08-.121.118-.182l.092-.144.118-.197.079-.134c.039-.069.081-.135.118-.196l.067-.12.12-.223.047-.092.126-.254.012-.025c.125-.263.239-.525.343-.787.11-.286.21-.573.297-.866a.145.145 0 010-.03c.03-.102.057-.204.082-.306 0-.018 0-.034.014-.05.026-.1.049-.196.071-.303l.012-.055c.021-.1.041-.196.059-.305l.012-.055c.017-.102.033-.196.047-.31a.436.436 0 000-.052l.039-.318a.285.285 0 010-.042 9.074 9.074 0 00.026-.354c0-.16.014-.319.016-.48v-.682c0-.103-.014-.197-.022-.307 0-.067-.01-.132-.018-.197a9.746 9.746 0 00-.059-.462c-.012-.081-.027-.162-.041-.244l-.045-.254-.059-.28-.054-.222a4.51 4.51 0 00-.051-.208l-.023-.09v-.036c-1.402 2.12-2.13 2.74-4.08 4.245-.413.32-1.214 1.037-1.86 1.41-.039.024-.082.042-.124.066-.448.255-3.302 1.453-3.82 1.613-.133.041-.265.082-.393.118-.368.098-1.698.266-2.295.33-.525.087-1.625.248-2.082.26h-.081a22.763 22.763 0 01-4.803-.602c-4.1-.917-7.176-3.323-10.33-5.902a29.372 29.372 0 01-3.822-3.887 74.939 74.939 0 01-5.447-7.204 15.544 15.544 0 01-1.795-4.643l-.417.216-.122.065-.366.185-.221.11c-.149.073-.301.148-.452.219l-.323.153-.217.098-.328.146-.211.09-.362.15-.183.073a8.73 8.73 0 01-.547.197c-1.163.41-1.324 1.084-.88 2.227 1.575 4.06 3.186 8.12 5.29 11.925a186.452 186.452 0 0013.062 20.427z" fill="#E8DAAF"/><path d="M104.024 165.073a172.74 172.74 0 01-1.942-2.214l-.036-.041a214.262 214.262 0 01-1.908-2.237 77.193 77.193 0 01-8.675.579c-3.362.017-6.628-.433-9.958-.927-2.405-.356-4.544-1.127-6.729-2.048.155.327.313.655.475.984l.01.021c.153.309.31.614.472.919l.041.077c.154.293.313.59.472.871l.06.107c.159.283.32.562.486.842.021.039.045.076.068.116.164.275.331.55.502.822l.071.114c.173.272.35.542.527.813.022.031.046.063.067.096.184.274.371.546.561.814l.047.063a31.015 31.015 0 001.25 1.645l.04.049a33.655 33.655 0 00.714.85c.213.244.427.482.647.72l.097.106c.216.232.439.461.663.689l.108.108c.226.227.456.449.689.667l.11.102a26.548 26.548 0 00.825.738c.254.22.511.435.775.647l.067.053c.276.223.557.441.844.654 3.576 2.657 7.412 4.404 11.91 4.764 6.07.484 11.72-.946 17.437-3.419-4.127-2.372-7.817-4.8-10.787-8.144z" fill="#688C8C"/><path d="M101.212 104.209a43.912 43.912 0 01-3.706 3.067c-1.273.983-2.51 2.002-3.936 2.754a35.55 35.55 0 01-2.558 1.224h2.393a6.877 6.877 0 004.945-1.968c2.076-1.967 4.186-3.901 6.711-6.248H102.4c-.397.394-.789.787-1.188 1.171zm127.668 53.242c2.918 1.049 5.841 2.111 8.875 2.754l17.637 1.855c1.63.001 3.25.255 4.802.754 3.024.135 6.053.102 9.072-.099a24.85 24.85 0 002.689-.786 58.593 58.593 0 007.214-4.329l-4.648-.074-1.82-.03h-.117c-3.644-.057-7.07-.112-8.761-.141h-.634c-.606 0-1.293-.124-1.804.11-1.498.684-2.952.568-4.542.372l-.179-.022h-.059l-.132-.014h-.077l-.128-.012h-.085l-.129-.011h-.325l-.144-.012h-.098l-.154-.012h-.1l-.175-.012h-.089l-.565-.031h-.061l-.232-.012h-2.1l-.74-.022h-2.977l-1.352-.021h-2.46l-2.505-.022h-13.361l.264-.183z" fill="#A1CECE"/><path d="M134.638 71.093c2.084-.213 3.542-2.688 2.625-4.554-.59-1.204-1.726-1.618-3.001-2.214-2.361-1.103-4.648-2.339-6.965-3.525-1.064-.545-2.032-1.265-1.662-2.609.503-1.837 1.18-3.627 1.836-5.422.145-.393.47-.769.993-.617.524.151.638.59.542 1.038-.168.764-.418 1.507-.622 2.26-1.018 3.739-1.018 3.739 2.487 5.348.249.08.493.174.73.281 2.634 1.602 7.412 2.263 7.37 6.296 2.952-3.65 5.558-6.874 8.156-10.106.425-.53.196-1.14.196-1.741.022-2.755-1.31-5.216-1.668-7.88-.075-.552-.695-1.152-.024-1.672.671-.519 1.043.197 1.545.473 1.926 1.05 4.032.84 6.101.694 1.422-.1 1.759-.567 2.678-2.231 3.739-6.468 5.294-10.23 7.941-15.388.393-.787.393-1.535-.274-2.139-.787-.696-1.69-.871-2.659-.393-.562.28-4.626 5.595-6.582 8.772-2.006 2.215-1.86 2.432-4.045 2.43-3.058 0-6.085-.168-9.078-.787-.866-.181-1.669-.342-2.515.157-2.788 1.645-5.805 2.164-9.005 1.716-1.829-.25-3.417.346-4.847 1.475-1.836 1.45-2.887 3.427-3.858 5.49-2.286 4.86-2.898 10.176-4.242 15.29-.272 1.03.112 1.862.842 2.594.73.731 1.694 1.23 2.664 1.603 2.919 1.127 5.828 2.247 8.618 3.697 1.858.956 3.6 1.88 5.723 1.664z" fill="#fff"/><path d="M137.724 36.042c.368-.16 4.465-3.148 3.412-9.762-.456-3.903-4.105-7.261-7.891-7.673-3.165-.336-8.984.984-10.344 5.432a20.025 20.025 0 00-.649 2.862c-.514 3.21 1.541 7.52 4.312 9.162 3.865 2.302 7.456 1.592 11.16-.021zm-12.253 33.967c-.221 3.673-.366 6.98.181 10.556 2.667-2.026 4.296-4.574 6.199-6.87.59-.721.321-1.25-.525-1.556-1.844-.668-3.696-1.343-5.855-2.13z" fill="#fff"/><path d="M325.963 221.69c-1.035-7.409-2.216-14.796-3.345-22.194-1.022-6.712-1.823-13.452-2.456-20.214a661.627 661.627 0 00-.691-7.021c-.116-1.117.366-1.635 1.474-1.599.348.012.695.039 1.043.051 2.509.098 3.967-.771 4.887-3.045a12.631 12.631 0 00.995-5.355c-.153-3.433-2.121-5.473-5.593-5.576-5.476-.161-10.953-.25-16.43-.342-6.058-.104-12.115-.163-18.17-.279-.016-.024-20.733-.215-23.462-.215 1.806-.907 3.993-3.578 4.896-5.276.787-1.499 5.38-4.653 4.636-22.427 0 0-2.873-27.076-12.471-51.105-3.097-7.757-8.23-16.89-12.618-24a173.595 173.595 0 00-13.211-18.466 162.11 162.11 0 00-16.854-17.767c-4.148-3.737-8.389-7.312-12.988-10.452-3.171-2.164-6.481-4.131-10.133-5.359-6.625-2.225-12.696-.439-18.499 2.849-1.169.663-1.986 1.707-2.775 2.736-2.299 2.999-3.542 6.607-4.65 10.071-.888 2.776-2.254 5.227-3.369 7.836-.498 1.16-1.167 1.424-2.451.952-2.414-.893-3.983-.44-5.246 1.485-1.663 2.534-5.878 9.374-7.183 9.384-1.575.012-3.859.105-5.398-.108-1.738-.24-3.244.069-4.861-.929.631-.653 1.106-1.711 1.334-2.449 1.033-3.344 1.143-6.81-.394-9.939-1.771-3.594-5.685-6.328-9.495-6.175-4.526.185-9.249 1.88-11.3 6.83-1.647 3.978-.644 10.687 3.916 13.632.323.208.823.376.614 1.052-3.491 1.545-5.097 4.706-6.516 8.037-1.897 4.446-2.586 9.222-3.886 13.812-.845 3.004.163 5.312 2.967 6.675 1.101.526 2.246.954 3.423 1.277 1.432.41 2.092 1.084 2.086 2.754-.016 3.738-.325 7.496.196 11.214.113.812-.281 1.314-.738 1.851a371.93 371.93 0 01-13.275 14.755c-1.474 1.55-3.11 2.361-5.259 2.416-9.822.295-19.638.802-29.462.942-4.688.067-7.386 3.045-6.666 6.62.412 2.046 1.026 3.525 3.104 3.879.77.132 1.54.25 2.312.364 2.031.301 2.072.325 2.18 2.454.249 4.88-.147 9.738-.491 14.599-.103 1.464-.479 2.811-1.39 3.848-1.863 2.127-2.597 4.668-3.196 7.316-1.43 6.335-1.01 12.467 2.165 18.229a11.65 11.65 0 011.423 5.224c.197 4.619-.394 47.085-1.264 64.468.083.73-.196 1.273-.742 1.824-.545.55-.3 1.123.514 1.306 1.498.34 2.132-.116 2.04-1.653 1.182-16.722 1.32-60.606 1.603-64.45 1.204 1.274 2.045 2.246 2.968 3.132 2.951 2.836 5.955 5.705 9.786 7.279 6.44 2.669 13.058 2.726 19.68.643 3.765-1.18 3.95-1.169 4.371 2.888.458 4.422.334 8.878.275 13.313-.155 11.839-.248 23.68-.771 35.511-.049 1.128 0 2.263.057 3.392.081 1.757.929 2.927 2.651 3.46 1.828.566 3.699.982 5.595 1.246 2.44.342 4.862-.091 7.281-.01 2.732.092 5.377-.38 7.97-1.196 2.594-.817 3.499-2.05 3.543-4.763.074-5.754-.284-11.491-.849-17.208-1.037-10.492-1.523-21.017-1.993-31.54-.177-3.982-.219-7.995.218-12 .197-1.828 1.01-2.729 2.797-3.209 8.578-2.312 16.867-5.471 25.15-8.656 2.994-1.155 6.156-1.873 9.24-2.786 1.012-.301 1.663-.159 1.753 1.12.378 5.374 1.339 10.682 1.901 16.043.788 7.533 1.378 15.083 2.085 22.624.763 8.148 1.261 16.328 1.855 24.485.258 3.557 1.016 7.082.898 10.655-.032.936.067 1.69 1.066 1.658 1.219-.037 1.209-.983 1.026-1.928-.235-1.194-.496-2.386-.644-3.592-1.633-13.23-2.027-26.559-3.312-39.826-.671-6.927-1.226-13.871-2.202-20.761-.439-3.106-.496-6.244-1.019-9.329-.235-1.387.218-2.095 1.605-2.39 20.288-5.815 36.272-5.387 43.603-5.158 6.61.196 13.002 1.156 18.851 4.444 1.18.659 4.577 1.621 5.575 2.292-.461.126-2.464-.12-2.69-.114-5.904.143-11.808-.099-17.712.064-5.302.148-10.43-.173-15.728 0-1.684.052-3.406 1.098-4.048 2.698-1.11 2.754-1.738 6.02-.974 9.008.59 2.306 1.547 2.913 3.95 2.494.932-.163 1.33.099 1.389.972.058.608.064 1.219.018 1.828-.788 7.8-1.012 15.64-1.547 23.456-.48 7.047-1.364 30.001-1.742 34.428-.063.722.073 1.621-.817 2.069-.743.374-1.893.614-1.361 1.771.411.893 1.405.299 2.143.334.344.018.692-.074 1.041-.074.96 0 1.423-.235 1.131-1.391-.627-2.483-.322-5.019-.147-7.533.14-1.997.852-20.761 1.358-28.148.59-8.511.885-17.039 1.686-25.538.197-2.187.16-2.246 2.486-2.274 4.353-.047 8.708-.079 13.061-.018 3.403.05 20.27-.043 25.306.034 5.835.088 11.672.075 17.515.077 1.14 0 1.917.057 2.112 1.573 1.019 7.95 1.771 15.924 2.399 23.911.525 6.598 1.021 13.201 1.623 19.791.591 6.413 1.307 12.815 1.933 19.224.075.75.061 1.484 1.062 1.366.858-.101.707-.758.638-1.403-.502-4.761-.968-9.526-1.448-14.288-.229-2.248-.461-4.498-.697-6.748-.112-1.063.266-1.73 1.421-1.635 2.285.197 15.11-.466 19.286-.702 1.895-.107 2.007.011 2.344 1.926a2637.749 2637.749 0 013.463 20.066c.162.938.012 1.926.394 2.831.132.307.26.669.687.673.496 0 .787-.317.996-.716.208-.4.133-.815.033-1.257-1.492-6.62-2.734-13.295-3.603-20.016-1.264-9.756-2.559-19.506-4.121-29.218-.636-3.948-1.419-7.869-2.031-11.829-.459-2.951-.215-3.203 2.706-3.134 4.091.096 8.169.578 12.272.427.787-.03 1.574.129 2.348.09 1.253-.063 1.706.61 1.789 1.719.025.349.072.693.116 1.039 1.116 9.069 1.903 18.176 3.278 27.216 1.772 11.607 3.48 23.243 5.221 34.864.043.337.127.668.252.984a.843.843 0 00.833.521.762.762 0 00.698-.667c.078-.421.082-.853.014-1.276-.874-4.523-1.588-9.085-2.226-13.655zM122.252 26.911a19.75 19.75 0 01.649-2.862c1.36-4.454 7.179-5.768 10.344-5.432 3.786.394 7.435 3.76 7.891 7.673 1.053 6.608-3.044 9.602-3.412 9.761-3.704 1.614-7.295 2.324-11.161.032-2.77-1.653-4.825-5.963-4.311-9.172zm-1.953 38.815c-.97-.374-1.907-.842-2.664-1.603-.758-.762-1.114-1.564-.842-2.593 1.344-5.115 1.956-10.427 4.242-15.29.971-2.064 2.022-4.04 3.858-5.49 1.43-1.13 3.018-1.726 4.847-1.476 3.2.438 6.217-.071 9.005-1.716.846-.5 1.649-.338 2.515-.157 2.993.625 6.02.787 9.078.787 2.185 0 2.039-.215 4.045-2.43 1.956-3.177 6.02-8.493 6.582-8.772.969-.478 1.882-.303 2.659.393.677.604.677 1.354.274 2.139-2.647 5.168-4.21 8.92-7.941 15.388-.919 1.665-1.256 2.13-2.678 2.231-2.067.146-4.173.356-6.101-.694-.502-.274-.858-1.002-1.545-.472-.687.529-.051 1.119.024 1.672.358 2.663 1.69 5.115 1.668 7.879 0 .602.225 1.212-.196 1.74-2.598 3.233-5.208 6.457-8.156 10.107.042-4.033-4.736-4.694-7.37-6.296a6.811 6.811 0 00-.73-.28c-3.505-1.61-3.505-1.612-2.487-5.348.197-.754.454-1.497.622-2.26.096-.447-.032-.892-.542-1.04-.509-.147-.848.22-.993.619-.65 1.794-1.333 3.584-1.836 5.421-.37 1.344.59 2.064 1.662 2.61 2.317 1.18 4.609 2.42 6.965 3.525 1.275.59 2.415 1.009 3.001 2.213.909 1.867-.541 4.341-2.625 4.554-2.123.216-3.865-.708-5.721-1.67-2.783-1.444-5.701-2.564-8.62-3.69zm32.324-16.29c-1.053 1.787-2.031 3.318-3.479 4.93-.547-1.998-.984-3.623-1.529-5.582l5.008.653zm-20.78 24.26c-1.903 2.296-3.532 4.843-6.199 6.87-.547-3.577-.393-6.886-.181-10.557 2.165.787 4.005 1.466 5.855 2.13.854.315 1.132.835.525 1.557zM73.82 111.27c-1.19 0-2.578.124-3.24-1.18-.741-1.468-.647-3.345.288-4.669.984-1.377 2.452-1.517 4.243-1.564 6.333-.161 12.66-.57 18.99-.787 2.675-.09 5.356-.053 8.314-.031h2.627c-2.525 2.347-4.635 4.281-6.711 6.248a6.859 6.859 0 01-4.945 1.967h-2.384c-5.724.002-11.45.03-17.174.01l-.008.006zm20.058 1.745c-5.548 5.339-11.523 10.466-16.417 15.738.313-3.082.28-9.319.319-13.135.023-2.361.086-2.526 2.49-2.575 4.342-.097 8.672-.034 13.615-.034l-.008.006zm3.493 63.622c-4.5-.36-8.335-2.107-11.91-4.764a26.375 26.375 0 01-.845-.653l-.067-.054a27.371 27.371 0 01-.873-.731 28.518 28.518 0 01-.727-.654l-.11-.102a35.445 35.445 0 01-.689-.667l-.108-.108a33.55 33.55 0 01-.663-.689l-.096-.106a31.857 31.857 0 01-1.362-1.57l-.04-.049c-.216-.262-.43-.534-.64-.814-.208-.273-.411-.55-.61-.831l-.046-.063c-.192-.268-.379-.54-.561-.814l-.067-.096c-.18-.271-.356-.541-.528-.813l-.07-.114a35.372 35.372 0 01-.502-.822c-.024-.04-.048-.077-.07-.116a47 47 0 01-.485-.842l-.06-.107a45.095 45.095 0 01-.472-.871l-.041-.077c-.161-.305-.319-.61-.472-.919l-.01-.021c-.162-.323-.32-.651-.474-.984-.174-.364-.34-.73-.506-1.098-3.001-6.7-2.992-13.67.26-20.159 2.635-5.26 6.474-9.836 11.071-13.635.878.344.579 1.047.577 1.586a199.055 199.055 0 01-.142 6.26c-.238 6.415 1.888 12.095 5.235 17.454 2.649 4.239 5.67 8.182 8.856 11.988.63.752 1.266 1.497 1.909 2.237l.035.041c.643.741 1.291 1.479 1.943 2.214 2.969 3.344 6.659 5.772 10.79 8.14-5.703 2.471-11.353 3.9-17.422 3.418l-.008.005zm41.144 52.474c0 .435 0 .872-.024 1.306-.128 2.672-.24 2.951-2.84 3.575-5.642 1.355-11.357 1.66-17.083.614-3.163-.579-3.726-1.208-3.564-4.348.525-10.255.135-20.527.59-30.786.262-5.991 0-12.001-.049-18.007a13.601 13.601 0 00-.811-4.611c-.384-1.041-.213-1.586.943-1.891 1.68-.44 3.292-1.147 4.977-1.56 4.571-1.121 8.895-3.01 13.423-4.253.504-.138.984-.394 1.61-.136v7.977c-.055 8.187.732 16.338 1.059 24.51.368 9.213 1.82 18.361 1.777 27.605l-.008.006zm87.84-81.446c-6.705-.419-13.4-.197-20.093.262-16.58.82-41.026 8.656-43.134 9.458a337.283 337.283 0 01-21.193 7.331 869.856 869.856 0 00-18.349 5.959c-4.583 1.538-8.632 1.18-12.636-1.968a44.566 44.566 0 01-1.163-.94c-.101-.083-.197-.169-.296-.252-.283-.24-.566-.478-.842-.722l-.293-.264a52.85 52.85 0 01-.821-.743l-.25-.236a45.73 45.73 0 01-.84-.805c-.067-.063-.13-.128-.197-.197-.295-.291-.59-.59-.874-.877-.047-.047-.09-.094-.135-.142a58.798 58.798 0 01-.912-.956l-.08-.086a76.091 76.091 0 01-.945-1.035l-.033-.038a91.676 91.676 0 01-.967-1.101c-2.361-2.739-4.526-5.633-6.645-8.593-1.463-2.048-2.935-4.094-4.19-6.296-2.755-4.835-3.881-10.007-3.708-15.52.061-1.912.108-3.828.057-5.74-.073-2.697 1.256-4.655 3.212-6.264 5.313-4.368 10.314-9.091 15.421-13.695 5.76-5.193 10.867-11 16.001-16.787 3.921-4.416 7.809-8.852 11.344-13.601.346-.463.626-1.106 1.32-1.18 2.029-.24 3.149-1.783 4.302-3.148 3.716-4.378 12.751-15.859 13.595-17.177 4.969-7.765 9.985-15.502 13.37-24.147.394-1.023.752-2.118 1.884-3.122 0 1.828-.012 3.29 0 4.75.072 8.484 1.422 16.816 3.259 25.063 2.119 9.52 5.012 18.83 8.312 27.998a78.478 78.478 0 007.789 15.63c2.476 3.88 4.765 7.87 7.447 11.627.315.438.632.875.951 1.311a91.773 91.773 0 001.257 1.697c.362.482.726.961 1.092 1.438l.197.262c.343.445.688.888 1.035 1.33.101.124.197.25.298.376.322.407.647.814.974 1.217l.407.504c.297.366.59.73.895 1.094.182.22.364.439.548.657.261.315.523.629.787.944.263.315.506.59.757.891.197.237.406.477.61.713.466.539.935 1.076 1.408 1.613 5.022 5.705 10.627 10.783 16.137 15.957 2.464 2.313 5.274 4.261 7.937 6.36.535.423 1.206.682 1.653 1.574a507.62 507.62 0 00-5.652-.398l-.008.014zm-44.754-69.483c.183-.067.366-.136.548-.197l.183-.073.362-.149.21-.09.329-.146.216-.098.323-.154c.152-.07.303-.145.453-.218l.22-.11.366-.185.122-.065.417-.217c1.793-.94 3.543-1.945 5.432-2.634 4.633-1.696 9.165-3.767 14.051-4.721.929-.183 1.899-.162 2.852-.235a12.04 12.04 0 011.153-.04c3.603.052 6.394 1.835 8.49 4.756 3.56 4.96 6.522 10.254 8.616 16.04.126.35.232.692.324 1.032v.036c0 .011.018.059.026.086.018.071.033.142.049.213l.053.222.059.28c.016.084.032.169.046.253.013.085.029.163.041.244.023.155.043.311.059.462 0 .067.012.132.018.197 0 .103.015.197.021.307v.683c0 .161 0 .32-.016.48a.065.065 0 010 .02c0 .112-.015.224-.025.334a.285.285 0 000 .041l-.039.319a.436.436 0 010 .051c-.014.104-.03.209-.048.31l-.011.056c-.018.102-.038.197-.06.305l-.011.055c-.022.102-.046.197-.071.303 0 .016 0 .031-.014.05a5.818 5.818 0 01-.083.306v.03c-.086.293-.196.59-.297.865-.1.276-.218.525-.342.787l-.012.026-.126.253-.047.093-.12.222-.067.12a3.6 3.6 0 01-.118.197l-.079.134-.118.196-.093.144c-.037.061-.078.122-.118.183l-.102.153-.12.176c-.035.053-.075.106-.112.159l-.12.165c-.04.057-.083.112-.124.167l-.12.16-.136.173c-.039.049-.077.1-.118.149-.041.05-.1.124-.152.197l-.112.136-.179.21-.094.11c-.093.107-.188.213-.284.319-3.263 3.6-6.551 7.179-10.07 10.537-2.393 2.284-5.205 4.076-7.543 6.431-.809.813-1.466.156-1.968-.454-1.47-1.83-2.92-3.675-4.312-5.566A186.511 186.511 0 01186 92.352c-2.104-3.805-3.712-7.87-5.29-11.926-.433-1.159-.272-1.832.891-2.243zm64.239 75.049c-8.96-3.508-16.439-9.247-23.543-15.613-3.958-3.541-7.545-7.462-11.509-10.997-1.609-1.438-2.875-3.26-4.329-4.869-.699-.769-.579-1.364.179-1.968.411-.322.787-.688 1.2-1.009.414-.32.85-.669 1.272-1.009l.222-.183c.354-.289.708-.59 1.059-.875l.141-.122c.394-.323.762-.65 1.14-.984l.041-.037c.408-.357.812-.716 1.211-1.078 4.353-3.945 8.338-8.263 12.201-12.686 2.824-3.234 3.896-7.037 2.726-11.41-1.171-4.373-3.482-8.127-5.511-12.057-1.167-2.255-2.609-4.329-4.107-6.341-2.968-3.994-7.191-5.341-11.973-4.983a18.209 18.209 0 00-5.335 1.196c-4.133 1.635-8.496 2.73-12.522 4.627-.328.153-.656.313-.984.48h-.012c-.158.083-.313.163-.468.248l-.044.022-.435.24-.084.047-.394.224-.145.088-.325.197-.238.152-.229.145c-.155.1-.311.197-.464.31-.151.087-.31.158-.476.212-1.289.525-2.649 1.554-3.905 1.278-1.511-.332-1.242-2.288-1.714-3.517-2.47-6.433-3.936-13.153-5.51-19.848-1.47-6.296-2.271-12.674-2.848-19.083a41.06 41.06 0 01.341-9.624l.153-1.049.024-.155c.045-.31.092-.62.14-.929 0-.055.017-.108.025-.163.049-.315.1-.63.152-.944 0-.041.013-.083.019-.124.051-.307.105-.612.158-.917l.023-.138c.608-3.405 1.443-6.751 3.005-9.919 1.53-3.102 3.659-5.376 7.097-6.443 3.166-.983 6.213-2.083 9.661-1.74a20.02 20.02 0 018.354 2.677c6.557 3.848 12.528 8.408 18.18 13.525a192.498 192.498 0 0113.756 13.919c5.608 6.222 10.361 13.088 14.685 20.263 4.359 7.23 10.515 16.047 14.236 27.2 3.046 9.132 5.41 16.222 7.325 24.304l.029.12c.116.493.23.983.345 1.491l.025.116c.118.527.236 1.058.35 1.597l.012.052c.042.196.081.393.122.578 0 .045.02.09.028.136.037.175.075.352.11.529l.041.197.101.503c.016.075.031.152.045.226.033.164.067.329.098.494l.048.244.094.486c.016.087.034.173.049.262.032.159.061.319.091.48.018.09.033.183.051.273l.089.48c.017.095.033.197.051.284l.086.48c.018.098.036.196.051.295.03.161.058.32.085.48l.051.297.085.492.047.285.085.511c.014.077.025.154.037.231.065.393.128.786.197 1.192 0 .059.018.116.028.175l.07.468c.02.122.04.244.057.368.018.124.046.293.067.439.022.145.042.277.061.417.02.139.044.283.063.425l.065.438c.02.144.042.288.061.433l.063.443c.022.147.04.289.061.435.022.145.042.306.063.46l.059.431.063.478.057.429c.02.141.044.328.063.493.02.166.038.29.057.435.02.146.042.335.063.504.022.169.038.287.055.433l.065.531.052.421c.023.187.045.374.066.562l.05.41.069.59.045.393c.025.231.053.463.079.697.011.102.023.196.033.307.039.338.077.678.114 1.023.197 1.733-.244 10.808-.998 13.493-.942 3.368-2.296 6.555-4.451 9.359-1.254 1.631-2.836 2.557-4.806 3.309-5.67 2.199-10.548-.205-15.519-2.15zm54.315 39.676c.648 4.562 1.378 9.116 1.968 13.686.286 2.188.197 2.188-1.895 2.42-3.52.368-7.058.546-10.597.533-1.842-.196-3.57.15-5.314.213-.521.018-1.043.132-1.562.12-3.149-.077-3.312-.272-3.543-3.38-.348-4.686-.769-9.366-1.104-14.052-.169-2.385-.039-2.4 2.389-2.558 4.861-.334 9.746.065 14.599-.498a7.27 7.27 0 011.303 0c3.312.209 3.288.215 3.758 3.516h-.002zm-1.1-7.543c.266 2.241.233 2.192-2.137 2.247-5.632.131-11.264.296-16.897.494-2.3.079-2.338.126-2.582-2.099-.49-4.484-.964-8.971-1.377-13.463-.185-1.994-.105-2.063 1.889-2.095 2.777-.047 5.557-.011 7.598-.011 3.604-.097 6.467-.166 9.334-.014.967.053 1.728.222 1.831 1.353.409 4.594 1.802 9.018 2.343 13.588h-.002zm-4.148-16.671c-13.416.132-26.821-.59-40.239-.491-4.782.037-26.194.21-32.125.033-4.001-.118-8.008 0-12.005-.018-1.757-.011-2.18-.366-2.361-2.042-.225-2.02.295-4.343.759-6.271.274-1.137 1.219-2.416 2.539-2.404.526 0 8.826-.113 18.271-.152h12.227l2.505.022h2.45l1.352.021h2.977l.74.022h2.1l.232.012h.061l.565.031h.089l.175.012h.1l.154.012h.098l.144.012h.325l.13.011h.084l.128.012h.077l.132.014h.059l.179.022c1.6.196 3.044.313 4.542-.372.512-.234 1.198-.12 1.804-.11h.634c1.691.029 5.117.084 8.762.141h.116l1.82.03c5.571.088 11.021.177 11.009.185h.177c4.955.065 9.913.084 14.868.326 4.329.211 8.684.321 13.034.197 2.434-.067 4.874.085 7.311.144.264.006.527.032.787.076 3.987.675 5.182 2.495 4.203 6.422-.147.59-.352 1.164-.533 1.745-.47 1.503-1.377 2.079-3.064 2.187-9.133.876-18.259.083-27.39.171h-.002z"/><path d="M112.91 68.567c-.209-.71-.217-.984-.357-1.18-1.8-2.328-1.968-4.895-1.342-7.673.274-1.202.787-2.296 1.108-3.466a.883.883 0 00-.144-.715c-.287-.316-.649-.132-.895.103a3.526 3.526 0 00-.817.995c-1.054 2.347-1.666 4.806-1.149 7.364.384 1.886 1.204 3.584 3.596 4.572zm218.359 167.492c-.549.08-1.058.315-.944.983.075.449.47.839.913.787 2.637-.299 5.386.419 7.913-1.027-2.604-.814-5.213-1.135-7.882-.743zm-116.659-2.131c-.027.62.502.87 1.061.919 1.639.145 3.285.521 4.92.275 1.22-.185 2.558-.128 4.149-1.436-3.346-.236-6.083-.425-8.821-.628-.675-.049-1.273.095-1.309.87zm-111.517.38a.852.852 0 00.762.911c2.629.318 5.262.533 7.872-.473-2.48-1.463-5.247-.739-7.839-1.27-.47-.097-.789.334-.795.832zm193.904.871c-.536.034-1.118.236-1.152.832-.033.596.496.815 1.067.86 1.377.108 2.743.313 4.117.334.984.014 2.088.233 3.149-.934-2.484-.651-4.765-1.235-7.181-1.092zm-149.667-1.587c-.868-.032-1.738 0-2.606 0v.251c-.954 0-1.909-.029-2.859.012-.532.024-1.091.197-1.083.864 0 .622.461.958 1.039.919 1.907-.134 3.81-.309 5.707-.506.461-.047.817-.344.758-.868-.059-.523-.523-.657-.956-.672zm26.976-1.59c-.557.038-1.076.209-1.011.885.059.612.555.856 1.119.831 1.732-.079 3.444.116 5.162.267.234.022.518-.069.61-.61-1.647-1.55-3.751-1.509-5.88-1.373zm-106.126-.035c-1.771-.533-3.596-.266-5.39-.455a.748.748 0 00-.85.766c-.022.478.289.786.734.93.85.27 1.712 0 2.568-.041.946 0 1.893.017 2.838-.01.336 0 .704-.12.738-.551.033-.431-.307-.541-.638-.639zm89.459-210.544c1.106-.842 2.208-1.675 3.708-1.641.232 0 .521-.08.541-.443 0-.53-.394-.757-.811-.83-1.846-.332-3.101.744-4.312 1.887-.259.246-.47.59-.248.912.286.422.725.418 1.122.115zm73.98 60.751c.197-2.233-.281-3.803-.787-5.376-.95-3.022-2.696-5.629-4.294-8.314-1.132-1.9-2.724-3.376-4.416-4.753-.51-.415-1.102-.622-1.596.021-.569.744.047 1.132.573 1.411 1.271.67 2.21 1.698 3.064 2.796 2.694 3.452 4.967 7.14 6.138 11.41.26 1.01.708 1.96 1.318 2.805zm-.035-15.399c1.029 1.148 1.057 2.771 1.867 4.294 1.071-3.008-.82-6.606-4.304-8.233.382 1.904 1.488 2.884 2.437 3.939z"/><path d="M127.976 89.595c.412-.299 21.04-20.241 33.456-28.97 2.733-1.92 5.443-9.05 4.162-14.084-.189-.775-44.663 48.177-37.618 43.054z" fill="#F7E1A1"/><path d="M186.415 7.336c-5.313 1.987 3.1 2.847 14.477 10.403 13.272 8.806 30.334 24.32 30.771 24.32.801 0-30.041-40.408-45.248-34.723z" fill="#FFF2C7"/><path d="M248.725 104.812c.787-3.147 2.362-5.823 4.971-7.816.494-.375.683-.822.563-1.396-.502-2.414-1.246-4.68-3.391-6.227-2.649-1.908-6.535-2.406-9.32-.901-3.133 1.694-4.568 4.666-4.562 8.487 0 5.636 6.455 9.374 10.59 8.768.596-.086.992-.291 1.149-.915zm22.057-6.795c2.464 1.77 5.993 5.115 8.484 6.689.411-3.789-.834-5.337-8.484-6.689zm32.309 26.767c-2.125.225-3.936 1.181-5.675 2.361-2.632 1.818-4.184 1.444-5.707-1.275a67.115 67.115 0 01-.524-.948c-4.422-8.036-9.755-15.398-16.403-21.74-3.633-3.465-7.923-5.977-13.099-5.957-1.18 0-3.345-.394-6.398.77-3.493 1.868-4.723 4.897-4.957 8.724-.238 3.779-.242 7.582-.163 11.369.033 1.599-.374 2.754-1.6 3.779a11.401 11.401 0 01-2.222 1.515c-1.688.83-3.426 1.574-5.052 2.516-1.541.893-2.135 2.327-1.625 3.327.631 1.241 2.438 1.955 3.967 1.56a4.474 4.474 0 001.029-.329c2.309-1.271 4.873-1.906 7.282-2.925 1.848-.787 3.515-1.826 5.217-2.851 1.228-.738 1.655-1.701 1.84-3.067.346-2.557-.051-5.034-.307-7.54-.081-.787-.5-1.873.628-1.968.984-.08 1.1.954 1.055 1.832-.028.537.106 1.08.092 1.617.006 1.102.122 2.202.344 3.281 4.265 2.347 4.46 3.53 5.904 5.812 2.576 4.078 2.393 5.717 2.33 11.28.079 7.191.044 17.078.065 19.154a2.273 2.273 0 001.626 2.209c1.133.356 2.834.59 3.902-.749.732-.823 1.341-7.317 1.563-12.623.167-8.065.142-10.111.614-17.743-.126-1.015.653-1.693 1.539-1.229 3.072 1.611 5.638 6.728 9.606 10.328 2.784 3.604 7.799.767 9.643-.065 10.8-6.236 9.391-7.297 8.899-8.782-.419-1.218-1.449-1.857-3.413-1.643z" fill="#fff"/><path d="M303.9 122.876c-1.09-.029-6.413 2.117-7.872 3.23-1.228.935-1.828.728-2.694-.519-.286-.46-.54-.94-.76-1.436-2.558-5.115-5.787-9.785-9.353-14.23-1.295-1.607-2.01-3.236-1.99-5.4.051-4.414-1.474-5.888-5.78-7.204-5.64-1.725-11.432-1.346-17.174-1.621-2.25-.106-2.265.057-3.005-2.235-.724-2.237-1.61-3.966-3.787-5.444-6.98-4.739-13.659-.373-15.611 4.638-1.695 4.345.094 9.346 3.727 12.315 2.033 1.662 4.613 2.331 7.246 2.695 1.377.197 1.564.746 1.521 1.91-.077 2.064-.057 4.132 0 6.199.102 3.956-.557 5.009-4.184 6.62a32.825 32.825 0 00-3.877 1.926c-2.025 1.243-3.087 3.708-2.414 5.251 1.007 2.304 3.589 3.771 6.006 2.951 4.083-1.399 8.265-2.603 12.004-4.863 4.068-2.461 4.058-2.477 4.985-6.797.559-.118.788.338 1.087.643 2.027 2.022 2.196 1.603 3.684 3.954 1.574 2.497 1.816 5.115 1.672 7.976-.307 6.128 0 15.374-.045 21.518-.018 2.308 1.427 3.563 2.966 3.952 2.147.543 4.581.287 5.868-1.523.878-1.233.872-2.494 1.073-3.934 2.115-19.136-.173-29.372 2.265-25.182 2.039 2.395 4.005 4.409 5.624 6.532 3.1 4.31 4.23 4.741 9.706 3.421.864-.208 7.939-3.874 12.153-7.454 1.592-1.121 1.771-3.173 1.18-5.078-.539-1.719-2.113-2.752-4.221-2.811zm-24.635-18.172c-2.491-1.564-6.02-4.918-8.484-6.689 7.65 1.354 8.895 2.902 8.484 6.689zm-31.684 1.023c-4.133.606-10.59-3.132-10.59-8.768 0-3.82 1.429-6.793 4.562-8.487 2.785-1.505 6.671-1.007 9.32.901 2.145 1.546 2.889 3.813 3.391 6.227.12.574-.069 1.02-.563 1.396-2.613 1.993-4.174 4.669-4.971 7.816-.163.624-.559.829-1.155.915h.006zm50.01 29.484c-1.836.832-6.851 3.669-9.643.065-3.968-3.6-6.534-8.717-9.606-10.328-.885-.465-1.665.214-1.539 1.229-.472 7.631-.446 9.679-.614 17.743-.222 5.312-.83 11.804-1.562 12.622-1.069 1.332-2.769 1.106-3.903.75a2.271 2.271 0 01-1.625-2.209c-.022-2.076.013-11.963-.065-19.154.063-5.563.246-7.202-2.33-11.28-1.441-2.282-1.636-3.465-5.904-5.812a16.75 16.75 0 01-.345-3.281c.014-.537-.12-1.08-.092-1.617.045-.878-.073-1.913-1.055-1.832-1.128.093-.708 1.18-.628 1.967.256 2.507.654 4.991.307 7.541-.185 1.365-.612 2.329-1.84 3.067-1.702 1.025-3.369 2.068-5.217 2.851-2.411 1.019-4.975 1.654-7.281 2.925a4.497 4.497 0 01-1.03.329c-1.529.393-3.345-.319-3.967-1.56-.51-1 .085-2.434 1.626-3.327 1.625-.943 3.363-1.686 5.051-2.516a11.446 11.446 0 002.222-1.515c1.226-1.019 1.634-2.18 1.6-3.779-.079-3.787-.075-7.59.163-11.369.241-3.827 1.465-6.856 4.958-8.723 3.056-1.165 5.227-.768 6.398-.772 5.175-.02 9.466 2.493 13.098 5.957 6.648 6.343 11.981 13.705 16.403 21.741.174.317.347.634.524.948 1.527 2.719 3.08 3.093 5.707 1.275 1.734-1.198 3.542-2.146 5.675-2.361 1.968-.206 2.994.433 3.399 1.655.516 1.475 1.915 2.536-8.885 8.77zm11.294-18.174c-.624-.222-1.277-.464-1.68.197-.538.893.271 1.253.85 1.645.295.203.61.376.94.517 2.244.944 3.065 2.863 3.49 5.058.116.59-.164 1.257.368 1.94.62-.169.787-.559.885-1.017.888-3.968-2.332-7.441-4.853-8.34zm-22.373-16.429c.018.11.275.179.541.343 1.01-1.55.787-3.052-.197-4.444-.877-1.25-2.011-2.296-3.192-3.272-.502-.415-1.072-.84-1.627-.16-.63.774-.122 1.4.531 1.757 2.308 1.271 3.525 3.237 3.944 5.776z"/><path d="M269.11 202.79c-1.811 1.062-3.8 1.377-5.847 1.534-3.724.305-8.449-2.437-8.439-8.03.528-7.057 1.968-7.159 5.526-9.02 4.802-1.395 8.602-.152 10.92 2.536a8.565 8.565 0 01.566 10.446 8.577 8.577 0 01-2.726 2.534zm-16.152 4.56c2.117-1.938 4.646-2.039 7.334-1.795 2.596.236 5.086.333 7.548-.489 2.804-.935 5.187-.197 7.32 1.668 1.472 1.286 2.94 2.581 4.359 3.934a69.016 69.016 0 016.298 6.668c.838 1.038 1.415 2.15.63 3.497-2.362 4.059-4.584 7.807-8.309 10.787-1.575 1.257-2.883 1.544-4.182.262-2.303-2.27 2.836-6.966 3.967-8.983 1.575-2.784.467-5.327-2.601-5.965-.996-.196-1.496.11-1.61 1.041-.073.59.197 6.571.315 7.141 0 0 .043.673-1.825 3.4-.995 1.452-.682 3.256.723 4.582.757.716.572 1.377.61 2.36.258 6.801.561 13.6.85 20.401h.037c0 .937.197 5.094-2.7 5.097-2.141.164-3.566-.411-3.69-2.901 0-3.634-.675-15.865-1.377-19.815-.321-1.798-1.494-3.102-3.007-3.313-1.421-.197-2.348.64-3.135 2.774-.776 2.097-1.018 4.295-1.252 6.492-.411 3.893-.769 7.791-1.202 11.682-.132 1.18-.329 2.361-.925 3.429-.738 1.308-2 1.668-3.718 1.206-3.709-.378-2.519-5.328-.805-24.16.099-1.525.172-3.028 1.514-4.171 1.466-3.722-.711-5.902-.711-5.902.36-1.485 1.925-10.057.414-10.002-2.053-.137-5.707 3.046-5.784 5.086-.032.983.529 1.792 1.051 2.557.667.984 3.725 4.342 3.918 5.481.132 2.829-3.043 2.497-3.542 2.164-3.318-2.19-5.379-5.705-7.121-9.173-.759-1.511-.393-2.782.62-3.994 3.08-3.659 6.467-7.824 9.988-11.046z" fill="#fff"/><path d="M241.57 217.22c-1.435 1.415-1.667 3.238-.835 5.2 1.726 4.074 4.33 7.462 7.705 10.295a4.533 4.533 0 002.889.836s-1.494 14.074-1.984 22.657c-.533 6.581 4.778 6.311 6.207 6.171 2.145-.208 3.458-1.493 3.786-3.844.425-3.027.654-6.083.949-9.128.303-3.128.393-6.282 1.029-9.372a9.904 9.904 0 01.787-2.414c.571-1.147 1.679-1.237 2.419-.214.541.772.853 1.681.901 2.622.146 2.034.447 4.07.419 6.099-.055 3.92.709 7.79.612 11.711-.019.751.056 5.253 5.117 4.696 2.336-.348 4.879-1.643 4.755-4.035-.303-5.859-.545-11.719-.821-17.578-.069-1.444-.112-2.892-.283-4.328-.158-1.294.053-2.144 1.588-2.219.88-.043 1.574-.59 2.198-1.194 3.621-3.402 6.618-7.279 9.151-11.552.825-1.389.787-2.656-.059-4.059-1.574-2.6-3.952-4.436-5.979-6.598-1.621-1.731-3.491-3.226-5.187-4.891-1.358-1.334-3.096-2.014-5.068-3 1.785-1.979 2.805-3.95 3.102-6.331.62-4.936-1.279-7.475-5.314-10.499-2.495-1.873-11.526-1.722-14.529 2.811-2.529 3.421-2.696 10.045 1.433 14.623-6.243 3.118-10.193 8.802-14.988 13.535zm27.539-14.43c-1.81 1.062-3.8 1.377-5.847 1.534-3.723.305-8.448-2.437-8.438-8.03.527-7.057 1.968-7.159 5.526-9.02 4.802-1.395 8.602-.152 10.92 2.536a8.562 8.562 0 01-2.161 12.98zm-26.123 15.603c3.065-3.656 6.451-7.82 9.972-11.043 2.118-1.938 4.646-2.038 7.335-1.794 2.595.236 5.085.332 7.547-.49 2.804-.934 5.187-.197 7.321 1.668 1.472 1.287 2.94 2.582 4.359 3.935a69.235 69.235 0 016.297 6.667c.839 1.039 1.415 2.15.63 3.498-2.362 4.059-4.583 7.806-8.309 10.787-1.574 1.257-2.883 1.544-4.182.261-2.302-2.27 2.836-6.966 3.968-8.982 1.574-2.784.466-5.328-2.602-5.965-.996-.197-1.496.11-1.61 1.041-.073.59.197 6.57.315 7.141 0 0 .043.673-1.824 3.399-.996 1.452-.683 3.256.722 4.582.758.716.573 1.377.61 2.361.258 6.801.561 13.6.85 20.401h.038c0 .936.196 5.093-2.7 5.097-2.141.163-3.566-.411-3.69-2.902 0-3.633-.675-15.864-1.378-19.814-.321-1.798-1.494-3.103-3.007-3.313-1.421-.197-2.348.639-3.135 2.774-.775 2.097-1.017 4.294-1.251 6.492-.412 3.893-.77 7.79-1.203 11.682-.132 1.18-.329 2.36-.925 3.429-.738 1.308-1.999 1.668-3.717 1.205-3.71-.377-2.519-5.327-.805-24.16.098-1.525.171-3.028 1.513-4.171 1.466-3.722-.71-5.901-.71-5.901.36-1.486 1.924-10.057.413-10.002-2.053-.138-5.707 3.045-5.784 5.085-.031.984.53 1.792 1.051 2.558.667.983 3.725 4.342 3.918 5.481.132 2.829-3.042 2.496-3.542 2.164-3.318-2.19-5.379-5.705-7.12-9.174-.744-1.515-.38-2.782.635-3.997zm9.279 6.714c-3.345-2.939-3.314-5.764.557-6.689 0 1.977-.326 3.988-.557 6.699v-.01zm23.043-6.392c2.228.88 2.362 2.361.323 4.226-.301-1.432-.63-2.786-.323-4.226zm-38.995-7.458c.59.364.293.863 0 1.298-2.102 3.057-1.679 6.236-.458 9.455.196.535.616 1.033.153 1.908-1.269-1.981-2.279-3.901-2.458-6.13-.171-2.164.197-4.23 1.5-6.04.309-.43.728-.822 1.263-.491zm53.9 50.876c.034.512-.631.704-1.161.769-2.737.335-5.463.272-8.747-.159 3.137-.97 5.862-.842 8.501-1.275.579-.094 1.358-.098 1.407.665zm-43.218.856c-2.164.972-4.225.393-6.236.242 2.308-1.129 4.542-1.196 6.236-.242z"/><path d="M208.882 201.885c-3.027-1.488-6.542-14.067 4.311-15.847 7.961-1.43 11.094 5.184 11.255 8.904.171 3.946-3.692 8.747-7.46 9.095-2.687.246-5.934-.47-8.106-2.152z" fill="#fff"/><path d="M197.699 186.034c1.772-.625 3.387.282 3.33 2.139-.045 1.457-.334 2.909-.346 4.365-.028 3.714.525 7.151 4.723 8.595.5.173.941.563 1.36.911 2.991 2.483 6.364 3.864 10.31 3.577.911-.067 1.539.22 2.055 1.011 2.558 3.923 4.742 6.757 5.533 11.444.443 2.608 1.069 6.46 1.445 9.079a15.793 15.793 0 01-.065 5.447c-.175.862-.478 1.987-1.622 1.843-.887-.112-.568-1.18-.73-1.843-.108-.437-1.064-8.941-1.344-12.754a5.316 5.316 0 00-.374-1.306c-.12-.346-.315-.706-.732-.685-.608.032-.694.543-.651.984.252 2.628.448 5.262.689 7.887.836 9.159 2.385 18.246 2.81 27.444.044.544.044 1.092 0 1.636-.248 2.131-1.5 2.361-3.672 2.318-1.356-.443-1.713-.443-2.179-2.737-.996-4.918-2.493-18.665-2.755-20.19-.258-1.477-.984-2.754-2.73-2.766-1.548-.126-2.406.244-2.973 2.361-.219.792-.37 1.602-.453 2.419-.25 2.633-.872 14.476-1.425 18.007-.509 3.238-2.202 3.541-5.055 2.831-1.435-.197-1.341-2.308-1.39-3.299-.212-4.293.368-8.556.504-12.839.262-8.195.738-16.383 1.132-24.575.216-4.503-1.193-8.385-4.279-11.706-2.434-2.618-4.548-3.865-4.481-8.951-.157-2.905.496-5.311 1.167-7.694.327-1.182.937-2.51 2.198-2.953z" fill="#fff"/><path d="M194.839 186.431c-2.183 4.667-2.346 9.186-1.494 14.265.279 1.67 1.155 3.063 2.34 4.242 4.318 4.294 5.872 7.623 5.538 13.541-.394 6.999-.658 15.966-1.077 22.97-.283 4.721-.45 9.994-.752 14.719-.104 1.637 1.839 3.411 3.765 3.49 3.007.394 5.904.59 6.449-2.719.252-1.528.862-15.345 1.712-20.656.185-1.151-.082-2.141 1.427-2.107.787.196.807.942 1.116 2.091.212.787 2.781 19.364 3.172 20.794.321 1.181 1.317 2.292 2.559 2.461 2.676.168 6.887.502 6.364-5.034-.524-5.536-1.049-11.066-1.637-16.592-.101-.96-.016-1.472 1.039-1.788 2.021-.608 2.721-2.088 2.694-4.197-.069-5.311-.903-10.525-2.086-15.667-.654-2.837-2.092-5.436-3.859-7.783a20.368 20.368 0 01-1.278-2.077c-.678-1.159-.659-1.507.498-2.316 1.648-1.151 3.074-3.094 4.021-4.918 2.228-4.275.181-11.698-5.144-13.771-5.993-2.448-10.799-1.377-13.625 2.38-2.04 2.43-3.516 7.555-1.426 11.243-1.547-.35-1.821-1.29-2.228-2.606-.809-2.615-.394-5.233-.236-7.87.08-1.306.354-2.754-1.248-3.672-4.534-1.85-6.331.993-6.604 1.577zm22.149 17.606c-2.688.246-5.933-.471-8.106-2.153-3.027-1.487-6.542-14.066 4.312-15.846 7.96-1.43 11.093 5.184 11.255 8.904.171 3.946-3.692 8.746-7.461 9.095zm-21.492-15.052c.332-1.181.943-2.508 2.204-2.951 1.771-.626 3.387.281 3.33 2.138-.045 1.458-.335 2.91-.347 4.366-.027 3.714.526 7.151 4.724 8.595.499.173.94.563 1.359.911 2.992 2.482 6.365 3.864 10.311 3.576.911-.067 1.539.221 2.054 1.012 2.558 3.922 4.743 6.757 5.534 11.443a416.872 416.872 0 011.445 9.079 15.799 15.799 0 01-.065 5.448c-.176.861-.479 1.987-1.622 1.843-.888-.112-.569-1.18-.73-1.843-.108-.437-1.065-8.942-1.344-12.754a5.379 5.379 0 00-.374-1.306c-.12-.347-.315-.707-.732-.685-.608.031-.695.543-.652.984.252 2.628.449 5.262.689 7.886.837 9.16 2.385 18.247 2.81 27.444a9.942 9.942 0 010 1.637c-.248 2.131-1.499 2.361-3.672 2.318-1.356-.443-1.712-.443-2.178-2.737-.996-4.918-2.494-18.666-2.756-20.19-.257-1.478-.983-2.755-2.729-2.766-1.549-.126-2.407.244-2.974 2.36a14.74 14.74 0 00-.452 2.42c-.25 2.632-.872 14.476-1.425 18.007-.51 3.238-2.202 3.541-5.056 2.831-1.434-.197-1.34-2.308-1.389-3.299-.213-4.293.368-8.556.504-12.839.261-8.196.738-16.384 1.131-24.575.217-4.504-1.192-8.385-4.278-11.706-2.435-2.618-4.548-3.866-4.481-8.951-.164-2.908.484-5.318 1.161-7.696zm-6.847 4.786c.702.179.937.787.752 1.515-1.047 4.141-.788 8.054 2.43 11.778-2.066-.155-2.913-1.298-3.507-2.526-1.484-3.067-1.405-6.325-.817-9.586.105-.569.241-1.411 1.142-1.181z"/><path d="M53.55 192.024c-.486-.611-1.096-1.097-1.93-.655-2.952 1.574-5.932.345-8.815-.061-4.422-.621-5.695-4.113-3.042-7.652 1.1-1.468 2.192-2.92 2.592-4.748.434-1.99-.14-3.21-2.165-3.566-1.238-.217-2.078.767-2.755 1.692-2.23 3.025-4.237 6.197-5.52 9.738-.801 2.213-.58 4.371 1.025 6.333 1.9 2.325 3.765 4.721 6.205 6.458 2.11 1.509 2.755 3.439 2.558 5.817-.197 2.452-.35 4.919-.756 7.34-1.235 7.407-1.574 14.889-2.208 22.357 0 1.391-.082 2.786.022 4.169a3.54 3.54 0 003.657 3.305c1.66-.018 3.213-.732 3.394-2.969.197-2.558 2.126-20.373 2.51-21.591.196-.632.907-1.112 1.629-1.198.919-.11 1.618.484 1.926 1.208.788 1.869 2.226 14.558 2.943 18.656.93 5.327 3.33 5.294 4.685 5.168 1.411-.13 2.332-.439 2.64-2.009.503-2.569-.16-5.39-.46-7.928-1.269-10.82-2.164-21.601-4.106-32.321-.56-3.006-2.232-5.276-4.029-7.543z" fill="#fff"/><path d="M43.507 180.459a17.332 17.332 0 01-1.867 3.72c-.408.628-.762 1.289-1.108 1.952-.508.962-.144 2.24.753 2.626 4.108 3.032 10.167 1.393 12.017-.445 2.936-2.917 3.906-8.74 1.732-12.327-2.575-4.249-8.762-7.123-14.713-2.404 2.81.651 4.273 3.787 3.186 6.878zm29.02 27.178c-1.602-1.289-3.728-1.523-5.74-1.877-2.087-.366-5.238-2.514-7.393-5.135.553 2.93.746 5.822 1.278 9.247.248 1.599 3.335 1.642 6.36 2.341.62.143 1.238.315 1.866.407 1.377.197 2.523.159 3.489-.72 1.169-1.068 1.376-3.268.14-4.263z" fill="#fff"/><path d="M71.717 205.414c-1.575-.638-2.71-.919-4.375-1.287-3.115-.69-5.618-2.642-7.305-5.351-1.687-2.709-3.267-5.689-5.428-8.107-.708-.787-.478-.822.217-1.499 2.515-2.457 3.204-6.347 3.06-9.465-.352-7.611-8.354-12.632-16.751-8.878-.896.68-2.537 1.573-3.011 2.933 0 0-5.074 6.52-6.989 10.427-2.578 5.272-1.668 8.831 2.67 12.885l3.047 2.853c2.559 2.4 3.677 3.122 3.236 6.76-.644 5.311-3.082 26.538-3.346 31.24-.179 3.242.878 5.277 3.919 6.071 3.369 1.181 6.423-.22 6.919-4.951.033-.319 1.194-10.95 1.553-16.071.059-.848.332-3.884.97-3.699 1.218-.515 1.714 8.92 2.164 13.063.341 3.195.847 9.595 4.41 10.974 4.04 1.377 7.634-1.08 7.245-5.259-.347-3.722-2.316-21.081-2.755-24.906-.065-.667.59-.433 2.78.118.727.183 1.433.506 2.165.59 1.789.197 3.556.807 5.398.244 1.842-.562 2.99-1.656 3.196-3.649.236-2.229-.793-4.149-2.99-5.036zm-16.682-29.427c2.164 3.586 1.204 9.409-1.732 12.327-1.85 1.837-7.91 3.476-12.017.445-.897-.394-1.261-1.665-.753-2.627.346-.663.7-1.324 1.108-1.951a17.35 17.35 0 001.867-3.72c1.086-3.093-.376-6.229-3.186-6.886 5.951-4.712 12.138-1.837 14.712 2.412zm6.635 55.901c.3 2.537.963 5.359.459 7.928-.307 1.574-1.228 1.879-2.64 2.008-1.355.126-3.754.16-4.685-5.168-.716-4.105-2.149-16.787-2.942-18.656-.309-.723-1.008-1.318-1.927-1.207-.722.086-1.43.566-1.629 1.198-.394 1.217-2.302 19.037-2.51 21.591-.18 2.237-1.733 2.951-3.394 2.968a3.54 3.54 0 01-3.656-3.305c-.105-1.377-.022-2.777-.022-4.168.638-7.476.972-14.952 2.208-22.357.405-2.421.553-4.888.756-7.34.197-2.378-.443-4.308-2.559-5.817-2.44-1.745-4.303-4.131-6.205-6.459-1.604-1.967-1.826-4.119-1.025-6.332 1.283-3.542 3.29-6.713 5.52-9.739.681-.924 1.522-1.908 2.755-1.691 2.031.356 2.606 1.573 2.165 3.566-.393 1.828-1.492 3.28-2.592 4.747-2.653 3.542-1.377 7.032 3.043 7.653 2.883.405 5.87 1.625 8.814.061.835-.442 1.445.043 1.93.655 1.798 2.267 3.47 4.537 4.014 7.543 1.95 10.72 2.859 21.508 4.122 32.321zM72.388 211.9c-.966.879-2.12.921-3.49.72-.627-.093-1.245-.264-1.865-.407-3.025-.699-6.112-.742-6.36-2.341-.532-3.425-.724-6.317-1.278-9.247 2.155 2.621 5.314 4.769 7.392 5.135 2.013.354 4.133.59 5.74 1.877 1.237.995 1.03 3.195-.139 4.263zM23.19 186.301c.083-2.103 2.153-3.307 2.55-5.431-2.538.765-3.884 3.086-3.986 6.513-.067 2.259.7 3.252 3.558 4.159-1.076-1.631-2.202-3.159-2.121-5.241zm8.03 57.019c-2.248-1.771-4.867-.89-7.345-.984-.661-.026-1.285.327-1.208 1.127.08.864.83.832 1.448.805 2.574-.12 5.148-.362 7.726.313 0-.394.041-.52 0-.59a3.82 3.82 0 00-.622-.671zm35.065-1.481c-.561.011-1.116.196-1.114.861 0 .626.533.876 1.084.958 2.094.317 4.147.044 6.233-.539-1.982-1.105-4.072-1.331-6.203-1.28z"/></g><defs><clipPath id="clip0_262_2176"><path fill="#fff" transform="translate(-.356 .073)" d="M0 0h356.664v273.71H0z"/></clipPath></defs></svg>