<svg xmlns="http://www.w3.org/2000/svg" xmlns:xlink="http://www.w3.org/1999/xlink" xmlns:svgjs="http://svgjs.com/svgjs" width="52" height="52"><svg width="52" height="52" fill="none" xmlns="http://www.w3.org/2000/svg"><path fill="#fff" d="M13 13h25v26H13z"/><path d="M25.667 4C13.707 4 4 13.707 4 25.667s9.707 21.666 21.667 21.666 21.666-9.706 21.666-21.666S37.627 4 25.667 4zm7.648 24.332L22.092 36.11c-1.647 1.148-2.6.477-2.124-1.452l2.059-8.32-3.575-.888c-1.625-.39-1.82-1.517-.455-2.47l11.223-7.778c1.647-1.149 2.6-.477 2.123 1.451l-2.058 8.32 3.575.889c1.625.411 1.82 1.516.455 2.47z" fill="#5759CE"/></svg><style>@media (prefers-color-scheme:light){:root{filter:none}}</style></svg>