<svg width="146" height="26" xmlns="http://www.w3.org/2000/svg"><g clip-path="url(#clip0_209_31900)"><path fill-rule="evenodd" clip-rule="evenodd" d="M0 .5v25h45.736l2.702-12.19L45.736.5H0z" fill="#A4C815"/><path fill-rule="evenodd" clip-rule="evenodd" d="M0 13.196V25.5h45.736l2.702-12.308L0 13.196z" fill="#92B700"/><path fill-rule="evenodd" clip-rule="evenodd" d="M16.698 14.14c0 4.981-2.34 7.472-7.02 7.472-4.54 0-6.81-2.433-6.81-7.3V4.736h3.778v9.624c0 2.684 1.057 4.026 3.171 4.026 2.076 0 3.114-1.296 3.114-3.887V4.735h3.767v9.404zm1.672 6.546v-3.703a7.198 7.198 0 004.608 1.69c.474 0 .888-.043 1.242-.128s.65-.202.887-.353c.237-.15.414-.328.53-.532a1.32 1.32 0 00.175-.666 1.43 1.43 0 00-.28-.867 3.008 3.008 0 00-.764-.706 7.999 7.999 0 00-1.149-.625 40.119 40.119 0 00-1.434-.614c-1.307-.54-2.281-1.2-2.923-1.978-.642-.78-.962-1.721-.962-2.824 0-.864.175-1.607.525-2.228a4.44 4.44 0 011.429-1.533 6.436 6.436 0 012.094-.885 10.841 10.841 0 012.52-.284c.87 0 1.643.052 2.315.156a9.17 9.17 0 011.861.48v3.46a5.627 5.627 0 00-.916-.509 7.32 7.32 0 00-1.02-.364 7.856 7.856 0 00-2.03-.283c-.428 0-.817.04-1.167.121-.35.081-.646.195-.887.341a1.704 1.704 0 00-.56.527 1.241 1.241 0 00-.198.688c0 .278.074.527.222.747.148.22.358.428.63.625.272.196.602.39.991.579.39.188.829.383 1.318.584.67.277 1.27.573 1.803.885.533.312.99.665 1.37 1.06.382.392.673.842.876 1.347.202.505.303 1.094.303 1.765 0 .926-.177 1.703-.53 2.332a4.291 4.291 0 01-1.441 1.527c-.607.39-1.313.67-2.118.84a12.33 12.33 0 01-2.549.254c-.918 0-1.79-.077-2.619-.231-.828-.155-1.546-.386-2.152-.695zm22.995.634H31.338V4.734h9.642v3.042h-5.876v3.69h5.468v3.03h-5.468v3.794h6.26v3.03zM61.746 7.765h-4.77v13.548h-3.779V7.765H48.45V4.722h13.296v3.043zM72.83 21.311H62.8V4.721h9.645v3.043h-5.877v3.69h5.47v3.031h-5.47v3.795h6.262v3.031zm13.477-.579c-1.22.587-2.815.88-4.782.88-2.566 0-4.583-.748-6.052-2.245-1.47-1.496-2.204-3.49-2.204-5.98 0-2.654.825-4.806 2.478-6.456 1.652-1.65 3.796-2.475 6.431-2.475 1.633 0 3.009.204 4.129.612v3.599c-1.12-.664-2.395-.995-3.826-.995-1.57 0-2.837.49-3.801 1.469-.965.98-1.446 2.306-1.446 3.98 0 1.604.454 2.882 1.364 3.834.91.953 2.134 1.429 3.674 1.429 1.469 0 2.814-.355 4.035-1.064v3.412zm16.193.579h-3.779v-6.756h-6.927v6.756h-3.767V4.721h3.767v6.618h6.927V4.722h3.779V21.31z" fill="#fff"/><path d="M112.04 21.654a5 5 0 01-1.694-.28 3.482 3.482 0 01-1.344-.882c-.383-.401-.686-.915-.91-1.54-.215-.635-.322-1.395-.322-2.282v-.28c0-.85.112-1.577.336-2.184.224-.616.527-1.12.91-1.512a3.68 3.68 0 011.358-.868 4.917 4.917 0 011.666-.28c.541 0 1.045.07 1.512.21.467.13.873.331 1.218.602.355.27.639.607.854 1.008.224.401.359.873.406 1.414h-1.764c-.121-.607-.383-1.05-.784-1.33-.392-.28-.873-.42-1.442-.42-.308 0-.611.056-.91.168a2.124 2.124 0 00-.812.56c-.233.261-.425.607-.574 1.036-.14.43-.21.961-.21 1.596v.28c0 .672.075 1.232.224 1.68.159.448.359.807.602 1.078.243.27.509.462.798.574.299.112.593.168.882.168.672 0 1.19-.154 1.554-.462.373-.317.597-.747.672-1.288h1.764c-.056.579-.196 1.073-.42 1.484-.224.41-.513.747-.868 1.008a3.558 3.558 0 01-1.218.56 5.772 5.772 0 01-1.484.182zm9.876 0a5.201 5.201 0 01-1.708-.28 3.877 3.877 0 01-1.428-.868c-.411-.401-.737-.915-.98-1.54-.243-.635-.364-1.4-.364-2.296v-.28c0-.859.121-1.591.364-2.198.243-.616.569-1.12.98-1.512a3.724 3.724 0 011.428-.854 5.201 5.201 0 011.708-.28c.597 0 1.167.093 1.708.28a3.724 3.724 0 011.428.854c.411.392.737.896.98 1.512.243.607.364 1.34.364 2.198v.28c0 .896-.121 1.661-.364 2.296-.243.625-.569 1.139-.98 1.54a3.877 3.877 0 01-1.428.868 5.201 5.201 0 01-1.708.28zm0-1.484c.345 0 .681-.06 1.008-.182.327-.121.616-.317.868-.588.252-.28.453-.644.602-1.092.159-.448.238-.994.238-1.638v-.28c0-.616-.079-1.134-.238-1.554-.149-.43-.35-.775-.602-1.036a2.241 2.241 0 00-.868-.588 2.912 2.912 0 00-2.03 0 2.241 2.241 0 00-.868.588c-.252.261-.453.607-.602 1.036-.149.42-.224.938-.224 1.554v.28c0 .644.075 1.19.224 1.638.149.448.35.812.602 1.092.252.27.541.467.868.588a2.92 2.92 0 001.022.182zm6.51-8.47h3.71c.616 0 1.153.075 1.61.224.467.15.854.36 1.162.63.308.27.541.593.7.966.159.373.238.784.238 1.232 0 .672-.182 1.255-.546 1.75-.364.485-.91.835-1.638 1.05l2.464 3.948h-1.848l-2.17-3.752h-2.002V21.5h-1.68v-9.8zm3.43 4.648c.859 0 1.456-.14 1.792-.42.345-.28.518-.672.518-1.176 0-.504-.173-.896-.518-1.176-.336-.28-.933-.42-1.792-.42h-1.75v3.192h1.75zm6.154-4.648h3.57c1.316 0 2.287.285 2.912.854.625.56.938 1.316.938 2.268 0 .952-.313 1.713-.938 2.282-.625.56-1.596.84-2.912.84h-1.89V21.5h-1.68v-9.8zm3.43 4.788a5.28 5.28 0 001.106-.098c.299-.075.537-.177.714-.308.177-.14.303-.313.378-.518.075-.215.112-.462.112-.742 0-.28-.037-.523-.112-.728a1.156 1.156 0 00-.378-.518c-.177-.14-.415-.243-.714-.308a4.639 4.639 0 00-1.106-.112h-1.75v3.332h1.75z" fill="#92B700"/></g><defs><clipPath id="clip0_209_31900"><path fill="#fff" transform="translate(0 .5)" d="M0 0h146v25H0z"/></clipPath></defs></svg>