<svg width="612" height="498" fill="none" xmlns="http://www.w3.org/2000/svg"><path d="M70.77 466.829c-16.325-31.75-43.696-45.12-59.014-50.345-3.608-1.231-4.352-6.804-1-8.622 32.942-17.873 87.007-46.666 101.744-52.417 20.5-8 61 10 69.5 41.5 38.919-17.05 77.409 11.81 95.179 31.917 2.065 2.335 1.285 5.919-1.473 7.371l-100.969 53.186c-9.175 4.833-20.377 3.464-28.894-2.45-16.834-11.688-45.801-27.721-66.939-17.703-2.917 1.382-6.657.434-8.133-2.437z" fill="#D6D3FF"/><ellipse cx="59.296" cy="78.4" rx="59.296" ry="78.4" transform="matrix(.98555 .16939 -.09571 .9954 444.031 10.148)" fill="#D6D3FF"/><ellipse cx="36.362" cy="48.076" rx="36.362" ry="48.076" transform="matrix(.98555 .16939 -.09571 .9954 524.703 .557)" fill="#D6D3FF"/><path d="M92.384 178.254l-11.195 75.937a7.001 7.001 0 003.383 7.059l25.141 14.748a21 21 0 0019.429.952l107.131-49.468c3.187-1.472 5.224-4.646 5.149-8.155-.221-10.25-1.061-32.769-4.26-55.569-3.416-24.34-15.848-41.477-20.981-47.664-1.31-1.579-3.482-2.021-5.373-1.226l-102.779 43.211a25.998 25.998 0 00-15.645 20.175z" fill="#6DF9A5"/><path d="M302 215.051l-156.835 78.417c-10.341 5.171-10.313 19.938.048 25.068l211.453 104.712a50.997 50.997 0 0047.154-.986l119.175-65.354a28.997 28.997 0 0014.708-20.948l29.989-191.842a15 15 0 00-8.974-16.13L339.256 35.103c-5.436-2.3-11.577 1.166-12.417 7.009L302 215.05z" fill="#73ECFF"/><ellipse cx="546.5" cy="387.051" rx="65" ry="51.5" fill="#6DF9A5"/><path d="M507.132 412.965c-1.415-16.356 11.479-30.414 27.896-30.414h32.952c16.045 0 28.808 13.456 27.961 29.478l-2.538 48c-.787 14.869-13.072 26.522-27.961 26.522h-26.26c-14.529 0-26.644-11.112-27.896-25.586l-4.154-48z" fill="#6DF9A5"/><path d="M473.712 368.77s-51.33 26.67-76.21 38.42c-27.72 13.08-47.27-2.72-72.27-12.72-25-10-131.79-62-159.34-77-26.38-14.39-34.17-26.37-8.66-40 21-11.18 92.21-44.55 121-58 17.21-8 24.9-11.39 30.59-7.56 6.53 4.41 2 10.94-5.38 7.18-6.36-3.26-5.22-18.82-3.79-33.3 2.65-26.75 16-110.92 19.16-128.8 5.94-34 6.27-35.67 21.39-29.87 9.52 3.65 200 85 213 91s9 18 7 30-27.26 168.9-27.26 168.9" stroke="#1D1D1F" stroke-width="4" stroke-miterlimit="10"/><path d="M348.119 339.62s-16.78 7.79-24.57 12c-7.79 4.21-14.39 6-30 0s-57.54-25.78-66.54-32.37c-9-6.59 0-8.39 8.4-14.39s27.57-13.78 39-21.58c11.43-7.8.6-10.19-3.6-7.19-4.2 3-9.58 6.58 14.42 16.77s77.28 39.61 98.86 48.61 27.58 13.79 49.16 4.79 24.57-9 37.76-18c13.19-9 9-12-8.39-21s-131.88-61.79-146.27-69.55c-14.39-7.76-21.58-10.19-38.36-3-16.78 7.19-25.76 13.19-38.37 19.76-12.61 6.57-12.59 12.59-2.39 17.38 10.2 4.79 18.58 8.39 18.58 8.39m30.57-29.34c29.37 11.39 149.26 72.54 149.26 72.54m82.47-42.518s20.33-119.08 22.08-129.56c1.75-10.48 5-19.45-6.37-24.69-11.37-5.24-177.72-75.82-185.87-79.4-10.58-4.65-13.29-7.46-17.74 25.67-2.28 17-15.41 93.94-17.42 113.48-1.73 16.85 5.18 21 11.81 25.45 6.63 4.45 163.89 78.78 174.94 83.64 11.05 4.86 15.92-.04 18.57-14.59zM97.548 433.16s48.27-26.69 69.88-37.33c21.61-10.64 57.28-38.09 111.47 25.53l-118.67 62.93c-20.68-32.1-71.42-49.12-85.43-34.9-10.61 10.77 6.11 16.59 7.48 6.54 1.49-10.84-26-58.19-72.63-55.1 0 0 56.62-30.31 80.89-45.17 24.27-14.86 40.51-14.51 60.78-3 20.27 11.51 25.91 27.13 25.91 27.13m-28.216 61.092c14.57-9.42 33.56-20.65 39.84-23.95" stroke="#1D1D1F" stroke-width="4" stroke-miterlimit="10"/><path d="M197.82 408.66c-1.19.77-1.1 2.74-.3 3.9a4.264 4.264 0 003.73 1.62 9.77 9.77 0 004-1.33c.8-.44 1.7-1.18 1.47-2.06a2.222 2.222 0 00-1-1.11 12.555 12.555 0 00-3.79-2 4.18 4.18 0 00-4 .88" fill="#1D1D1F"/><path d="M59.68 393.23c6.27 2.21 12.63 4.46 18.1 8.24 5.47 3.78 10 9.34 11.14 15.89m-8.611-34.309c5.64 1.66 11.35 3.35 16.38 6.39 5.03 3.04 9.4 7.64 10.87 13.34m-8.481-29.56a37.9 37.9 0 0125.34 16.92m-7.547-26.17a46.597 46.597 0 0113.77 5.53c4.18 2.7 7.71 6.65 9.1 11.42M98.183 234.147L74.5 245.967a303.305 303.305 0 016.861-46.868c2.387-12.637 7.198-25.13 11.048-37.623 0-3.844 1.924-6.727-1.925-10.571-2.887-2.883-8.66-.961-6.736 3.844 14.435 36.518 25.02 73.997 28.869 112.802 4.6-1.922-.202-2.729 0 0 28.62-11.993 56.267-26.091 84.328-39.295 7.949-3.748 24.51-12.493 32.555-15.991l-.635-8.889" stroke="#1D1D1F" stroke-width="4" stroke-miterlimit="10"/><path d="M120 143.284l-17.5 8.185s16.342 31.579 24.928 92.082l111.072-51.57c-2.573-45.968-17.181-70.498-29.274-90.43l-10.422 4.875M134 136.736l19.638-9.185m13.897-6.5l20.846-9.75M95.5 138.982c4.474-25.112 43.668-8.734 28.55 18.569m4.45-34.168c4.474-25.922 43.668-9.016 28.55 19.168m6.45-35.569c4.342-25.112 42.3-8.734 27.659 18.569" stroke="#1D1D1F" stroke-width="4" stroke-miterlimit="10"/><path d="M133.5 179.4a18.319 18.319 0 006.828-6.652 18.446 18.446 0 002.583-9.197 297.527 297.527 0 005.589 30m12-31c5.266-2.766 36.372-16.103 47-21m-40 41c5.266-2.898 36.372-16.87 47-22m-74 54c8.614-4.476 59.587-26.132 77-34M520.831 353.52s-6.88-8-6.52-26c1 0 17.55-.54 21.12 14m5.319 5.611s1.17-18.14 17.37-22.77c4.4 6.16 9 12.12 7.56 17.9m-.45 12.76c9.85-12.12 17.271-13.42 28.801-13.29-.61 16.41-9.101 18.67-9.101 18.67m-19.122 3.33c8-.45 18.8 5 19.59 11.23 0 0-10.88 7.44-23-3m-8.108-.66c2.89 4.76.65 12.24-5.14 14.75-4.64-2-12.13-5.3-8.88-14.7m-16.509-7.71c-14.93 0-10.07 10-8.35 15.35 5.2.07 15.33-2.76 15.22-9m-22.56-4.82c-7.94 4.42-23.13-7.851-23.13-7.851 9.24-11.89 21.37-8.69 26.78-4.55m31.509 6.702c.83-3.88 7.06-9.82 12.39-11.29 2.27 3.89 3.17 7.77-1.12 15.66" stroke="#1D1D1F" stroke-width="4" stroke-miterlimit="10"/><path d="M529.291 361.78s-4.39-6.28-3.78-12.92c0 0 9.13-.24 11.53 7.6m37.279 32.251c9.1.53 18.22-2.36 26.85-3.12-.93-7.3-2.06-15.26-11.26-18.37m-57.34 23.99c.69 3.66 10.23 9.63 14.17 13 5.92-4.65 11.46-7.87 13.81-12.07m-56.791-18.86c-5.92 3.71-9.87 10.4-12.15 16.59 8 1.16 22.36 2.6 30.34-2.64" stroke="#1D1D1F" stroke-width="4" stroke-miterlimit="10"/><path d="M489.561 396.701c-2 7.83 4.29 28.18 51.19 32.25s60.11-27.24 52.85-34.75" stroke="#1D1D1F" stroke-width="4" stroke-miterlimit="10"/><path d="M584.898 425.791s.39 22.77-1.1 30.17c-1.72 8.54-8.21 23.89-41.4 22.9-29.5-.88-35.44-14.76-37.21-22.9l-2.2-28.85M387.84 393.21l106.79-59.89" stroke="#1D1D1F" stroke-width="4" stroke-miterlimit="10"/></svg>