<svg xmlns="http://www.w3.org/2000/svg" xmlns:xlink="http://www.w3.org/1999/xlink"><symbol id="logo-cyr" viewBox="0 0 178 44"><path d="M22.046.688h-.001C10.258.688.703 10.037.703 21.573v.854c0 11.535 9.555 20.886 21.342 20.886h.001c11.787 0 21.342-9.351 21.342-20.886v-.854c0-11.535-9.555-20.886-21.342-20.886z" fill="#25CFE8"/><path d="M32.674 11.185h-4.796l-5.508 7.91h-.556l-5.23-7.91h-4.98l7.208 10.691-7.797 10.939h4.92l5.755-7.941h.557l5.693 7.941h5.136l-7.797-11.031 7.395-10.599z" fill="#fff"/><path d="M69.84 12.843h-3.936l-4.521 6.493h-.457l-4.292-6.493h-4.089l5.917 8.775-6.4 8.979h4.039l4.723-6.518h.458l4.672 6.518h4.216l-6.4-9.055 6.07-8.7zM96.001 22.844h-5.765v-4.87h-3.174v12.682h3.174V25.76h5.765v4.895h3.175V17.974H96v4.87zM77.018 27.934c-2.031 0-3.454-1.598-3.454-3.652 0-2.232 1.423-3.703 3.454-3.703 2.133 0 3.556 1.47 3.556 3.703 0 2.054-1.422 3.652-3.556 3.652zm3.657-8.674h-.127c-.66-.863-2.006-1.649-3.91-1.649-3.582 0-6.35 2.968-6.35 6.696 0 3.652 2.768 6.594 6.35 6.594 1.904 0 3.25-.786 3.91-1.648h.127l.178 1.344h2.92V17.916h-2.92l-.178 1.344zM173.632 17.975l-3.683 8.217h-.33l-4.064-8.217h-3.809l6.222 12.123-2.641 5.63h3.809l8.305-17.753h-3.809zM154.719 27.942c-2.107 0-3.58-1.522-3.58-3.602 0-2.155 1.473-3.652 3.58-3.652 2.134 0 3.632 1.497 3.632 3.652 0 2.08-1.498 3.602-3.632 3.602zm0-10.272c-3.911 0-6.806 2.968-6.806 6.696 0 3.652 2.895 6.594 6.806 6.594 3.988 0 6.908-2.942 6.908-6.594 0-3.728-2.92-6.696-6.908-6.696zM134.376 24.468c-.051 2.384-.813 3.12-2.261 3.12h-.228v3.068c3.758.254 5.561-1.623 5.688-5.985l.102-3.78h4.724v9.765h3.174V17.975h-11.047l-.152 6.492zM123.709 27.764v-6.899c2.21 0 3.784 1.32 3.784 3.475 0 2.08-1.574 3.424-3.784 3.424zm-3.174 0c-2.21 0-3.784-1.344-3.784-3.424 0-2.156 1.574-3.475 3.784-3.475v6.899zm3.174-9.84V12.9h-3.174v5.022c-3.988 0-6.984 2.714-6.984 6.417 0 3.678 2.996 6.366 6.984 6.366v5.073h3.174v-5.073c3.987 0 6.984-2.688 6.984-6.366 0-3.703-2.997-6.417-6.984-6.417zM101.536 20.891h3.936v9.765h3.175V20.89h3.962v-2.917h-11.073v2.917z" fill="#1D1D1F"/></symbol></svg>