<svg xmlns="http://www.w3.org/2000/svg" xmlns:xlink="http://www.w3.org/1999/xlink"><symbol id="Bookmarks"><path fill-rule="evenodd" clip-rule="evenodd" d="M9 2.25a1.5 1.5 0 00-1.5 1.5v1.5H6a1.5 1.5 0 00-1.5 1.5V21a.75.75 0 001.186.61l4.813-3.438 4.815 3.438A.75.75 0 0016.5 21v-3.685l1.814 1.295A.75.75 0 0019.5 18V3.75a1.5 1.5 0 00-1.5-1.5H9zm6 13.597v3.696l-4.065-2.903a.75.75 0 00-.872 0L6 19.542V6.75h9v9.097zm1.5-.376l1.5 1.072V3.75H9v1.5h6a1.5 1.5 0 011.5 1.5v8.721z"/></symbol><symbol id="CaretLeft" viewBox="0 0 25 25"><path fill-rule="evenodd" clip-rule="evenodd" d="M15.72 4.298a.76.76 0 010 1.074l-7.055 7.055 7.054 7.054a.76.76 0 11-1.073 1.074l-7.592-7.592a.76.76 0 010-1.073l7.592-7.592a.76.76 0 011.073 0z"/></symbol><symbol id="CaretRight" viewBox="0 0 25 25"><path fill-rule="evenodd" clip-rule="evenodd" d="M8.574 4.018a.76.76 0 011.074 0l7.591 7.592a.76.76 0 010 1.073l-7.591 7.591a.76.76 0 11-1.074-1.073l7.055-7.055-7.055-7.054a.76.76 0 010-1.074z"/></symbol><symbol id="discord"><path d="M9 14.625a1.125 1.125 0 100-2.25 1.125 1.125 0 000 2.25zM15 14.625a1.125 1.125 0 100-2.25 1.125 1.125 0 000 2.25z"/><path fill-rule="evenodd" clip-rule="evenodd" d="M9.008 19.653l.89-1.767c.697.08 1.4.119 2.102.114a17.18 17.18 0 002.102-.114l.891 1.767a1.48 1.48 0 001.7.79c2.386-.585 4.487-1.606 6.037-2.955l.004-.004a1.51 1.51 0 00.447-1.565L20.004 5.31a1.472 1.472 0 00-.884-.965 17.288 17.288 0 00-2.891-.898 1.51 1.51 0 00-1.751.988l-.548 1.66c-.64-.069-1.284-.1-1.93-.096-.645-.005-1.289.027-1.929.095l-.546-1.652-.002-.007a1.51 1.51 0 00-1.75-.988c-.989.214-1.956.515-2.892.898a1.472 1.472 0 00-.885.965L.82 15.919a1.51 1.51 0 00.448 1.565l.004.004c1.55 1.349 3.651 2.37 6.038 2.955a1.48 1.48 0 001.699-.79zm-.91-14.738a.01.01 0 00-.006-.001H8.09c-.905.196-1.792.472-2.649.824l-.008.003-3.177 10.608v.006l.003.004c1.334 1.16 3.204 2.087 5.405 2.627l.001-.002.681-1.351a17.157 17.157 0 01-1.595-.417.75.75 0 11.449-1.432 15.633 15.633 0 004.795.716h.01a15.653 15.653 0 004.796-.716.75.75 0 11.449 1.432c-.526.164-1.058.303-1.596.417l.682 1.351v.002c2.202-.54 4.071-1.467 5.406-2.627l.496.563-.492-.566-.004.003.001-.002.001-.001v-.006L18.567 5.74l-.008-.002a15.786 15.786 0 00-2.649-.824h-.001a.01.01 0 00-.011.005l-.464 1.404c.612.12 1.219.274 1.816.461a.75.75 0 11-.449 1.432 15.646 15.646 0 00-2.39-.548.748.748 0 01-.139-.02 15.647 15.647 0 00-2.266-.148h-.011c-.76-.006-1.517.044-2.267.148a.748.748 0 01-.139.02c-.808.12-1.607.303-2.39.548a.75.75 0 11-.448-1.432 17.146 17.146 0 011.816-.461l-.464-1.404a.01.01 0 00-.004-.004z"/></symbol><symbol id="DotsThree"><path d="M12 13.125a1.125 1.125 0 100-2.25 1.125 1.125 0 000 2.25zM18 13.125a1.125 1.125 0 100-2.25 1.125 1.125 0 000 2.25zM6 13.125a1.125 1.125 0 100-2.25 1.125 1.125 0 000 2.25z"/></symbol><symbol id="FileText"><path d="M8.25 12.75A.75.75 0 019 12h6a.75.75 0 010 1.5H9a.75.75 0 01-.75-.75zM9 15a.75.75 0 000 1.5h6a.75.75 0 000-1.5H9z"/><path fill-rule="evenodd" clip-rule="evenodd" d="M5.249 2.25a1.5 1.5 0 00-1.5 1.5v16.5a1.5 1.5 0 001.5 1.5h13.5a1.5 1.5 0 001.5-1.5V8.284a.76.76 0 00-.238-.584l-5.23-5.23a.751.751 0 00-.531-.22H5.249zm8.25 1.5H5.25v16.5h13.5V9h-4.5a.75.75 0 01-.75-.75v-4.5zm4.19 3.75L15 4.81V7.5h2.69z"/></symbol><symbol id="folder"><path fill-rule="evenodd" clip-rule="evenodd" d="M2.69 4.94a1.5 1.5 0 011.06-.44h5c.322.001.636.106.894.298l.002.001 2.605 1.95a.01.01 0 00.005.001h7.994a1.5 1.5 0 011.5 1.5v10.584a1.416 1.416 0 01-1.416 1.416H3.75a1.5 1.5 0 01-1.5-1.5V6c0-.398.158-.78.44-1.06zM8.743 6H3.75v12.75h16.5V8.25h-8a1.51 1.51 0 01-.894-.298l-.002-.001L8.749 6A.01.01 0 008.744 6z"/></symbol><symbol id="Gift"><path fill-rule="evenodd" clip-rule="evenodd" d="M16.972 6.75a3 3 0 00-4.442-4.023 2.918 2.918 0 00-.53.759 2.918 2.918 0 00-.53-.759A3 3 0 007.027 6.75H3.75a1.5 1.5 0 00-1.5 1.5v3a1.5 1.5 0 001.5 1.5v6a1.5 1.5 0 001.5 1.5h13.5a1.5 1.5 0 001.5-1.5v-6a1.5 1.5 0 001.5-1.5v-3a1.5 1.5 0 00-1.5-1.5h-3.278zm-3.381-2.962a1.5 1.5 0 012.121 2.121c-.145.145-.415.298-.817.432-.39.13-.839.222-1.277.284-.3.043-.586.071-.832.09.018-.247.046-.533.089-.832.063-.439.154-.888.284-1.278.134-.402.287-.672.432-.817zM18.75 18.75h-6v-6h6v6zm-7.5 0v-6h-6v6h6zm8.25-7.5h-6.75v-3h7.5v3h-.75zm-8.25 0v-3h-7.5v3h7.5zM9.105 6.341c-.403-.134-.672-.287-.817-.432a1.5 1.5 0 012.12-2.12c.146.144.299.414.433.816.13.39.221.839.284 1.278.043.3.07.585.09.832a12.658 12.658 0 01-.833-.09 7.5 7.5 0 01-1.277-.284z"/></symbol><symbol id="habr"><path fill-rule="evenodd" clip-rule="evenodd" d="M16.187 13.153l.263.095c.042-.116.069-.237.08-.36-.123 0-.244-.002-.363-.007.01.094.018.188.023.272h-.003zm-3.946-9.465a7.9 7.9 0 001.545.252c-.824-1.079-2.169-1.329-3.39-1.01a4.77 4.77 0 011.84.758h.005zm2.07.159a3.042 3.042 0 00-.697-.757l.104-.126c.373.101.728.258 1.052.463a1.308 1.308 0 01-.463.415l.004.005zm.677-.757c.087-.165.16-.336.218-.513-.035.188-.092.37-.168.546.216.143.413.313.585.504.216-.207.583-.63.6-1.135.022-.683-.526-.735-.526-.735a.084.084 0 01-.055-.03.077.077 0 01-.018-.057.077.077 0 01.03-.052.084.084 0 01.06-.016s.7.067.672.895c-.019.568-.429 1.034-.658 1.253.054.067.104.137.15.21l.94-.657c.317-.437.489-.956.493-1.49 0-.02.008-.04.023-.054a.083.083 0 01.116 0 .077.077 0 01.024.055c-.002.439-.113.872-.323 1.262l3.03-2.138-4.078 3.507c.091.248.122.512.09.773l.05.017a13.309 13.309 0 012.092-1.037s-.761.612-1.633 1.213c.19.078.394.169.606.272.302-.168.621-.306.952-.412.145-.18.319-.338.515-.466a.066.066 0 01.049-.008.066.066 0 01.04.028.061.061 0 01.008.047.065.065 0 01-.029.039c-.13.084-.248.184-.352.296.106-.025.213-.043.322-.055a1.11 1.11 0 01.534.055c.104-.122.193-.257.263-.4.328-.686-.22-.387-.22-.386a.067.067 0 01-.052.008.067.067 0 01-.042-.03.062.062 0 01.028-.088s.9-.49.404.548c-.07.146-.158.282-.263.408a.663.663 0 01.3.457.078.078 0 01-.017.057.084.084 0 01-.055.03.084.084 0 01-.06-.017.078.078 0 01-.03-.053.492.492 0 00-.247-.352c-.322.33-.693.613-1.1.84.53.345.986.782 1.345 1.29.543-.44 1.025-.552 1.176.21l.01.047c.037-.057.076-.111.115-.164.08-.114.18-.214.296-.294l.024-.069a.064.064 0 01.031-.036.065.065 0 01.09.033c.396-.119.635.414.636.415a.06.06 0 010 .046.064.064 0 01-.034.034.068.068 0 01-.049.002.065.065 0 01-.036-.03s-.21-.475-.562-.297c-.118.301-.267.59-.445.863a4.164 4.164 0 01-.201 1.714l.034.018a1.698 1.698 0 01-.112.17c-.092.207-.215.4-.363.574-.476.58-1.17.96-1.932 1.058.04.251.038.507-.008.757.47 0 .955-.015 1.426-.031.79-.028 1.529-.074 2.076-.144.23-.015.453-.076.657-.178-.107.009-.65-.009-.29-.225a.55.55 0 01.48-.055c.042.015.08.04.111.073.031.032.054.07.067.112a.267.267 0 01-.075.263c-.112.126-.386.252-.913.32-.558.072-1.316.118-2.105.145-.5.018-1.016.028-1.512.033a2.456 2.456 0 01-.384.757c.85.205 1.723.311 2.6.317 2.72 0 4.067-.468 4.067-.468a10.15 10.15 0 01-3.637.868c-.065.206-.263.523-.867.523-.642 0-1.527-.42-1.98-.66.397.55.443 1.3.443 1.3a.076.076 0 01-.02.058.084.084 0 01-.115.008.077.077 0 01-.028-.054s-.07-1.02-.68-1.493l-.131-.025c-.19.169-.404.311-.634.424l1.927 2.219-.167.141-1.974-2.126c-.036.035-.08.075-.131.117-.192.358-.432.69-.714.988.416.087.788.31 1.052.631.595.703-.16 1.319-.163 1.32l-.058-.053s.597-.575.095-1.169a1.672 1.672 0 00-1.053-.59 6.003 6.003 0 01-.554.487c.176.242.323.503.438.776.086.216.128.446.124.677-.025.816-.802 1.084-1.559 1.062a2.84 2.84 0 01-.639-.098 5.32 5.32 0 01.106 1.654c-.191 2.238-2.186 2.091-2.191 2.091 0 0 1.86-.126 2.03-2.102.053-.573 0-1.15-.157-1.706a5.531 5.531 0 01-.987-.46.76.76 0 01-.308.292.802.802 0 01-.424.087.978.978 0 01-.244-.04c-.165.047-.364.016-.6-.138a1.957 1.957 0 01-.422-.371c-.32.456-.657.915-.994 1.367a19.21 19.21 0 01-.312 2.75C8.71 23.38 8.497 24.19 7.85 23.96c.377.072.657-.612.864-1.567.161-.858.266-1.724.313-2.595-.495.645-1 1.262-1.498 1.82-.374.415-.821.863-1.236.986.886-.808 1.842-1.945 2.755-3.155.025-.457.043-.918.055-1.367a31.748 31.748 0 01-2.669 3.058c-3.243 2.896-1.022-.92-.872-.758 0 .008-1.396 2.545.69.523a37.37 37.37 0 002.862-3.23v-.092a6.804 6.804 0 01-.666-.17l-.263.289a4.346 4.346 0 01-.92 1.817.083.083 0 01-.116.008.076.076 0 01-.009-.11c.372-.434.65-.933.82-1.47a8.432 8.432 0 01-.25.252c-.854 1.145-1.194.748-1.315.631a.076.076 0 01.014-.104.083.083 0 01.11.003s.203.245 1.077-.638c.131-.134.283-.292.447-.466.023-.115.038-.232.047-.348l-.077-.032c-.296.188-.707.31-1.28.266a4.048 4.048 0 01-.221-.025 1.339 1.339 0 01-.632.47 1.711 1.711 0 01-.92.061 1.762 1.762 0 01-.866-.453 1.975 1.975 0 01-.571-1.181c-.147-1.051.395-1.63.91-1.937a3.997 3.997 0 01-.162-.437c-.09-.07-.181-.143-.272-.217l-.047.013s0-.024-.016-.065a6.941 6.941 0 01-.234-.205l-.01-.013c-.444-.409-.815-.868-.922-1.32-.159-.675.219-1.246.642-1.65l.012-.013c.118-.11.242-.213.371-.31.05-.305.142-.602.274-.883a6.312 6.312 0 01-.057-1.094 5.1 5.1 0 01.048-.528c-.162.038-.32.09-.473.155-.175.073-.339.17-.486.286-.126.086-.231.198-.307.328a.98.98 0 00-.131.421c.078.012.155.03.231.05.372.107.728.324.79.585.04.125.03.26-.027.379a.352.352 0 01-.183.165.473.473 0 01-.254.02.901.901 0 01-.476-.272c-.226 0-.91-.037-.884-.578a.332.332 0 01.056-.176.352.352 0 01.141-.122.793.793 0 01.345-.073c.004-.045.01-.09.019-.134.065-.31.244-.587.503-.783.166-.13.35-.239.546-.32.2-.087.41-.151.626-.192a3.667 3.667 0 01.852-1.733A8.143 8.143 0 003.485 4.69a3.17 3.17 0 011.795.714c.286-.246.624-.43.992-.535.106-.068.218-.127.334-.176-.263-.366-.86-.995-2.148-1.641 1.617.365 2.32 1.047 2.613 1.471l.04-.029h.011l.01-.008.024-.016c.074-.082.16-.175.263-.275-.297-.411-.856-1.023-1.898-1.711 1.214.323 1.89.904 2.259 1.367a6.294 6.294 0 014.196-1.515c.623 0 1.243.083 1.842.245.395-.505.937-1.315.718-1.753a.702.702 0 00-.279-.31.747.747 0 00-.413-.105c-.31.019-.613.097-.89.23-.284.13-.545.303-.771.512-.237.222-.293.418-.25.56.02.067.062.125.12.167.06.046.13.076.206.088.742.127.38-.757.194-.42a.13.13 0 01-.062.056.137.137 0 01-.085.008c-.612-.174 1.124-.622.527.253a.58.58 0 01-.262.215.633.633 0 01-.624-.09.495.495 0 01-.175-.245c-.059-.194 0-.446.294-.716.24-.216.514-.395.813-.528.296-.146.62-.232.952-.253a1.033 1.033 0 01.766.244.712.712 0 01.142.194c.243.486-.317 1.366-.753 1.939.353.109.688.264.997.459l.005.004zm-.152.385c-.116.187-.271.35-.455.48.033.056.062.11.09.163.182.077.358.167.526.27.077.043.151.09.22.135l.336-.296a2.257 2.257 0 00-.72-.757l.003.005zm-1.639.528c-.163.013-.44.113-.48.11a3.22 3.22 0 00-.251-.246c.231.052.485.101.731.136zm.93 12.008h.049l-.015-.018-.034.018zm.212 0c.033 0 .064 0 .097-.008l-.077-.116-.082.05.062.074zm.238-.028h.029c-.058-.071-.105-.127-.132-.166.04.061.08.118.112.17l-.009-.004zm.168-.037c.162-.043.314-.111.452-.203.09-.06.168-.126.239-.18.084-.103.16-.205.228-.307a2.54 2.54 0 01-.204.062l-.073.017-.029.027c-.223.186-.488.32-.774.39.04.046.096.113.161.194zm-.143.332h-.045l.042.06.025-.018-.022-.048v.006zm-.192.023a3.742 3.742 0 01-1.084-.087 3.25 3.25 0 01-.851-.048c-.263.058-.547.12-.828.176.389.36 1.295 1.045 2.608.235.083-.052.163-.103.24-.158l-.085-.118zM3.919 13.013a.552.552 0 01.178-.296 11.194 11.194 0 01-.24-.869 4.87 4.87 0 01-.108-.72c-.096.465-.162 1.137.073 1.692.027.066.059.13.094.193h.003zm.313.07a.902.902 0 00-.029.328c.091.1.19.195.295.282a6.524 6.524 0 01-.14-.301l-.03.006s-.012-.05-.022-.126l-.074-.184v-.004zm4.102-7.356a.171.171 0 00.096.066.486.486 0 00.359-.053s0 .22-.2.252a.734.734 0 01-.255-.022c.007.058.019.115.037.171.168-.012.32-.017.45-.017.024-.162.05-.332.073-.505a6.104 6.104 0 00-.47-.205c-.046.1-.076.206-.09.315v-.002zm-1.12.282a4.512 4.512 0 01-.097-.871h-.015c-.423.486-.467 1.103-.446 1.472.04-.022.08-.045.124-.066.223-.11.458-.198.7-.26a1.618 1.618 0 01-.095-1.078c-.041.06-.077.124-.106.19-.067.197-.09.406-.066.613h.001zm1.197-1.176c.091-.105.207-.231.34-.359a2.029 2.029 0 00-.824.16c.058.018.116.037.174.059.106.04.21.088.31.14zm.574-.142c-.11.106-.21.212-.29.303.085.054.17.112.254.174.016-.155.03-.3.035-.428v-.049zm5.04-.372a2.751 2.751 0 00-.325-.03c.13.042.26.09.385.146l-.057-.126-.002.01zm-.146 1.218c.024-.185.03-.371.018-.557a6.26 6.26 0 00-.658-.045c.106.254.18.52.217.792.132-.053.271-.12.42-.19h.003zm1.16 9.858l-.099.011-.093.086c.066-.028.13-.06.192-.097zm.832-.927a1.68 1.68 0 00.28-.22c.05-.156.084-.317.102-.48l-.054-.014c-.063.119-.16.293-.296.505a1.91 1.91 0 01-.037.212l.005-.003zm-3.85 2.988a3.42 3.42 0 01-.113.395c.076.051.154.103.234.154.06-.179.088-.365.085-.552h-.206v.003zm-.19.589c-.063.15-.152.288-.262.41a.582.582 0 00.28-.072.552.552 0 00.206-.197 7.45 7.45 0 01-.222-.141h-.001zm-1.702-.078a2.703 2.703 0 01-.159-.253 9.843 9.843 0 01-.526-.07l-.132.167c0 .438-.02.884-.04 1.336.292-.393.577-.79.853-1.182l.004.002zm-.288-.516l-.052-.127a.374.374 0 00-.107.015l-.06.075.223.029-.004.008zm-1.677-.68c-.07.064-.144.125-.222.181l.023.013c.073-.06.14-.124.199-.195zm-.79-.183a.678.678 0 00.387-.205c.055-.061.106-.125.153-.192a4.978 4.978 0 01-.85-.48c-.109.127-.22.253-.335.379.233.194.452.358.646.505v-.006zm-1.062-.01l-.057.067c-.12.146-.249.286-.385.418.275.116.568.187.868.21a1.86 1.86 0 00.975-.153l-.08-.046v.008a4.247 4.247 0 01-1.315-.505l-.006.001zm-2.963-4.452c-.017-.41.025-.821.124-1.22a1.98 1.98 0 00-.143 1.062c0 .053.011.105.02.158zm7.69-8.342c.23.1.447.227.644.378a3.573 3.573 0 00-1.272.466 2.501 2.501 0 00-.601-.378c-.045-.022-.091-.04-.132-.058a2.13 2.13 0 011.362-.408zm-1.596.183c.254-.185.54-.326.846-.418a4.584 4.584 0 00-.921-.078c.025.134.051.303.07.496h.005zm9.55 3.534a.689.689 0 00-.394.126c.12.192.212.4.274.616.123-.14.248-.274.373-.4a3.283 3.283 0 00-.248-.339l-.005-.003zm-.736.504a3.786 3.786 0 00-.323 1.151v.168c0 .057 0 .08-.008.119.145-.203.332-.456.541-.72a1.93 1.93 0 00-.207-.718h-.004zm-.466.322c.063-.216.157-.422.279-.613-.441-.6-1.174-1.01-1.825-1.268.026.065.053.135.079.206.504.302 1.184.841 1.467 1.675zm.622-.951c.099-.067.21-.116.326-.146-.798-.793-1.93-1.288-2.63-1.54l-.042.186c.76.267 1.747.736 2.351 1.5h-.005zm1.262 3.112c.165-.04.32-.114.454-.216.134-.101.245-.229.324-.374l.02.01c.15-.44.217-.904.199-1.368-.137.184-.29.357-.457.517l-.06.126c.016.236-.017.474-.099.698-.081.224-.21.43-.376.604l-.005.003zm.426.098a1.768 1.768 0 01-.803.198 3.52 3.52 0 01-1.223.432v.025l.043.084c.46.102.941.046 1.36-.16a3.032 3.032 0 00.625-.579h-.002zm-2.935 1.64a.93.93 0 00.35-.23.88.88 0 00.206-.357 1.375 1.375 0 00-.131-.277l-.083.057a2.284 2.284 0 01-.335.808h-.007zm.618-1.651a2.18 2.18 0 00-.073-.28 3.303 3.303 0 01-.166.342c.027.021.06.046.096.077.049-.045.097-.091.143-.14zm.088-.574c.047.11.086.222.117.337.092-.12.172-.246.24-.379a9.765 9.765 0 01-.357.037V10zm-.063 2.038a1.09 1.09 0 01-.34.323 1.14 1.14 0 01-.45.156v.067h.748v-.011c.038-.175.051-.355.04-.534l.002-.001zm1.07-.56c-.236.028-.474.02-.707-.022.023.057.042.114.058.173.222-.024.439-.077.646-.155l.003.005zm-4.095 5.137a.122.122 0 01.036.107c.021.065 0 .069-.075.016a.209.209 0 01-.068-.05 7.5 7.5 0 01-.249.157 3.835 3.835 0 01-1.578.552c.247.368.431.773.544 1.198.22.067.45.105.68.111.695.014 1.419-.047 1.448-.863a1.67 1.67 0 00-.117-.63 3.815 3.815 0 00-.419-.743 5.747 5.747 0 01-.201.144l-.001.001zm-2.195.81c-.038 0-.083.01-.131.013.003.233-.037.465-.117.685.263.156.54.29.828.398a3.915 3.915 0 00-.577-1.097h-.003zm-3.213-.079l-.053-.066v.089h.03l.023-.028v.005zm.803-.677c.144.102.316.16.495.167a.578.578 0 00.354-.18l.14-.212c-.293.055-.544.098-.697.117a4.12 4.12 0 01-.226.024l-.066.09v-.005zm-2.566-1.547c.14.147.297.28.465.398.196-.16.343-.367.43-.6l-.318-.378c-.176.169-.37.362-.577.577v.003zm.967.62a.666.666 0 00.547-.126c0-.273 0-.519-.007-.731l-.104.06a1.924 1.924 0 01-.436.796zm.739-.287c.108-.098.203-.208.284-.328l-.276-.357-.017.01.009.675zm.366.527c.117.024.394.075.667.113l.363-.477a3.473 3.473 0 01-.527-.264c-.097.127-.194.253-.293.371a8.349 8.349 0 01-.208.253l-.002.004zm.896.141c.111.013.224.018.336.015a.702.702 0 00.102-.011c.082-.023.165-.047.246-.073a1.76 1.76 0 00.236-.127l.03-.046a2.536 2.536 0 01-.173-.08 3.316 3.316 0 01-.46-.126c-.103.143-.208.29-.317.438v.01zM7.91 7.065c-.09.046-.178.096-.263.15a2.036 2.036 0 00-.5.457 6.711 6.711 0 01.721.172l.14-.126-.098-.653zm3.176-1.435a20.74 20.74 0 011.162-.09c.176-.007.322-.008.443-.006a3.178 3.178 0 00-.288-.58 4.039 4.039 0 00-1.467.344c.057.108.105.218.146.332h.004zm1.65.03h-.482c-.263.012-.526.03-.738.048.516.03.937.12 1.275.138a2.108 2.108 0 00-.055-.193v.006zm-8.64 5.169c.022.05.026.105.01.157a.235.235 0 01-.095.129c.018.23.052.457.103.681.06.277.131.538.213.786.062-.313.218-.6.447-.83a8.555 8.555 0 01-.373-.945c-.338-.044-.306.022-.306.022zm-.068-.425c.081-.015.163-.023.245-.025a4.292 4.292 0 01-.037-.137l-.204.126v.03l-.004.007zm.834.02c.154.025.325.059.517.104a2.588 2.588 0 01-.014-1.047c.07-.357.274-.677.572-.901a2.965 2.965 0 01-.066-.214 2.67 2.67 0 00-.75.922 2.56 2.56 0 00-.264 1.142l.005-.005zm.87.195c.067.019.131.04.196.06a1.97 1.97 0 01.263-1.11c.054-.1.12-.194.195-.281a2.695 2.695 0 01.017-.618c-.033.016-.065.03-.095.048-.16.086-.3.205-.407.348-.107.143-.18.307-.212.48-.066.357-.05.723.047 1.073h-.004zm.247.564l-.087-.028.016.042.071-.014zm-.465-.137l-.154-.04a12.128 12.128 0 00-.471-.11c.009.071.02.143.034.218.054.141.11.274.166.395a2.28 2.28 0 01.503-.229 5.215 5.215 0 01-.078-.234zm2.723 6.299l-.008.073.052-.057-.044-.017zM21.074 7.6c-.02.027-.045.055-.067.086-.064.09-.131.184-.192.28 0 .032.01.067.013.104.09-.152.173-.31.246-.47zm-.425.631c-.081.138-.159.278-.231.413.088-.105.167-.21.24-.313l-.009-.1zm-.517.687c.132-.275.307-.595.494-.897a2.55 2.55 0 00-.042-.253c-.106-.531-.462-.444-.888-.098.237.386.386.816.436 1.262v-.014zm-14.569 5.3c.184-.259.42-.48.696-.648a5.444 5.444 0 01-.901-.884c-.125.136-.22.295-.28.467a1.32 1.32 0 00-.071.534c.16.199.346.376.556.525v.006zm.79-.52c-.26.156-.485.362-.658.605.142.088.291.165.446.232l.07-.048c.007-.05.02-.136.036-.286.022-.17.056-.34.102-.505l.004.001zm3.121-9.075v.136a8.43 8.43 0 01-.06.67c.18-.187.375-.361.582-.52a1.99 1.99 0 00-.517-.286h-.005zm-.143 1.388c-.026.17-.051.332-.076.479.087-.1.18-.193.278-.282l-.202-.197zM8.964 4.02a6.098 6.098 0 00-.067-.468c-.253.15-.493.32-.72.504.26-.05.526-.063.79-.036h-.003zm9.178 2.131c.403-.22.772-.494 1.095-.815a.986.986 0 00-.403-.029c-.18.02-.355.06-.526.115-.15.183-.284.378-.403.58.08.048.16.098.241.15h-.004zm-.351-.213c.088-.151.185-.298.29-.439a5.102 5.102 0 00-.598.271c.101.053.204.109.308.168zm1.856 3.558c-.258.16-.54.28-.835.358-.111.303-.275.586-.485.836.683-.186 1.21-.545 1.316-1.194h.004zm-2.34.512c-.098 0-.191-.01-.278-.019.07.07.135.147.192.227.032-.068.06-.137.086-.208zm-.44-.166c.158.022.316.035.475.039.057-.188.091-.382.102-.577.044-.904-.425-1.532-.91-1.937.056.256.084.517.082.778.042.296.06.594.053.893 0 .23-.016.444-.028.643.08.049.155.102.226.16zm.995.025c.131-.011.279-.027.43-.048.109-.253.169-.524.178-.798-.271.357-.494.678-.608.846zm.99-.152a2.97 2.97 0 00.808-.378v-.145a2.587 2.587 0 00-.329-1.19c-.138.143-.277.3-.414.463a2.762 2.762 0 01-.067 1.25h.002zm-2.345-.883c-.073.23-.196.441-.362.62.117.041.23.09.338.147.01-.174.019-.36.023-.557v-.21zm-.703-.019l.054.1c.013.026.027.052.038.078.062-.126.158-.418.05-.9-.15-.665-.502-.126-.502-.126.183.194.3.587.36.844v.004zm.33.967c.05.353.038.712-.034 1.061.088 0 .177.01.263.014.033-.228.069-.534.096-.911a2.049 2.049 0 00-.326-.164h.002zM7.02 7.33c.13-.143.28-.27.444-.378.213-.14.445-.251.69-.329a4.795 4.795 0 00-.304.05l-.015.022-.024-.008a3.334 3.334 0 00-1.073.421c.095.07.203.154.281.222zm-.544 2.385a1.684 1.684 0 00-.225.944c.094-.305.22-.601.374-.883.143-.269.346-.505.593-.692a1.37 1.37 0 00-.742.631zm-1.542 2.353c-.465.551-.289 1.262-.288 1.262l-.03.006c.042.092.084.183.132.27a1.547 1.547 0 01.452-1.114 4.127 4.127 0 01-.263-.42l-.003-.004zm.527-5.78A3.12 3.12 0 005.22 6a3.27 3.27 0 00-.714 1.415c.387-.018.773.039 1.137.165.03-.07.066-.137.108-.202a2.614 2.614 0 01-.29-1.091zm8.007-3.303c-.06-.043-.125-.083-.192-.126.087.017.171.035.253.055l-.06.068v.003zm3.148 7.067c-.026.329-.058.6-.088.81h.285a3.4 3.4 0 00.227-.321 1.539 1.539 0 00-.424-.491v.002zm-.142 2.524l.049-.05a2.13 2.13 0 00-.149-.551l-.026.008c-.086.066-.169.127-.248.185-.004.084 0 .168.013.252l.02.146c.11 0 .224.007.341.008v.002zm1.201.316h-.658a1.965 1.965 0 01-.11.505c.123.039.254.077.394.115a1.97 1.97 0 00.38-.623l-.006.003zm-.763-.863c.075-.12.138-.247.188-.379-.097.052-.19.097-.276.138.031.073.06.151.088.237v.004zm-.237 1.829a1.06 1.06 0 01-.07.094l-.189-.15-.068-.015.159.282c.118-.048.231-.107.338-.175l-.17-.037zm-10.11 1.02l.034.032c.136.083.3.115.46.09 0 0-.143-.127-.247-.236a2.357 2.357 0 01-.248-.392s-.131.347 0 .505h.002zm2.466 1.64a6.354 6.354 0 01-.382-.08 1.71 1.71 0 01-.42.64c.077.03.156.058.236.085.182-.202.371-.418.566-.645zm-4.999-.537a.075.075 0 01.015-.06.084.084 0 01.12-.01.077.077 0 01.027.057s.18 1.933 1.302 1.188A3.032 3.032 0 014.292 15.9a.122.122 0 01-.002-.095.129.129 0 01.167-.072.13.13 0 01.072.065c.258.503.672.916 1.184 1.184.151-.136.29-.283.419-.44l.043-.05a4.34 4.34 0 01-.64-.465 4.396 4.396 0 01-1.03-1.4c-.453.283-.92.805-.789 1.738.042.403.222.781.512 1.075a1.55 1.55 0 001.573.348c.19-.068.36-.183.49-.333a2.98 2.98 0 01-.624-.213c-1.413 1.112-1.634-1.256-1.634-1.262l-.001.003zm2.326.297l.081-.1a7.821 7.821 0 01-1.484-1.672l-.088-.058-.106.047c.228.501.559.954.972 1.331.193.17.402.32.625.452zm.238-.304l.263-.327-.449.167c.06.055.123.108.182.16h.004zm.84-1.041c.176-.227.339-.434.49-.624-.176-.102-.486-.228-.713-.017-.251.232.052.512.224.64zm-.87 1.345l-.065.076c.133.072.269.138.408.197a11.3 11.3 0 01-.343-.273zm2.56.371c-.167.196-.333.379-.492.562.163.048.327.087.485.126 0-.234 0-.462.008-.682v-.006zM5.983 7.103c.068-.069.142-.133.22-.193a2.809 2.809 0 01.262-1.701c-.072.017-.143.039-.213.064-.686.572-.459 1.402-.273 1.83h.004zm1.754-.883c.104-.02.207-.038.307-.052a1.308 1.308 0 01.072-.866 4.289 4.289 0 00-.46-.113c-.121.504-.033.83.081 1.03zM5.53 7.806a2.735 2.735 0 00-1.072-.138c-.034.2-.055.4-.063.602-.007.173 0 .347 0 .52.301-.4.686-.734 1.13-.984h.005zm-2.85 1.366a1.004 1.004 0 00.224.46c.089.117.217.2.363.236.037.01.075.01.11 0a.106.106 0 00.056-.048.29.29 0 000-.204c-.04-.173-.317-.327-.612-.405a1.45 1.45 0 00-.142-.034v-.005zm-.161.339a1.288 1.288 0 01-.11-.367.517.517 0 00-.226.041.106.106 0 00-.044.036.1.1 0 00-.019.053c-.009.22.24.289.437.315a1.867 1.867 0 01-.037-.072l-.001-.006zm8.12-4.653c.046.056.09.114.13.174a4.172 4.172 0 011.419-.379c-.06-.074-.132-.148-.198-.22l-.131.012a3.224 3.224 0 00-1.229.41l.008.003zm-.025.883a1.892 1.892 0 00-.09-.202c-.11.078-.21.167-.3.264.104-.019.238-.04.394-.058l-.004-.004zm2.467-1.136c.195 0 .375-.01.54-.01a3.714 3.714 0 00-.636-.145c.034.052.067.104.096.155zm7.301 9.753c-.201 0-.412-.013-.628-.029.08.127.194.253.332.253a.371.371 0 00.18-.07.349.349 0 00.116-.149v-.005zM4.146 9.85a3.062 3.062 0 00-.05.182l.08-.048-.03-.134zm-.97 2.69a2.855 2.855 0 01-.105-1.071 1.147 1.147 0 00-.05.68c.035.133.087.26.157.38l-.002.01zm12.46-.631c.07-.046.145-.096.222-.152a.244.244 0 00.027-.084.3.3 0 00-.05-.193.322.322 0 00-.162-.124s.024.335-.063.48c-.028.049-.012.073.026.074v-.001zm-8.01 1.136a.55.55 0 00.324.144c.15-.012.211-.192.211-.192a1.916 1.916 0 01-.535.048zm6.288 1.43c.12.038.25.039.37.005a.634.634 0 00.309-.196.796.796 0 00.188-.743c-.08.228-.22.432-.407.593a3.234 3.234 0 01-.46.342zm-.083-.577a.466.466 0 00.395-.085c.205-.149.087-.401.087-.401l-.482.486zm.967.748s.418-.024.58-.252c.162-.229-.093-.6-.093-.6a1.34 1.34 0 01-.088.462.628.628 0 01-.152.237.662.662 0 01-.243.152l-.004.001zm.279-5.381s.016.392.231.45c.216.056.162-.22.162-.22a.39.39 0 01-.2 0c-.12-.03-.193-.228-.193-.228v-.002zm-.132-.683s-.08.3.05.432a.937.937 0 00.403.185 2.697 2.697 0 00-.46-.62l.007.003zm.195-.87s.125-.407-.038-.593c-.163-.185-.567-.126-.567-.126l.605.713v.007zm-1.029-.083s.044-.36-.325-.732a.474.474 0 00-.352-.167.495.495 0 00-.364.143s.486.168.657.325a4.7 4.7 0 01.387.431h-.003zM7.24 10.458a.996.996 0 01.21-.29s-.212-.028-.247.071a.305.305 0 00.037.218zm-.758 2.058s-.08.126.098.252c.177.127.608-.108.608-.108-.11.008-.22.004-.328-.013a1.482 1.482 0 01-.38-.126l.002-.005zm1.036-.41a1.216 1.216 0 00-.08.462c0 .071.018.142.056.204.037.062.09.113.155.149a2.198 2.198 0 01-.131-.815zm2.177 2.145c.021.121.077.234.16.327a.705.705 0 00.314.2c.074.02.152.031.23.031h.217c.113-.024.221-.066.32-.126a1.71 1.71 0 01-.215-.02h-.178a3.143 3.143 0 01-.182-.042 2.384 2.384 0 01-.671-.362l.005-.008zm2.558 1.22a.157.157 0 00-.034.129.154.154 0 00.026.063.164.164 0 00.052.046c.157.09.332.039.197-.022a.7.7 0 01-.24-.215zm.25-.309s.38.48.756.491c.375.012.705-.874.705-.874-.148.15-.328.268-.526.347-.38.174-.93.036-.93.036h-.005z"/></symbol><symbol id="hero"><circle cx="12" cy="12" r="12" fill="#F3EC26"/><path fill-rule="evenodd" clip-rule="evenodd" d="M8.237 12.44A3.568 3.568 0 0011.802 16a3.568 3.568 0 003.564-3.56H8.237z" fill="#1D1D1B"/><path fill-rule="evenodd" clip-rule="evenodd" d="M9.797 15.4c.57.378 1.26.6 2.005.6.744 0 1.435-.222 2.005-.6-.277-.814-1.07-1.402-2.005-1.402-.935 0-1.728.588-2.005 1.402zM4.45 12.218a1.336 1.336 0 11-2.67-.001 1.336 1.336 0 012.67.001z" fill="#F19EB5"/><mask id="a" style="mask-type:alpha" maskUnits="userSpaceOnUse" x="2" y="8" width="5" height="5"><path d="M2.697 8.89h3.545v3.543H2.697V8.89z" fill="#fff"/></mask><g mask="url(#a)"><path fill-rule="evenodd" clip-rule="evenodd" d="M6.242 10.662a1.772 1.772 0 11-3.545 0 1.772 1.772 0 013.545 0z" fill="#040405"/></g><path fill-rule="evenodd" clip-rule="evenodd" d="M4.674 10.327a.78.78 0 11-1.559-.001.78.78 0 011.559.001z" fill="#97A19B"/><path fill-rule="evenodd" clip-rule="evenodd" d="M19.153 12.218a1.336 1.336 0 102.672-.001 1.336 1.336 0 00-2.672.001z" fill="#F19EB5"/><path fill-rule="evenodd" clip-rule="evenodd" d="M17.148 10.883c0 .983.798 1.78 1.783 1.78a1.78 1.78 0 100-3.56c-.985 0-1.783.797-1.783 1.78z" fill="#040405"/><path fill-rule="evenodd" clip-rule="evenodd" d="M17.594 10.327a.78.78 0 101.558-.001.78.78 0 00-1.558.001z" fill="#97A19B"/></symbol><symbol id="HouseSimple"><path fill-rule="evenodd" clip-rule="evenodd" d="M10.99 2.903a1.5 1.5 0 012.018 0l7.501 6.819a1.5 1.5 0 01.491 1.11V19.5a1.5 1.5 0 01-1.5 1.5h-15A1.5 1.5 0 013 19.5v-8.668a1.5 1.5 0 01.49-1.11l.505.555-.504-.555 7.5-6.82zm8.51 7.929L12 4.012l-7.5 6.82V19.5h15v-8.668z"/></symbol><symbol id="Megaphone"><path fill-rule="evenodd" clip-rule="evenodd" d="M20.25 3.954v14.592a18.814 18.814 0 00-7.136-3.755 16.39 16.39 0 00-2.614-.495V8.204l.21-.022a16.395 16.395 0 002.404-.472 18.815 18.815 0 007.136-3.755zM9 8.25H6a3 3 0 000 6h3v-6zm0 7.5H6.96l1.01 4.036L9 19.099v-3.35zm-3.595-.04A4.5 4.5 0 016 6.75H9.789l.15-.007c.134-.007.338-.022.599-.052.523-.061 1.277-.183 2.181-.43a17.31 17.31 0 006.566-3.456 1.5 1.5 0 012.465 1.148v14.594a1.501 1.501 0 01-2.465 1.148 17.308 17.308 0 00-6.566-3.457 14.91 14.91 0 00-2.181-.429l-.038-.004v3.294a1.5 1.5 0 01-.668 1.248l-1.03.687a1.5 1.5 0 01-2.288-.885l-1.11-4.439z"/></symbol><symbol id="NewspaperClipping"><path d="M13.5 9.75a.75.75 0 000 1.5H18a.75.75 0 000-1.5h-4.5zM12.75 13.5a.75.75 0 01.75-.75H18a.75.75 0 010 1.5h-4.5a.75.75 0 01-.75-.75z"/><path fill-rule="evenodd" clip-rule="evenodd" d="M6 8.25a.75.75 0 00-.75.75v6c0 .414.336.75.75.75h4.5a.75.75 0 00.75-.75V9a.75.75 0 00-.75-.75H6zm.75 6v-4.5h3v4.5h-3z"/><path fill-rule="evenodd" clip-rule="evenodd" d="M3.75 3.75a1.5 1.5 0 00-1.5 1.5v15a.75.75 0 001.085.67L6 19.589l2.665 1.333a.75.75 0 00.67 0L12 19.589l2.665 1.332a.75.75 0 00.67 0L18 19.589l2.665 1.332a.75.75 0 001.085-.671v-15a1.5 1.5 0 00-1.5-1.5H3.75zm0 1.5h16.5v13.787l-1.915-.958a.75.75 0 00-.67 0L15 19.411l-2.665-1.332a.75.75 0 00-.67 0L9 19.411 6.335 18.08a.75.75 0 00-.67 0l-1.915.957V5.25z"/></symbol><symbol id="PresentationChart"><path d="M9 10.5a.75.75 0 01.75.75v2.25a.75.75 0 01-1.5 0v-2.25A.75.75 0 019 10.5zM12.75 9.75a.75.75 0 00-1.5 0v3.75a.75.75 0 001.5 0V9.75zM15 7.5a.75.75 0 01.75.75v5.25a.75.75 0 01-1.5 0V8.25A.75.75 0 0115 7.5z"/><path fill-rule="evenodd" clip-rule="evenodd" d="M12.75 2.25a.75.75 0 00-1.5 0v1.5h-7.5a1.5 1.5 0 00-1.5 1.5V16.5a1.5 1.5 0 001.5 1.5h3.69l-2.026 2.532a.75.75 0 101.172.936L9.36 18h5.278l2.775 3.468a.75.75 0 101.172-.936L16.56 18h3.689a1.5 1.5 0 001.5-1.5V5.25a1.5 1.5 0 00-1.5-1.5h-7.5v-1.5zm-9 3V16.5h16.5V5.25H3.75z"/></symbol><symbol id="RocketLaunch"><path d="M7.409 14.945a.75.75 0 01-.475.948c-1.272.424-1.948 1.49-2.31 2.575a7.23 7.23 0 00-.282 1.19 7.221 7.221 0 001.19-.282c1.085-.362 2.15-1.038 2.575-2.31a.75.75 0 111.423.474c-.637 1.91-2.223 2.825-3.524 3.259a8.844 8.844 0 01-2.267.429l-.224.007a.75.75 0 01-.75-.75l.001-.066.006-.158a8.846 8.846 0 01.429-2.267c.434-1.301 1.349-2.887 3.259-3.524a.75.75 0 01.949.475z"/><path fill-rule="evenodd" clip-rule="evenodd" d="M20.08 2.661c-1.196-.178-3.868-.176-6.489 2.445l-.84.84H7.008a1.5 1.5 0 00-1.061.44L2.915 9.418a1.5 1.5 0 00.766 2.531l3.707.741 3.921 3.922.742 3.707a1.5 1.5 0 002.531.767l3.032-3.033a1.5 1.5 0 00.44-1.06V11.25l.84-.841c2.621-2.62 2.623-5.292 2.445-6.488a1.496 1.496 0 00-1.26-1.26zm-5.428 3.505c2.197-2.197 4.343-2.15 5.204-2.022.128.861.175 3.007-2.022 5.204L12 15.182 8.818 12l5.834-5.834zm-7.644 1.28h4.243l-3.74 3.74-3.535-.708 3.032-3.032zm5.806 9.043l3.74-3.74v4.244l-3.032 3.032-.708-3.536z"/></symbol><symbol id="SquaresFour"><path fill-rule="evenodd" clip-rule="evenodd" d="M4.25 4.5A.75.75 0 015 3.75h6a.75.75 0 01.75.75v6a.75.75 0 01-.75.75H5a.75.75 0 01-.75-.75v-6zm1.5.75v4.5h4.5v-4.5h-4.5zM13.25 4.5a.75.75 0 01.75-.75h6a.75.75 0 01.75.75v6a.75.75 0 01-.75.75h-6a.75.75 0 01-.75-.75v-6zm1.5.75v4.5h4.5v-4.5h-4.5zM4.25 13.5a.75.75 0 01.75-.75h6a.75.75 0 01.75.75v6a.75.75 0 01-.75.75H5a.75.75 0 01-.75-.75v-6zm1.5.75v4.5h4.5v-4.5h-4.5zM13.25 13.5a.75.75 0 01.75-.75h6a.75.75 0 01.75.75v6a.75.75 0 01-.75.75h-6a.75.75 0 01-.75-.75v-6zm1.5.75v4.5h4.5v-4.5h-4.5z"/></symbol><symbol id="telegram"><path fill-rule="evenodd" clip-rule="evenodd" d="M20.157 2.713a1.5 1.5 0 012.006 1.725l-.001.004-3.525 15.394a1.501 1.501 0 01-2.456.789l-3.69-3.247-2.425 2.425A1.5 1.5 0 017.5 18.751v-5.49l-4.395-.882h-.003c-1.442-.296-1.663-2.316-.254-2.868l17.306-6.797h.003zM9 14.306v4.442l.004-.004 2.359-2.359L9 14.305zm3.98 1.504a.775.775 0 00-.053-.046l-3.476-3.06 11.12-8.03L17.174 19.5l-.002-.002-4.193-3.69zM3.4 10.908v-.002l13.106-5.147-8.43 6.088-4.673-.938H3.4z"/></symbol><symbol id="TextAlignRight"><path fill-rule="evenodd" clip-rule="evenodd" d="M4 8.5a1 1 0 011-1h22a1 1 0 110 2H5a1 1 0 01-1-1zM10 13.5a1 1 0 011-1h16a1 1 0 110 2H11a1 1 0 01-1-1zM4 18.5a1 1 0 011-1h22a1 1 0 110 2H5a1 1 0 01-1-1zM10 23.5a1 1 0 011-1h16a1 1 0 110 2H11a1 1 0 01-1-1z"/></symbol><symbol id="Translate"><path fill-rule="evenodd" clip-rule="evenodd" d="M8.25 2.25A.75.75 0 019 3v1.5h5.25a.75.75 0 010 1.5h-2.279a9.75 9.75 0 01-2.595 5.905l.11.079a8.253 8.253 0 004.308 1.5l2.035-4.07a.75.75 0 011.342 0l3.744 7.489a.94.94 0 01.012.024l1.494 2.988a.75.75 0 01-1.342.67L19.786 18h-6.572l-1.293 2.585a.75.75 0 01-1.342-.67l1.492-2.984.016-.031.987-1.974a9.753 9.753 0 01-4.823-1.992A9.75 9.75 0 012.25 15a.75.75 0 010-1.5 8.25 8.25 0 004.875-1.595 9.753 9.753 0 01-2.07-3.404A.75.75 0 116.47 8a8.253 8.253 0 001.78 2.912A8.25 8.25 0 0010.466 6H2.25a.75.75 0 010-1.5H7.5V3a.75.75 0 01.75-.75zM19.037 16.5L16.5 11.427 13.964 16.5h5.072z"/></symbol><symbol id="UserCircle"><path fill-rule="evenodd" clip-rule="evenodd" d="M18.528 19.242A9.725 9.725 0 0021.75 12c0-5.385-4.365-9.75-9.75-9.75S2.25 6.615 2.25 12a9.725 9.725 0 003.24 7.259A9.714 9.714 0 0012 21.75a9.714 9.714 0 006.514-2.495l.014-.013zM12 3.75a8.25 8.25 0 00-6.167 13.73 7.503 7.503 0 013.383-2.694 4.5 4.5 0 115.568 0 7.496 7.496 0 013.383 2.694A8.25 8.25 0 0012 3.75zm5.057 14.769a6 6 0 00-8.195-1.883 6.001 6.001 0 00-1.92 1.883A8.214 8.214 0 0012 20.25c1.906 0 3.66-.646 5.057-1.731zM12 14.25a3 3 0 100-6 3 3 0 000 6z"/></symbol><symbol id="vk"><path d="M11.366 6.7h.26c.545.012.999.046 1.362.137.136.034.249.08.34.136.09.057.159.136.204.238.045.102.08.215.102.318.023.113.034.26.034.453s0 .374-.011.556c-.012.17-.012.408-.023.703s-.011.578-.011.828c0 .079 0 .215-.012.419a3.443 3.443 0 000 .488c0 .113.012.249.034.408.057.442.238.623.454.623.215 0 .465-.158.703-.396.136-.148.317-.363.521-.67.204-.306.431-.668.68-1.077.398-.691.76-1.53 1.078-2.347.09-.227.306-.408.703-.408h2.993c.465 0 .703.057.805.306.102.25-.294 1.497-1.451 3.039-.181.215-.397.499-.669.85-.521.67-.828 1.112-.907 1.316-.284.669.544 1.247.952 1.633.306.283 1.713 1.791 1.973 2.256.125.204.193.499.136.737-.056.204-.34.397-.839.397h-.725c-.85 0-1.815-.012-2.268-.012-.624 0-1.18-.567-1.576-.986a12.348 12.348 0 01-.692-.782 3.232 3.232 0 00-.612-.579c-.159-.113-.295-.158-.42-.158-.25 0-.453.192-.612.487-.068.114-.125.295-.17.522a4.024 4.024 0 00-.068.782.99.99 0 01-.034.272c-.08.295-.352.431-.646.454h-1.27a5.233 5.233 0 01-2.688-.703 10.84 10.84 0 01-1.031-.67 8.476 8.476 0 01-.715-.577 4.525 4.525 0 01-.521-.522 34.94 34.94 0 01-.715-.918 19.752 19.752 0 01-1.077-1.509c-.34-.544-.76-1.247-1.225-2.12-.476-.873-.907-1.87-1.315-2.812-.159-.442.136-.714.59-.714h2.755c.272 0 .578.215.68.499.443 1.1.976 2.267 1.6 3.276.18.295.34.522.487.692.136.17.283.295.42.397.147.102.26.148.374.148.328 0 .487-.409.544-.794.147-.919.193-1.894 0-2.801-.125-.612-.397-.93-1.055-1.032-.09-.011-.068-.09.046-.238.113-.125.238-.227.385-.306.329-.159 1.043-.238 2.143-.238zm0-1.7c-1.429 0-2.29.125-2.891.42a2.872 2.872 0 00-.896.691l-.023.023-.034.034c0 .011-.011.011-.011.023-.454-.488-1.1-.794-1.769-.794H2.987c-.817 0-1.531.351-1.962.964C.617 6.95.538 7.699.81 8.4l.011.035.011.034c.42.975.874 2.007 1.384 2.96.499.929.93 1.666 1.304 2.244.374.567.748 1.111 1.134 1.622.51.669.691.895.793 1.009.216.25.443.465.635.646.204.204.5.454.896.726.352.26.748.51 1.18.76a6.89 6.89 0 003.526.93h1.326l.068-.012c.93-.08 1.678-.59 2.019-1.36.51.532 1.406 1.36 2.664 1.36h.783c.453 0 .986.011 1.485.011h.748c1.214 0 2.189-.657 2.46-1.666.182-.658.058-1.418-.305-2.03-.488-.85-2.245-2.62-2.268-2.63-.068-.069-.147-.137-.238-.216.09-.125.204-.272.351-.465.284-.374.51-.658.67-.884.691-.919 2.244-3.22 1.678-4.672-.363-.93-1.168-1.395-2.393-1.395h-2.994c-1.043 0-1.916.567-2.279 1.486-.056.158-.113.294-.17.442-.011-.046-.011-.102-.022-.148a3.535 3.535 0 00-.216-.669 2.248 2.248 0 00-.85-.986 2.721 2.721 0 00-.828-.352c-.487-.113-1.043-.17-1.723-.181h-.284z"/></symbol></svg>