<svg xmlns="http://www.w3.org/2000/svg" xmlns:xlink="http://www.w3.org/1999/xlink"><symbol id="arrow-circle-right"><path d="M16 29.334c7.346 0 13.333-5.987 13.333-13.334 0-7.347-5.987-13.333-13.333-13.333C8.653 2.667 2.666 8.653 2.666 16S8.653 29.334 16 29.334zm-3.72-14.04l4.706-4.707a.99.99 0 01.707-.293.99.99 0 01.707.293 1.006 1.006 0 010 1.413l-4 4 4 4a1.006 1.006 0 010 1.413 1.006 1.006 0 01-1.414 0l-4.706-4.706a.982.982 0 010-1.414z"/></symbol><symbol id="arrow-right"><path d="M30.4 20.98l-3.94-3.94-6.42-6.42c-1.36-1.34-3.68-.38-3.68 1.54v23.68c0 1.92 2.32 2.88 3.68 1.52L30.4 27c1.66-1.64 1.66-4.36 0-6.02z" fill="#5759CE"/></symbol><symbol id="book"><path d="M22.5 4.85v11.89c0 .97-.79 1.86-1.76 1.98l-.31.04c-1.64.22-3.95.9-5.81 1.68-.65.27-1.37-.22-1.37-.93V5.6c0-.37.21-.71.54-.89 1.83-.99 4.6-1.87 6.48-2.03h.06c1.2 0 2.17.97 2.17 2.17zM11.21 4.71c-1.83-.99-4.6-1.87-6.48-2.03h-.07c-1.2 0-2.17.97-2.17 2.17v11.89c0 .97.79 1.86 1.76 1.98l.31.04c1.64.22 3.95.9 5.81 1.68.65.27 1.37-.22 1.37-.93V5.6a1 1 0 00-.53-.89zM5.5 7.74h2.25a.749.749 0 110 1.5H5.5a.749.749 0 110-1.5zm3 4.5h-3a.749.749 0 110-1.5h3a.749.749 0 110 1.5z" fill="#fff"/></symbol><symbol id="brifecase-tick"><path d="M28.12 9.307c-1.133-1.254-3.013-1.88-5.773-1.88h-.32v-.054c0-2.24 0-5.013-5.013-5.013h-2.027c-5.013 0-5.013 2.773-5.013 5.013v.054h-.32c-2.76 0-4.654.626-5.774 1.88-1.32 1.48-1.28 3.44-1.146 4.786l.013.094.1 1.155a.5.5 0 00.226.378c.397.257.825.533 1.234.76.187.12.387.226.587.333 1.506.827 3.12 1.48 4.773 1.934C9.707 22.2 12.534 25 16 25a6.34 6.34 0 006.334-6.334v-.053a22.293 22.293 0 004.8-2.093c.08-.04.133-.08.2-.12.547-.298 1.116-.691 1.63-1.057a.499.499 0 00.207-.352l.096-.884c.013-.08.013-.147.027-.24.106-1.334.08-3.174-1.174-4.56zM11.88 7.373c0-2.266 0-3.12 3.107-3.12h2.027c3.106 0 3.106.854 3.106 3.12v.054h-8.24v-.054zM16 23a4.334 4.334 0 01-4.293-3.787 3.646 3.646 0 01-.04-.547A4.342 4.342 0 0116 14.333a4.342 4.342 0 014.334 4.333c0 .16-.014.307-.027.454v.013C20.067 21.307 18.227 23 16 23z"/><path d="M15.24 21.373a.989.989 0 01-.707-.293l-1.32-1.306a1.006 1.006 0 010-1.414 1.006 1.006 0 011.413 0l.64.64 2.147-1.973c.4-.373 1.04-.347 1.413.053.373.4.347 1.04-.053 1.414l-2.84 2.626c-.213.16-.454.253-.694.253z"/><path d="M28.056 18.308c.331-.184.762.083.727.46l-.474 5.18c-.28 2.667-1.373 5.387-7.24 5.387H10.91c-5.867 0-6.96-2.72-7.227-5.373l-.46-4.938c-.037-.384.373-.643.714-.463 1.04.574 2.12 1.08 3.226 1.48.414.147.707.494.827.92 1 3.467 4.227 6.04 8.013 6.04 3.854 0 7.107-2.626 8.054-6.226.106-.427.4-.773.813-.933 1.12-.44 2.187-.96 3.187-1.534z"/></symbol><symbol id="category-2"><path d="M24.893 2.667H22.36c-2.907 0-4.44 1.533-4.44 4.44V9.64c0 2.907 1.533 4.44 4.44 4.44h2.533c2.907 0 4.44-1.533 4.44-4.44V7.107c0-2.907-1.533-4.44-4.44-4.44zM9.654 17.907H7.12c-2.92 0-4.453 1.533-4.453 4.44v2.533c0 2.92 1.533 4.453 4.44 4.453H9.64c2.907 0 4.44-1.533 4.44-4.44V22.36c.014-2.92-1.52-4.453-4.426-4.453zM8.387 14.107a5.72 5.72 0 100-11.44 5.72 5.72 0 000 11.44zM23.614 29.333a5.72 5.72 0 100-11.44 5.72 5.72 0 000 11.44z"/></symbol><symbol id="crown"><path d="M17 22H7c-.41 0-.75-.34-.75-.75s.34-.75.75-.75h10c.41 0 .75.34.75.75s-.34.75-.75.75zM20.35 5.52l-4 2.86c-.53.38-1.29.15-1.52-.46l-1.89-5.04c-.32-.87-1.55-.87-1.87 0l-1.9 5.03c-.23.62-.98.85-1.51.46l-4-2.86c-.8-.56-1.86.23-1.53 1.16l4.16 11.65c.14.4.52.66.94.66h9.53c.42 0 .8-.27.94-.66l4.16-11.65c.34-.93-.72-1.72-1.51-1.15zm-5.85 9.23h-5c-.41 0-.75-.34-.75-.75s.34-.75.75-.75h5c.41 0 .75.34.75.75s-.34.75-.75.75z"/></symbol><symbol id="dollar-circle"><path d="M17.375 21.227h.867c.866 0 1.586-.774 1.586-1.707 0-1.16-.413-1.387-1.093-1.627l-1.347-.466v3.8h-.013z" fill="#5759CE"/><path d="M16.334 2.533c-7.36.027-13.32 6.014-13.293 13.374.027 7.36 6.013 13.32 13.373 13.293 7.36-.027 13.32-6.013 13.294-13.373-.027-7.36-6.014-13.307-13.374-13.294zM19.388 16c1.04.36 2.44 1.133 2.44 3.52 0 2.053-1.614 3.707-3.587 3.707h-.867V24c0 .547-.453 1-1 1-.546 0-1-.453-1-1v-.773h-.48c-2.186 0-3.96-1.84-3.96-4.107 0-.547.454-1 1-1 .547 0 1 .453 1 1 0 1.16.88 2.107 1.96 2.107h.48V16.72L13.361 16c-1.04-.36-2.44-1.133-2.44-3.52 0-2.053 1.613-3.707 3.587-3.707h.866V8c0-.547.454-1 1-1 .547 0 1 .453 1 1v.773h.48c2.187 0 3.96 1.84 3.96 4.107 0 .547-.453 1-1 1-.546 0-1-.453-1-1 0-1.16-.88-2.107-1.96-2.107h-.48v4.507l2.014.72z" fill="#5759CE"/><path d="M12.935 12.493c0 1.16.414 1.387 1.094 1.627l1.347.467v-3.814h-.867c-.867 0-1.574.774-1.574 1.72z" fill="#5759CE"/></symbol><symbol id="download"><path d="M22.53 9.47a.75.75 0 01.22.536M9.75 11a.75.75 0 00-1.5 0v4.19l-.72-.72a.75.75 0 10-1.06 1.06l1.996 1.996a.762.762 0 00.438.218.747.747 0 00.626-.214l2-2a.75.75 0 00-1.06-1.06l-.72.72V11z" fill="#5759CE"/><path fill-rule="evenodd" clip-rule="evenodd" d="M22.75 10.006V15c0 2.574-.51 4.57-1.845 5.905C19.571 22.24 17.574 22.75 15 22.75H9c-2.574 0-4.57-.51-5.905-1.845C1.76 19.571 1.25 17.574 1.25 15V9c0-2.574.51-4.57 1.845-5.905C4.429 1.76 6.426 1.25 9 1.25h4.993a.752.752 0 01.537.22l8 8m-9.28-6.72H9c-2.426 0-3.93.49-4.845 1.405C3.24 5.071 2.75 6.574 2.75 9v6c0 2.426.49 3.93 1.405 4.845.916.915 2.419 1.405 4.845 1.405h6c2.426 0 3.93-.49 4.845-1.405.915-.916 1.405-2.419 1.405-4.845v-4.25H18c-1.541 0-2.808-.247-3.655-1.095C13.497 8.808 13.25 7.542 13.25 6V2.75zM14.75 6V3.81l5.44 5.44H18c-1.459 0-2.192-.253-2.595-.655-.402-.403-.655-1.137-.655-2.595z" fill="#5759CE"/></symbol><symbol id="dzen_white"><path fill-rule="evenodd" clip-rule="evenodd" d="M4 16.28v-.367h.005A12.5 12.5 0 004 16.28zm0 0c0 .124.002.247.005.369H4v-.368zm11.914 12.282v-.006c.122.004.245.006.368.006h-.368zm.736-.006c-.122.004-.245.006-.368.006h.368v-.006zM28.558 16.65h.005v-.736h-.005a12.5 12.5 0 010 .736zM15.914 4.005a12.51 12.51 0 01.736 0V4h-.736v.005z" fill="#fff"/><path d="M16.65 4.006c.063 4.975.403 7.772 2.27 9.638 1.866 1.867 4.663 2.207 9.638 2.27-.19-6.49-5.418-11.717-11.908-11.908zM13.645 13.644c1.867-1.866 2.207-4.663 2.269-9.638-6.49.19-11.717 5.417-11.908 11.907 4.975-.062 7.772-.402 9.639-2.269zM4.006 16.649c.19 6.49 5.418 11.716 11.908 11.907-.062-4.975-.402-7.772-2.269-9.638-1.867-1.867-4.664-2.207-9.64-2.27zM28.558 16.649c-4.975.062-7.772.402-9.639 2.269-1.866 1.866-2.207 4.663-2.269 9.638 6.49-.19 11.717-5.417 11.909-11.907z" fill="#fff"/></symbol><symbol id="FacebookLogo"><path d="M16 29a13 13 0 110-25.999A13 13 0 0116 29zm0-24a11 11 0 100 22 11 11 0 000-22z" fill="#fff"/><path d="M16 29a1 1 0 01-1-1V14a4 4 0 01.3-1.53 4.001 4.001 0 012.17-2.17A3.43 3.43 0 0119 10h2a1 1 0 010 2h-2a1.561 1.561 0 00-.77.15 2 2 0 00-1.08 1.08c-.1.245-.151.506-.15.77v14a1 1 0 01-1 1z" fill="#fff"/><path d="M20 19h-8a1 1 0 010-2h8a1 1 0 010 2z" fill="#fff"/></symbol><symbol id="flash-circle"><path d="M15.96 2.667C8.6 2.667 2.627 8.64 2.627 16S8.6 29.333 15.96 29.333 29.294 23.36 29.294 16 23.334 2.667 15.96 2.667zm5 13.8L16 22.107l-.586.666c-.814.92-1.48.68-1.48-.56v-5.28h-2.267c-1.027 0-1.307-.626-.627-1.4L16 9.893l.587-.666c.813-.92 1.48-.68 1.48.56v5.28h2.267c1.026 0 1.306.626.626 1.4z"/></symbol><symbol id="flash"><path d="M17.91 10.72h-3.09v-7.2c0-1.68-.91-2.02-2.02-.76l-.8.91-6.77 7.7c-.93 1.05-.54 1.91.86 1.91h3.09v7.2c0 1.68.91 2.02 2.02.76l.8-.91 6.77-7.7c.93-1.05.54-1.91-.86-1.91z"/></symbol><symbol id="graph"><path d="M28.893 9.267c-.853-2.894-3.266-5.307-6.16-6.16-2.2-.64-3.72-.587-4.773.2-1.267.946-1.413 2.653-1.413 3.866v3.32c0 3.28 1.493 4.947 4.427 4.947H24.8c1.2 0 2.92-.147 3.867-1.413.813-1.04.88-2.56.226-4.76z"/><path d="M25.213 17.813a1.824 1.824 0 00-1.373-.626h-4.773a4.256 4.256 0 01-4.254-4.254V8.16c0-.52-.227-1.027-.627-1.373a1.807 1.807 0 00-1.426-.44c-3.133.4-6.013 2.12-7.893 4.706C2.973 13.653 2.28 16.827 2.88 20c.867 4.587 4.533 8.253 9.133 9.12.733.147 1.467.213 2.2.213 2.414 0 4.747-.746 6.734-2.2 2.586-1.88 4.306-4.76 4.706-7.893a1.792 1.792 0 00-.44-1.427z"/></symbol><symbol id="menu-board"><path d="M20.899 9.85l.59 9.89c.02.27-.11.45-.18.53-.08.09-.25.23-.53.23h-2.73l2.16-10.65h.69zm1.1-3.85l-.01.02c.02.24 0 .49-.06.74l-7.37 13.53a2.228 2.228 0 01-2.18 1.71h8.4a2.21 2.21 0 002.21-2.38L21.999 6zM11.45 2.24c.1-.4-.15-.81-.55-.91-.4-.09-.81.15-.91.55l-.5 2.07h1.54l.42-1.71zM18.049 2.21c.09-.41-.17-.8-.58-.89a.75.75 0 00-.89.58l-.45 2.07h1.54l.38-1.76z" fill="#fff"/><path d="M21.82 5.33c-.33-.8-1.11-1.37-2.07-1.37h-2.08l-.56 2.59c-.08.35-.39.59-.73.59-.05 0-.11 0-.16-.02a.765.765 0 01-.58-.89l.49-2.28h-5.1l-.63 2.6c-.08.34-.39.57-.73.57-.06 0-.12-.01-.18-.02a.75.75 0 01-.55-.91l.54-2.25H7.45c-.98 0-1.85.64-2.14 1.58L1.1 19.07C.66 20.52 1.73 22 3.24 22h13.14c1.04 0 1.94-.7 2.18-1.71l3.37-13.53c.06-.25.08-.5.06-.74a2 2 0 00-.17-.69zM14.7 16.75h-8c-.41 0-.75-.34-.75-.75s.34-.75.75-.75h8c.41 0 .75.34.75.75s-.34.75-.75.75zm1-4h-8c-.41 0-.75-.34-.75-.75s.34-.75.75-.75h8c.41 0 .75.34.75.75s-.34.75-.75.75z" fill="#fff"/></symbol><symbol id="messages-2"><path d="M49.253 44.88l1.04 8.427c.267 2.213-2.106 3.76-4 2.613L35.12 49.28c-1.227 0-2.427-.08-3.6-.24 1.973-2.32 3.147-5.253 3.147-8.427 0-7.573-6.56-13.706-14.667-13.706-3.093 0-5.947.88-8.32 2.427a16.904 16.904 0 01-.107-2.027c0-12.133 10.534-21.973 23.547-21.973s23.547 9.84 23.547 21.973c0 7.2-3.707 13.573-9.414 17.573z" stroke="#545454" stroke-width="4" stroke-linecap="round" stroke-linejoin="round" fill="transparent"/><path d="M34.666 40.613c0 3.174-1.173 6.107-3.146 8.427-2.64 3.2-6.827 5.253-11.52 5.253l-6.96 4.134c-1.174.72-2.667-.267-2.507-1.627l.667-5.253c-3.574-2.48-5.867-6.454-5.867-10.934 0-4.693 2.507-8.826 6.347-11.28 2.373-1.546 5.226-2.426 8.32-2.426 8.106 0 14.666 6.133 14.666 13.706z" stroke="#545454" stroke-width="4" stroke-linecap="round" stroke-linejoin="round" fill="transparent"/></symbol><symbol id="MicrosoftTeamsLogo"><path fill-rule="evenodd" clip-rule="evenodd" d="M19.492 8.668a.97.97 0 01.044-.064c.056-.088.107-.18.154-.274A3 3 0 0020 6.61a3 3 0 00-.05-.274 1.002 1.002 0 01-.231-.656 3.08 3.08 0 00-1.939-1.6 3 3 0 00-1.78.08 3 3 0 00-1.42 1A3.05 3.05 0 0014 6.81 3 3 0 0014.168 8H18a2 2 0 011.492.668zM22.23 9.76a2.3 2.3 0 01-.7-.551 5 5 0 00.47-2.86 5.004 5.004 0 00-.081-.433 2.26 2.26 0 01.81-.376 2.2 2.2 0 011.41.13A2.23 2.23 0 0125.48 8a2.28 2.28 0 01-.6 1.3 2.33 2.33 0 01-1.25.67 2.26 2.26 0 01-1.4-.21zM20.76 3.7c.112.124.217.253.316.387A4.26 4.26 0 0122.28 3.6a4.23 4.23 0 014.65 2 4.27 4.27 0 01-.134 4.4h.614A1.6 1.6 0 0129 11.59V19a5 5 0 01-4.577 4.982A7.998 7.998 0 0117 29a8 8 0 01-7.421-5H5a2 2 0 01-2-2V10a2 2 0 012-2h7.101A5.001 5.001 0 0113 4a5 5 0 012.39-1.73 5 5 0 012.9-.1 5.08 5.08 0 012.47 1.53zm4.195 18.144A3 3 0 0027 19v-7h-2v9c0 .283-.015.565-.045.844zM13.288 10a1 1 0 00.536 0H18v.351c-.01.079-.01.159 0 .238V22h-7.422A.995.995 0 0010 22H5V10h8.288zM18 24h-6.179a5.94 5.94 0 001.589 1.77A6 6 0 0017 27a6 6 0 006-6v-9h-3v10a2 2 0 01-2 2zM9.25 14h1.25v5a1 1 0 002 0v-5h1.25a1 1 0 000-2h-4.5a1 1 0 100 2z" fill="#fff"/></symbol><symbol id="percentage-circle"><path d="M16.874 2.667C9.514 2.667 3.541 8.64 3.541 16s5.973 13.333 13.333 13.333S30.208 23.36 30.208 16 24.234 2.667 16.874 2.667zm-4.36 7.546c1.08 0 1.974.88 1.974 1.974 0 1.08-.88 1.973-1.974 1.973-1.08 0-1.973-.88-1.973-1.973 0-1.094.88-1.974 1.973-1.974zm.16 10.854c-.2.2-.453.293-.706.293a.989.989 0 01-.707-.293 1.006 1.006 0 010-1.414l8.733-8.733a1.006 1.006 0 011.414 0 1.006 1.006 0 010 1.413l-8.734 8.734zm8.56.72c-1.08 0-1.973-.88-1.973-1.974 0-1.08.88-1.973 1.973-1.973 1.08 0 1.974.88 1.974 1.973 0 1.094-.88 1.974-1.974 1.974z" fill="#5759CE"/></symbol><symbol id="profile-remove"><path d="M12.5 2C9.88 2 7.75 4.13 7.75 6.75c0 2.57 2.01 4.65 4.63 4.74.08-.01.16-.01.22 0h.07a4.738 4.738 0 004.58-4.74C17.25 4.13 15.12 2 12.5 2zM17.58 14.16c-2.79-1.86-7.34-1.86-10.15 0-1.27.84-1.97 1.99-1.97 3.22 0 1.23.7 2.37 1.96 3.21 1.4.94 3.24 1.41 5.08 1.41 1.84 0 3.68-.47 5.08-1.41 1.26-.85 1.96-1.99 1.96-3.23-.01-1.22-.7-2.37-1.96-3.2zm-3.25 3.91h-3.65c-.38 0-.69-.31-.69-.69 0-.38.31-.69.69-.69h3.65c.38 0 .69.31.69.69 0 .38-.31.69-.69.69z" fill="#fff"/></symbol><symbol id="receipt-text"><path d="M7 2H6C3 2 2 3.79 2 6v15c0 .83.94 1.3 1.6.8l1.71-1.28c.4-.3.96-.26 1.32.1l1.66 1.67c.39.39 1.03.39 1.42 0l1.68-1.68c.35-.35.91-.39 1.3-.09l1.71 1.28c.66.49 1.6.02 1.6-.8V4c0-1.1.9-2 2-2H7zm4.25 11.75h-4.5c-.41 0-.75-.34-.75-.75s.34-.75.75-.75h4.5c.41 0 .75.34.75.75s-.34.75-.75.75zm.75-4H6c-.41 0-.75-.34-.75-.75s.34-.75.75-.75h6c.41 0 .75.34.75.75s-.34.75-.75.75z" fill="#fff"/><path d="M18.01 2v1.5c.66 0 1.29.27 1.75.72.48.49.74 1.12.74 1.78v2.42c0 .74-.33 1.08-1.08 1.08H17.5V4.01c0-.28.23-.51.51-.51V2zm0 0C16.9 2 16 2.9 16 4.01V11h3.42C21 11 22 10 22 8.42V6c0-1.1-.45-2.1-1.17-2.83A4.044 4.044 0 0018.01 2c.01 0 0 0 0 0z" fill="#fff"/></symbol><symbol id="received"><path d="M8.5 5.5H19m0 0V16m0-10.5l-14 14" stroke="#545454" stroke-width="2"/></symbol><symbol id="shopping-cart"><path d="M21.667 30a2.333 2.333 0 100-4.667 2.333 2.333 0 000 4.667zM11 30a2.333 2.333 0 100-4.667A2.333 2.333 0 0011 30zM6.454 5.253L6.187 8.52a1.057 1.057 0 001.067 1.147h20.413c.56 0 1.027-.427 1.067-.987.173-2.36-1.627-4.28-3.987-4.28H8.36a3.636 3.636 0 00-.813-1.613 3.546 3.546 0 00-2.56-1.12h-2.32c-.547 0-1 .453-1 1 0 .546.453 1 1 1h2.32c.413 0 .8.173 1.08.466.28.307.413.707.387 1.12zM27.347 11.667H6.894c-.56 0-1.013.426-1.067.973l-.48 5.8a3.897 3.897 0 003.88 4.227h14.827c2 0 3.76-1.64 3.907-3.64l.44-6.227a1.043 1.043 0 00-1.054-1.133z"/></symbol><symbol id="sms-star"><path d="M19.981 2.82l.28.57c.14.28.49.54.8.6l.38.06c1.14.19 1.41 1.03.59 1.86l-.35.35c-.23.24-.36.7-.29 1.02l.05.21c.31 1.38-.42 1.91-1.62 1.19l-.26-.15c-.31-.18-.81-.18-1.12 0l-.26.15c-1.21.73-1.94.19-1.62-1.19l.05-.21c.07-.32-.06-.78-.29-1.02l-.35-.36c-.82-.83-.55-1.67.59-1.86l.38-.06c.3-.05.66-.32.8-.6l.28-.57c.54-1.08 1.42-1.08 1.96.01z" fill="#fff"/><path d="M22.07 10.09c-.36.26-1.37.74-2.81 0a.562.562 0 00-.52 0c-.57.29-1.09.41-1.5.41-.64 0-1.09-.25-1.31-.41-.37-.27-1.15-1.04-.88-2.67a.572.572 0 00-.13-.47c-.69-.79-1.07-1.85-.8-2.68.1-.33-.11-.77-.45-.77H7.5c-3 0-5 1.5-5 5v7c0 3.5 2 5 5 5h10c3 0 5-1.5 5-5v-5.23c0-.19-.27-.29-.43-.18zm-7.23 2c-.66.53-1.5.79-2.34.79-.84 0-1.69-.26-2.34-.79l-3.13-2.5a.77.77 0 01-.12-1.06c.26-.32.73-.38 1.05-.12l3.13 2.5c.76.61 2.05.61 2.81 0 .32-.26.79-.21 1.05.12.27.32.22.8-.11 1.06z" fill="#fff"/></symbol><symbol id="successPlan"><path d="M5 11l4.5 5L19 7.5" stroke="#5759CE" fill="transparent" stroke-width="2"/></symbol><symbol id="TelegramLogo"><path d="M22.338 27.54a2.7 2.7 0 01-.41 0 2.159 2.159 0 01-.96-.52l-11-9.69-6.39-1.31a2 2 0 01-.35-3.8l23.08-9.06a2 2 0 011.07-.14 2.07 2.07 0 011 .45c.272.24.476.547.59.89a2 2 0 010 1.1l-4.68 20.56a2.07 2.07 0 01-.48.9c-.234.255-.53.445-.86.55-.198.057-.404.081-.61.07zm4.7-22.52l-23.07 9.06 6.66 1.34a.91.91 0 01.47.23l11.23 9.89 4.71-20.52z" fill="#fff"/><path d="M10.438 17.4a1 1 0 01-.59-1.81L26.858 3.3a1 1 0 111.17 1.62l-17 12.29a.999.999 0 01-.59.19z" fill="#fff"/><path d="M11.428 26.54a2.001 2.001 0 01-1.65-.89 2 2 0 01-.34-1.11V16.4a1 1 0 112 0v8.14l3.9-3.91a1.002 1.002 0 011.71.705 1 1 0 01-.29.705l-3.9 3.9a2.1 2.1 0 01-1 .56 2.718 2.718 0 01-.43.04z" fill="#fff"/></symbol><symbol id="TwitterLogo"><path d="M15.74 26.8a17.192 17.192 0 01-6.3 1.2h-.1c-4.4 0-5.7-1.7-5.8-1.9a1 1 0 01-.1-.9.9.9 0 01.6-.6 13.49 13.49 0 004.9-3.3 16.702 16.702 0 01-3.1-3C4 15.9 2.24 11.9 3.34 5.8A1.78 1.78 0 014 5a1.16 1.16 0 011 .2 24.8 24.8 0 009.3 5.5V10a6 6 0 011.8-4.3A6.31 6.31 0 0120.44 4a5.78 5.78 0 013.2 1 6.06 6.06 0 011.9 2h3.8a.87.87 0 01.9.6.91.91 0 01-.24 1.1l-3.8 3.8a16.86 16.86 0 01-10.46 14.3zm-9.3-1.2a10 10 0 002.9.4h.8a9.89 9.89 0 003-.4 15.28 15.28 0 0011.1-13.7c0-.2.1-.3.2-.5l2.5-2.4h-2.2c-.3 0-.5-.2-.7-.5a4 4 0 00-1.5-1.9 3.94 3.94 0 00-2.1-.6 3.63 3.63 0 00-2.8 1.2 4 4 0 00-1.2 2.8v2a.909.909 0 01-.4.8 1.34 1.34 0 01-.8.2 22.14 22.14 0 01-10.1-5c-.7 8.7 5.4 12 5.7 12.1.3.1.4.4.5.6.067.27.031.555-.1.8a12.87 12.87 0 01-4.8 4.1z" fill="#fff"/></symbol><symbol id="user-octagon"><path d="M19.51 5.85l-5.94-3.43c-.97-.56-2.17-.56-3.15 0L4.49 5.85a3.15 3.15 0 00-1.57 2.73v6.84c0 1.12.6 2.16 1.57 2.73l5.94 3.43c.97.56 2.17.56 3.15 0l5.94-3.43a3.15 3.15 0 001.57-2.73V8.58a3.192 3.192 0 00-1.58-2.73zM12 7.34c1.29 0 2.33 1.04 2.33 2.33S13.29 12 12 12s-2.33-1.04-2.33-2.33c0-1.28 1.04-2.33 2.33-2.33zm2.68 9.32H9.32c-.81 0-1.28-.9-.83-1.57.68-1.01 2-1.69 3.51-1.69 1.51 0 2.83.68 3.51 1.69.45.66-.03 1.57-.83 1.57z" fill="#8C8C8C"/></symbol><symbol id="user-tag"><path d="M24 2.667H8c-2.213 0-4 1.773-4 3.96v14.546c0 2.187 1.787 3.96 4 3.96h1.013c1.067 0 2.08.414 2.827 1.16l2.28 2.254a2.696 2.696 0 003.773 0l2.28-2.254A4.007 4.007 0 0123 25.133h1c2.213 0 4-1.773 4-3.96V6.627c0-2.187-1.787-3.96-4-3.96zm-8 5a3.101 3.101 0 013.107 3.106A3.101 3.101 0 0116 13.88a3.11 3.11 0 01-3.107-3.107A3.101 3.101 0 0116 7.667zm3.573 12.413h-7.146c-1.08 0-1.707-1.2-1.107-2.093.907-1.347 2.667-2.254 4.68-2.254s3.773.907 4.68 2.254c.6.893-.04 2.093-1.107 2.093z"/></symbol><symbol id="verify"><path d="M22.06 10.74L20.7 9.16c-.26-.3-.47-.86-.47-1.26V6.2c0-1.06-.87-1.93-1.93-1.93h-1.7c-.39 0-.96-.21-1.26-.47l-1.58-1.36c-.69-.59-1.82-.59-2.52 0L9.67 3.81c-.3.25-.87.46-1.26.46H6.68c-1.06 0-1.93.87-1.93 1.93v1.71c0 .39-.21.95-.46 1.25l-1.35 1.59c-.58.69-.58 1.81 0 2.5l1.35 1.59c.25.3.46.86.46 1.25v1.71c0 1.06.87 1.93 1.93 1.93h1.73c.39 0 .96.21 1.26.47l1.58 1.36c.69.59 1.82.59 2.52 0l1.58-1.36c.3-.26.86-.47 1.26-.47h1.7c1.06 0 1.93-.87 1.93-1.93v-1.7c0-.39.21-.96.47-1.26l1.36-1.58c.58-.69.58-1.83-.01-2.52zm-5.4-.63l-4.83 4.83a.75.75 0 01-1.06 0l-2.42-2.42a.754.754 0 010-1.06c.29-.29.77-.29 1.06 0l1.89 1.89 4.3-4.3c.29-.29.77-.29 1.06 0 .29.29.29.77 0 1.06z"/></symbol><symbol id="VkLogo"><path d="M28.9 21.86a6 6 0 00-.9-1.66c-.41-.55-.92-1.16-1.49-1.8-.34-.4-.75-.8-1.08-1.13a8.27 8.27 0 01-.66-.69c.2-.29 1-1.44 1.8-2.71.4-.63.8-1.3 1.13-1.92a7.6 7.6 0 00.71-1.67 1.76 1.76 0 00-.18-1.61 1.84 1.84 0 00-1.58-.7H24a2.21 2.21 0 00-1.36.43c-.31.24-.64.6-.7.92v.016l-.17.464c-.15.32-.37.78-.64 1.3A17.528 17.528 0 0119 14.31V9.96a2.19 2.19 0 00-.34-1.29 1.66 1.66 0 00-1.38-.63h-4.13a1.63 1.63 0 00-1.67 1.6c.001.36.117.71.33 1l.2.26.15.19c.239.335.365.738.36 1.15v3.15c-.2-.26-.43-.58-.66-1a23.247 23.247 0 01-2.21-4.72 2.82 2.82 0 00-.7-1.19 2 2 0 00-1.42-.5H4.9a2 2 0 00-1.45.53A1.71 1.71 0 003 9.74c.024.434.101.864.23 1.28.191.68.425 1.348.7 2a30.732 30.732 0 003.4 6c2.31 3.32 5.65 5.23 8.83 5.23.734.059 1.47-.094 2.12-.44a1.78 1.78 0 00.72-1.58V20.1h.06c.56.359 1.076.782 1.54 1.26.42.43.76.79 1 1.11l.15.17c.22.25.43.48.62.67.245.258.528.477.84.65.345.181.73.274 1.12.27H27a2.001 2.001 0 001.6-.56 1.851 1.851 0 00.3-1.81z" stroke="#fff" stroke-width="2"/></symbol></svg>