<svg xmlns="http://www.w3.org/2000/svg" xmlns:xlink="http://www.w3.org/1999/xlink"><symbol id="logo" viewBox="0 0 126 40"><path d="M20 3.333C10.8 3.333 3.333 10.8 3.333 20c0 9.2 7.467 16.667 16.667 16.667 9.2 0 16.666-7.467 16.666-16.667C36.666 10.8 29.2 3.333 20 3.333zm5.883 18.717l-8.633 5.983c-1.267.884-2 .367-1.634-1.116l1.584-6.4-2.75-.684c-1.25-.3-1.4-1.166-.35-1.9l8.633-5.983c1.267-.883 2-.367 1.633 1.117l-1.583 6.4 2.75.683c1.25.317 1.4 1.167.35 1.9zM44.765 14.566v-2.73H57.63v2.73h-4.796V27.5H49.56V14.566h-4.795zM63.338 27.73c-1.209 0-2.25-.245-3.121-.735a5.029 5.029 0 01-2.004-2.096c-.47-.907-.704-1.98-.704-3.22 0-1.208.235-2.269.704-3.181a5.202 5.202 0 011.981-2.134c.857-.51 1.861-.765 3.014-.765.775 0 1.496.125 2.164.375a4.8 4.8 0 011.76 1.109c.504.494.897 1.116 1.177 1.866.28.744.42 1.616.42 2.616v.895h-9.92v-2.02h6.854c0-.469-.102-.884-.306-1.246a2.192 2.192 0 00-.85-.85c-.356-.208-.772-.313-1.246-.313-.495 0-.933.115-1.316.344a2.414 2.414 0 00-.887.91 2.57 2.57 0 00-.329 1.262v1.92c0 .582.108 1.084.322 1.507.219.423.527.75.925.979.398.23.87.344 1.415.344.362 0 .694-.05.994-.153.301-.102.559-.255.773-.459.214-.204.377-.453.49-.75l3.013.2a4.115 4.115 0 01-.94 1.896c-.47.536-1.077.954-1.821 1.255-.74.296-1.594.444-2.562.444zm10.868-.008c-.75 0-1.417-.13-2.004-.39a3.225 3.225 0 01-1.392-1.17c-.336-.52-.505-1.168-.505-1.943 0-.653.12-1.201.36-1.645.24-.443.566-.8.979-1.07.413-.27.882-.475 1.407-.612.53-.138 1.086-.235 1.668-.291a42.182 42.182 0 001.652-.199c.418-.066.721-.163.91-.29.189-.128.283-.317.283-.566V19.5c0-.485-.153-.86-.459-1.125-.3-.265-.73-.398-1.285-.398-.586 0-1.053.13-1.4.39a1.795 1.795 0 00-.688.964l-3.013-.244c.152-.714.453-1.331.902-1.851.449-.526 1.028-.928 1.736-1.209.714-.286 1.54-.428 2.478-.428a7.52 7.52 0 011.874.23c.602.152 1.135.39 1.599.71.469.322.839.735 1.109 1.24.27.5.405 1.099.405 1.797V27.5h-3.09v-1.63h-.091a3.314 3.314 0 01-.758.972 3.504 3.504 0 01-1.14.65c-.443.153-.956.23-1.537.23zm.933-2.249c.48 0 .903-.094 1.27-.283.367-.194.655-.454.864-.78.21-.326.314-.696.314-1.11v-1.246a1.745 1.745 0 01-.42.184c-.174.05-.37.1-.59.145-.219.04-.438.08-.657.115l-.597.084a4.03 4.03 0 00-1.002.268 1.601 1.601 0 00-.665.497c-.159.204-.238.459-.238.765 0 .443.161.782.482 1.017.327.23.74.344 1.24.344zm11.47-13.637V27.5H83.35V11.836h3.258zM94.264 27.5V11.836h3.311v6.463h6.724v-6.463h3.304V27.5H104.3v-6.47h-6.724v6.47h-3.311zm16.069 0V11.836h6.18c1.183 0 2.193.211 3.029.634.842.419 1.482 1.013 1.92 1.783.444.764.666 1.665.666 2.7 0 1.04-.225 1.935-.674 2.684-.448.745-1.098 1.316-1.95 1.713-.846.398-1.871.597-3.075.597h-4.138v-2.662h3.603c.632 0 1.157-.086 1.576-.26.418-.173.729-.433.933-.78.209-.347.313-.777.313-1.292 0-.52-.104-.959-.313-1.316-.204-.357-.518-.627-.941-.81-.418-.19-.946-.284-1.583-.284h-2.234V27.5h-3.312zm8.46-7.128l3.893 7.128h-3.656l-3.809-7.128h3.572z"/></symbol></svg>